SplineFontDB: 3.2
FontName: ChessJiutepec
FullName: ChessJiutepec
FamilyName: ChessJiutepec
Weight: Regular
Copyright: Piece shapes come from the public domain font Quivira. Thie font is donated to the public domain 2022 by Sam Trenholme
UComments: "2022-4-14: Created with FontForge (http://fontforge.org)"
Version: 001.000
ItalicAngle: 0
UnderlinePosition: 0
UnderlineWidth: 0
Ascent: 500
Descent: 500
InvalidEm: 0
LayerCount: 2
Layer: 0 0 "Back" 1
Layer: 1 0 "Fore" 0
XUID: [1021 900 -2068765213 18787]
FSType: 0
OS2Version: 0
OS2_WeightWidthSlopeOnly: 0
OS2_UseTypoMetrics: 1
CreationTime: 1650005861
ModificationTime: 1650093141
PfmFamily: 17
TTFWeight: 400
TTFWidth: 5
LineGap: 0
VLineGap: 0
Panose: 0 0 0 0 0 0 0 0 0 0
OS2TypoAscent: 500
OS2TypoAOffset: 0
OS2TypoDescent: -500
OS2TypoDOffset: 0
OS2TypoLinegap: 500
OS2WinAscent: 500
OS2WinAOffset: 0
OS2WinDescent: 500
OS2WinDOffset: 0
HheadAscent: 500
HheadAOffset: 0
HheadDescent: -500
HheadDOffset: 0
OS2SubXSize: 648
OS2SubYSize: 699
OS2SubXOff: 0
OS2SubYOff: 139
OS2SupXSize: 648
OS2SupYSize: 699
OS2SupXOff: 0
OS2SupYOff: 479
OS2StrikeYSize: 49
OS2StrikeYPos: 258
OS2CapHeight: 340
OS2XHeight: 256
OS2Vendor: 'PfEd'
MarkAttachClasses: 1
DEI: 91125
LangName: 1033
Encoding: ISO8859-1
UnicodeInterp: none
NameList: AGL For New Fonts
DisplaySize: -48
AntiAlias: 1
FitToEm: 0
WinInfo: 0 31 12
BeginPrivate: 0
EndPrivate
TeXData: 1 0 0 1048576 524288 349525 682885 1048576 349525 783286 444596 497025 792723 393216 433062 380633 303038 157286 324010 404750 52429 2506097 1059062 262144
BeginChars: 256 46

StartChar: space
Encoding: 32 32 0
Width: 1000
Flags: HW
LayerCount: 2
Fore
SplineSet
0 0 m 1024
EndSplineSet
Validated: 1
EndChar

StartChar: exclam
Encoding: 33 33 1
Width: 1000
Flags: HW
LayerCount: 2
Fore
SplineSet
950 -450 m 1
 1000 -450 l 1
 1000 -500 l 1
 950 -500 l 1
 950 -450 l 1
EndSplineSet
Validated: 1
EndChar

StartChar: quotedbl
Encoding: 34 34 2
Width: 1000
Flags: HW
LayerCount: 2
Fore
SplineSet
0 -450 m 1
 1000 -450 l 1
 1000 -500 l 1
 0 -500 l 5
 0 -450 l 1
EndSplineSet
Validated: 1
EndChar

StartChar: numbersign
Encoding: 35 35 3
Width: 1000
Flags: HW
LayerCount: 2
Fore
SplineSet
0 -450 m 1
 50 -450 l 1
 50 -500 l 1
 0 -500 l 5
 0 -450 l 1
EndSplineSet
Validated: 1
EndChar

StartChar: dollar
Encoding: 36 36 4
Width: 1000
Flags: HW
LayerCount: 2
Fore
SplineSet
950 500 m 5
 1000 500 l 5
 1000 -500 l 5
 950 -500 l 5
 950 500 l 5
0 0 m 1024
EndSplineSet
Validated: 1
EndChar

StartChar: percent
Encoding: 37 37 5
Width: 1000
Flags: HW
LayerCount: 2
Fore
SplineSet
0 500 m 5
 50 500 l 5
 50 -500 l 5
 0 -500 l 5
 0 500 l 5
0 0 m 1024
EndSplineSet
Validated: 1
EndChar

StartChar: parenleft
Encoding: 40 40 6
Width: 1000
Flags: HW
LayerCount: 2
Fore
SplineSet
0 450 m 1
 0 500 l 5
 1000 500 l 1
 1000 450 l 1
 0 450 l 1
EndSplineSet
Validated: 1
EndChar

StartChar: parenright
Encoding: 41 41 7
Width: 1000
Flags: HW
LayerCount: 2
Fore
SplineSet
0 450 m 1
 0 500 l 5
 50 500 l 1
 50 450 l 1
 0 450 l 1
EndSplineSet
Validated: 1
EndChar

StartChar: B
Encoding: 66 66 8
Width: 1000
Flags: H
LayerCount: 2
Fore
SplineSet
74.0498046875 424.150390625 m 1
 148.099609375 500 l 1
 158.150390625 500 l 1
 168.150390625 500 l 1
 159.200195312 490.849609375 l 2
 154.299804688 485.849609375 119.099609375 449.849609375 81.0498046875 410.849609375 c 2
 11.900390625 340 l 1
 5.9501953125 340 l 1
 0 340 l 1
 0 344.150390625 l 1
 0 348.299804688 l 1
 74.0498046875 424.150390625 l 1
308.75 499.200195312 m 2
 313.450195312 499.549804688 317.799804688 499.900390625 318.5 499.950195312 c 0
 319.650390625 500 319.5 499.799804688 317.25 497.549804688 c 0
 315.849609375 496.25 246.400390625 428.75 162.900390625 347.549804688 c 2
 11 200 l 1
 5.5 200 l 1
 0 200 l 1
 0 205.5 l 1
 0 210.950195312 l 1
 77.400390625 285.599609375 l 2
 119.950195312 326.650390625 186.25 390.150390625 224.75 426.700195312 c 0
 263.25 463.25 296 494.349609375 297.5 495.799804688 c 2
 300.299804688 498.5 l 1
 308.75 499.200195312 l 2
214.75 284.799804688 m 1
 429.25 500 l 1
 439.25 500 l 1
 449.25 500 l 1
 427.700195312 478.400390625 l 2
 415.799804688 466.5 317.200195312 367.549804688 208.549804688 258.5 c 2
 10.9501953125 60.25 l 1
 5.4501953125 60.099609375 l 1
 -0.0498046875 59.9501953125 l 1
 0.099609375 64.75 l 1
 0.25 69.5498046875 l 1
 214.75 284.799804688 l 1
506.5 436.900390625 m 2
 569.25 499.900390625 l 1
 579.200195312 499.950195312 l 1
 589.200195312 500 l 1
 584.450195312 495.099609375 l 2
 581.900390625 492.400390625 556.400390625 466.849609375 527.900390625 438.25 c 0
 499.400390625 409.650390625 476.150390625 386.200195312 476.25 386.099609375 c 0
 476.349609375 386 478.450195312 386.25 480.849609375 386.650390625 c 0
 495.900390625 389.349609375 514.75 389.099609375 530 386 c 0
 547.150390625 382.5 563.049804688 375.450195312 572.549804688 367.099609375 c 1
 574.799804688 365.049804688 l 1
 642.299804688 432.549804688 l 1
 709.75 500 l 1
 719.75 500 l 1
 729.75 500 l 1
 656.849609375 427.099609375 l 1
 583.900390625 354.150390625 l 1
 585.450195312 351.599609375 l 2
 587.5 348.099609375 589.650390625 343 590.799804688 338.75 c 0
 592.25 333.400390625 592.150390625 321.200195312 590.599609375 315.799804688 c 0
 585.75 299.049804688 572.549804688 284.75 554.650390625 277 c 0
 552.400390625 276.049804688 550.5 275.099609375 550.400390625 274.900390625 c 0
 550.299804688 274.75 555.849609375 270.950195312 562.75 266.5 c 0
 569.599609375 262.049804688 579.599609375 255.450195312 585 251.75 c 2
 594.849609375 245.099609375 l 1
 722.299804688 372.549804688 l 1
 849.75 500 l 1
 859.75 500 l 1
 869.75 500 l 1
 738.349609375 368.599609375 l 2
 666.099609375 296.349609375 607 237.099609375 607 236.900390625 c 0
 607 236.75 609.400390625 234.849609375 612.400390625 232.700195312 c 0
 633.5 217.400390625 657 198.799804688 669.400390625 187.549804688 c 2
 673.549804688 183.799804688 l 1
 831.650390625 341.900390625 l 1
 989.75 500 l 1
 994.900390625 500 l 1
 1000 500 l 1
 1000 495.099609375 l 1
 1000 490.25 l 1
 842 332.25 l 1
 684.049804688 174.299804688 l 1
 694.650390625 163.5 l 2
 712.900390625 145.049804688 724.599609375 130.400390625 734.400390625 113.849609375 c 2
 737.849609375 108.099609375 l 1
 863.799804688 234.049804688 l 1
 989.75 360 l 1
 994.849609375 360 l 1
 1000 360 l 1
 1000 355.150390625 l 1
 1000 350.25 l 1
 872.150390625 222.400390625 l 1
 744.299804688 94.5498046875 l 1
 745.450195312 91.400390625 l 2
 757.849609375 57.7001953125 751.599609375 27.849609375 726.75 2.099609375 c 0
 723.450195312 -1.349609375 718.849609375 -5.75 716.5 -7.75 c 0
 699.950195312 -21.75 676.75 -35.099609375 649.25 -46.5 c 0
 645.150390625 -48.2001953125 641.650390625 -49.7001953125 641.549804688 -49.7998046875 c 0
 641.450195312 -49.849609375 642.75 -51.2001953125 644.450195312 -52.7998046875 c 2
 647.5 -55.599609375 l 1
 647.5 -86.25 l 1
 647.5 -116.900390625 l 1
 642.900390625 -120.900390625 l 2
 631.599609375 -130.549804688 619.75 -137.950195312 605.150390625 -144.450195312 c 0
 598.900390625 -147.25 582.75 -153.299804688 577.150390625 -155 c 0
 575.150390625 -155.599609375 573.5 -156.299804688 573.5 -156.5 c 0
 573.5 -157.700195312 592.400390625 -176 593.650390625 -176 c 0
 593.799804688 -176 682.950195312 -86.900390625 791.799804688 22 c 2
 989.650390625 220 l 1
 994.849609375 220 l 1
 1000 220 l 1
 1000 215.150390625 l 1
 1000 210.349609375 l 1
 802.650390625 12.849609375 l 1
 605.349609375 -184.599609375 l 1
 609.549804688 -187.099609375 l 2
 625.950195312 -196.75 643.299804688 -202.549804688 664.25 -205.349609375 c 0
 671.25 -206.25 697.5 -206.650390625 702.049804688 -205.849609375 c 0
 704.25 -205.450195312 707.400390625 -202.349609375 847 -62.75 c 2
 989.700195312 80 l 1
 994.849609375 80 l 1
 1000 80 l 1
 1000 75.150390625 l 1
 1000 70.25 l 1
 864.150390625 -65.599609375 l 2
 789.450195312 -140.299804688 728.400390625 -201.549804688 728.5 -201.650390625 c 0
 728.650390625 -201.75 730.450195312 -201.700195312 732.5 -201.450195312 c 0
 734.549804688 -201.200195312 741.549804688 -200.799804688 748 -200.549804688 c 0
 778.349609375 -199.200195312 807.200195312 -202.700195312 832.150390625 -210.650390625 c 1
 837.5 -212.400390625 l 1
 913.349609375 -136.200195312 l 1
 989.200195312 -60 l 1
 994.599609375 -60 l 1
 1000.04980469 -60 l 1
 999.900390625 -64.75 l 1
 999.75 -69.5 l 1
 925.700195312 -143.900390625 l 1
 851.650390625 -218.299804688 l 1
 857.799804688 -221.450195312 l 2
 870.5 -227.950195312 882.450195312 -236.900390625 894 -248.450195312 c 0
 901.700195312 -256.200195312 908.5 -264.299804688 914.650390625 -273.099609375 c 2
 918.400390625 -278.5 l 1
 947.799804688 -250.150390625 l 2
 964 -234.599609375 982.349609375 -216.900390625 988.650390625 -210.849609375 c 2
 1000 -199.900390625 l 1
 1000 -208.849609375 l 1
 1000 -217.849609375 l 1
 962.799804688 -254.150390625 l 1
 925.599609375 -290.5 l 1
 928.349609375 -295.599609375 l 2
 933.049804688 -304.200195312 943 -326.599609375 943 -328.5 c 0
 943 -328.799804688 935.099609375 -343.25 925.400390625 -360.549804688 c 2
 907.849609375 -392 l 1
 905 -385.049804688 l 2
 900.849609375 -374.950195312 896.400390625 -365.450195312 892.099609375 -357.650390625 c 0
 888.450195312 -350.900390625 881.349609375 -339.299804688 879.650390625 -337.200195312 c 0
 878.75 -336.099609375 878.049804688 -336.799804688 795 -418 c 2
 711.25 -499.950195312 l 1
 705.650390625 -499.950195312 l 1
 700 -500 l 1
 700 -494.5 l 1
 700 -489 l 1
 783.849609375 -408.150390625 l 2
 829.950195312 -363.650390625 868.200195312 -326.849609375 868.849609375 -326.349609375 c 0
 869.5 -325.849609375 870 -325.150390625 870 -324.799804688 c 0
 870 -323.900390625 861.950195312 -314.950195312 856.450195312 -309.799804688 c 0
 840.549804688 -294.799804688 823.599609375 -284.650390625 803.25 -277.950195312 c 0
 799.950195312 -276.849609375 796.599609375 -275.900390625 795.75 -275.849609375 c 0
 794.400390625 -275.75 784.650390625 -285.349609375 682.5 -387.849609375 c 2
 570.75 -500 l 1
 560.75 -500 l 1
 550.75 -500 l 1
 579.5 -471.099609375 l 2
 595.349609375 -455.25 646.400390625 -404 693 -357.299804688 c 2
 777.75 -272.349609375 l 1
 776 -271.950195312 l 2
 775.049804688 -271.75 770.549804688 -271.299804688 766 -270.950195312 c 0
 751.75 -269.900390625 731.299804688 -271.099609375 715.25 -273.950195312 c 0
 704.150390625 -275.950195312 682.150390625 -276.75 663.25 -275.849609375 c 2
 654.75 -275.450195312 l 1
 542.549804688 -387.75 l 1
 430.299804688 -500 l 1
 420.549804688 -499.900390625 l 1
 410.75 -499.75 l 1
 524 -386.400390625 l 2
 586.25 -324 637.049804688 -273 636.849609375 -273 c 0
 635.25 -273 620.200195312 -269.549804688 614 -267.799804688 c 0
 592.5 -261.599609375 574.049804688 -252.299804688 558.849609375 -240.049804688 c 0
 556.450195312 -238.099609375 554.299804688 -236.5 554.099609375 -236.5 c 0
 553.900390625 -236.5 494.450195312 -295.799804688 422 -368.25 c 2
 290.25 -500 l 1
 280.25 -500 l 1
 270.25 -500 l 1
 406.950195312 -363.299804688 l 1
 543.650390625 -226.599609375 l 1
 542.450195312 -225.099609375 l 2
 541.799804688 -224.299804688 539.75 -221.950195312 537.950195312 -219.950195312 c 0
 527.25 -208.049804688 515.950195312 -190.849609375 507.450195312 -173.549804688 c 0
 505.400390625 -169.400390625 503.650390625 -166 503.5 -166.049804688 c 0
 503.349609375 -166.049804688 501.400390625 -169.799804688 499.150390625 -174.400390625 c 0
 488.599609375 -195.900390625 476.75 -212.849609375 461.5 -228 c 0
 453.700195312 -235.75 447.599609375 -240.700195312 437.799804688 -247.25 c 0
 422 -257.700195312 405.5 -264.900390625 385.75 -269.799804688 c 2
 378.75 -271.599609375 l 1
 264.5 -385.799804688 l 1
 150.25 -500 l 1
 140.25 -500 l 1
 130.25 -500 l 1
 242.75 -387.450195312 l 2
 335.099609375 -295.049804688 354.950195312 -274.950195312 353.700195312 -275.150390625 c 0
 352.799804688 -275.349609375 346.700195312 -275.700195312 340.099609375 -276.049804688 c 0
 330.75 -276.5 325.150390625 -276.5 315.150390625 -276.049804688 c 0
 300.849609375 -275.349609375 298.400390625 -275.150390625 286.5 -273.299804688 c 0
 272.549804688 -271.200195312 267.25 -270.799804688 253.150390625 -270.75 c 2
 239.5 -270.75 l 1
 124.900390625 -385.349609375 l 1
 10.25 -500 l 1
 5.099609375 -500 l 1
 0 -500 l 1
 0 -495.150390625 l 1
 0 -490.25 l 1
 49.4501953125 -440.75 l 1
 98.900390625 -391.25 l 1
 81.900390625 -361 l 2
 72.599609375 -344.349609375 64.7001953125 -330.25 64.400390625 -329.650390625 c 0
 63.9501953125 -328.700195312 64.349609375 -327.349609375 66.75 -321.400390625 c 0
 69.599609375 -314.25 78.2998046875 -296.099609375 81.75 -290 c 0
 83.400390625 -287.099609375 79.650390625 -290.700195312 46.9501953125 -323.349609375 c 2
 10.25 -360 l 1
 5.099609375 -360 l 1
 0 -360 l 1
 0 -355.150390625 l 1
 0 -350.25 l 1
 160.75 -189.5 l 1
 321.5 -28.75 l 1
 318.150390625 -26.7998046875 l 2
 316.25 -25.75 311.25 -22.5498046875 307 -19.75 c 0
 286 -5.7998046875 271.75 9 263.5 25.4501953125 c 2
 260.900390625 30.650390625 l 1
 135.599609375 -94.650390625 l 1
 10.25 -220 l 1
 5.099609375 -220 l 1
 0 -220 l 1
 0 -215.150390625 l 1
 0 -210.25 l 1
 128.25 -82 l 1
 256.5 46.25 l 1
 255.950195312 49.75 l 2
 255.099609375 55.099609375 255.650390625 68.650390625 256.950195312 75.25 c 0
 260.900390625 94.75 272.25 116.5 290.299804688 139 c 0
 315.650390625 170.700195312 357.349609375 207 411.25 244.349609375 c 0
 420.25 250.599609375 441.849609375 264.950195312 450.150390625 270.25 c 0
 453.950195312 272.650390625 456.900390625 274.799804688 456.650390625 275 c 0
 456.450195312 275.25 454.549804688 276.099609375 452.5 276.950195312 c 0
 450.450195312 277.849609375 446.549804688 279.900390625 443.75 281.549804688 c 0
 428.650390625 290.599609375 418.349609375 304.75 415.549804688 320.349609375 c 2
 414.75 325 l 1
 356.75 266.849609375 l 2
 324.849609375 234.900390625 233.849609375 143.799804688 154.549804688 64.400390625 c 2
 10.2998046875 -80 l 1
 5.150390625 -80 l 1
 0 -80 l 1
 0 -75.2001953125 l 1
 0 -70.400390625 l 1
 210.950195312 140.900390625 l 2
 379.849609375 310.099609375 422.549804688 353.099609375 425.049804688 356.599609375 c 0
 428.650390625 361.75 434.299804688 367.25 439.799804688 371.150390625 c 0
 442.75 373.200195312 459.950195312 390.150390625 506.5 436.900390625 c 2
512.099609375 351.25 m 0
 503.900390625 352.75 494.349609375 351.900390625 486.299804688 348.950195312 c 0
 473.400390625 344.299804688 466.099609375 333.75 468.700195312 323.549804688 c 0
 471.549804688 312.5 482.900390625 304.950195312 499 303.549804688 c 0
 504.450195312 303.049804688 512.650390625 303.650390625 514.200195312 304.650390625 c 0
 514.799804688 305.049804688 516.5 305.75 518 306.25 c 0
 528.349609375 309.599609375 536.599609375 317.799804688 537.799804688 325.950195312 c 0
 538 327.200195312 538.349609375 328.5 538.599609375 328.849609375 c 0
 539.299804688 329.75 537.75 334.700195312 535.75 337.700195312 c 0
 531.200195312 344.700195312 523.25 349.299804688 512.099609375 351.25 c 0
506.25 276.799804688 m 0
 505.700195312 276.900390625 504.700195312 277.049804688 504 277.200195312 c 0
 503.099609375 277.400390625 501.849609375 276.900390625 499.75 275.549804688 c 0
 498.099609375 274.5 492.599609375 271.049804688 487.5 267.900390625 c 0
 482.400390625 264.75 474.200195312 259.5 469.25 256.25 c 0
 463.349609375 252.450195312 460.75 250.950195312 461.75 252 c 2
 463.25 253.650390625 l 1
 461 252.25 l 2
 456.299804688 249.299804688 435.900390625 235.599609375 427 229.349609375 c 0
 357.700195312 180.650390625 314 136.400390625 298.25 98.849609375 c 0
 296.25 93.9501953125 293 84.4501953125 293 83.349609375 c 0
 293 83.099609375 293.349609375 83.2001953125 293.799804688 83.5498046875 c 0
 294.549804688 84.150390625 294.599609375 84.099609375 294.299804688 83.2001953125 c 0
 293.200195312 79.75 292.450195312 74.4501953125 292.200195312 68.75 c 0
 292.049804688 65.2001953125 291.700195312 61.75 291.400390625 61.150390625 c 0
 290.950195312 60.2998046875 291.049804688 58.75 291.650390625 54.9501953125 c 0
 293.349609375 44.75 297.75 34.400390625 304.400390625 25 c 0
 308.400390625 19.349609375 318.400390625 9.099609375 325.049804688 3.7998046875 c 0
 332.450195312 -2.0498046875 341.549804688 -8.0498046875 342.599609375 -7.7001953125 c 0
 343.599609375 -7.400390625 355.650390625 -14.349609375 355.25 -15 c 0
 354.650390625 -16 376.5 -26.150390625 381.200195312 -27.0498046875 c 0
 385.650390625 -27.9501953125 395 -27.7998046875 400.25 -26.7998046875 c 0
 402.75 -26.2998046875 410.049804688 -24.150390625 416.5 -21.9501953125 c 0
 438.650390625 -14.4501953125 453.5 -11 474.950195312 -8.4501953125 c 0
 489.400390625 -6.75 496.25 -6.4501953125 511 -7 c 0
 540.700195312 -8.099609375 561.049804688 -11.7998046875 589.349609375 -21.2998046875 c 0
 597.099609375 -23.900390625 603.75 -25.849609375 604.150390625 -25.7001953125 c 0
 604.599609375 -25.5498046875 607.200195312 -25.7998046875 610.049804688 -26.2998046875 c 0
 613.400390625 -26.849609375 616.5 -27.0498046875 619.049804688 -26.849609375 c 0
 621.75 -26.7001953125 622.900390625 -26.75 622.650390625 -27.099609375 c 0
 622.25 -27.7998046875 626.75 -27.25 629.950195312 -26.2001953125 c 0
 633.650390625 -24.9501953125 654.049804688 -14.849609375 660.650390625 -10.9501953125 c 0
 689 5.7998046875 705.950195312 23.849609375 713 44.849609375 c 0
 715.400390625 52 717.349609375 66.4501953125 715.849609375 65.849609375 c 0
 715.299804688 65.650390625 715.049804688 66.4501953125 714.799804688 69.650390625 c 0
 714.650390625 71.900390625 714.150390625 75.849609375 713.700195312 78.4501953125 c 0
 713.200195312 81.5 713.099609375 83.2998046875 713.400390625 83.599609375 c 0
 714.5 84.7001953125 710 97.150390625 704.950195312 107 c 0
 697.799804688 120.950195312 686.200195312 136.950195312 672.650390625 151.400390625 c 0
 669.75 154.5 667.099609375 156.950195312 666.75 156.799804688 c 0
 665.950195312 156.5 656.25 166.200195312 656.700195312 166.900390625 c 0
 657.099609375 167.549804688 649.200195312 175.049804688 638.25 184.450195312 c 0
 619.5 200.599609375 591.799804688 221.849609375 590.700195312 220.950195312 c 0
 589.950195312 220.349609375 589.950195312 220.349609375 585.25 223.700195312 c 0
 578.450195312 228.5 578.400390625 228.549804688 579 229.200195312 c 0
 579.400390625 229.700195312 576.849609375 231.650390625 568.150390625 237.599609375 c 0
 546.650390625 252.25 508.5 276.400390625 506.25 276.799804688 c 0
548.150390625 -29.099609375 m 0
 543.25 -27.400390625 531.349609375 -23.349609375 521.75 -20.099609375 c 2
 504.200195312 -14.150390625 l 1
 498.25 -16.2001953125 l 2
 494.950195312 -17.349609375 491.599609375 -18.7001953125 490.75 -19.150390625 c 0
 489.950195312 -19.599609375 483.400390625 -22 476.25 -24.4501953125 c 0
 469.099609375 -26.900390625 462.599609375 -29.150390625 461.849609375 -29.4501953125 c 0
 460.799804688 -29.849609375 460.549804688 -29.849609375 460.799804688 -29.400390625 c 0
 461.049804688 -29.0498046875 460.900390625 -28.9501953125 460.450195312 -29.099609375 c 0
 460.049804688 -29.25 457.849609375 -30 455.5 -30.75 c 2
 451.25 -32.150390625 l 1
 453 -32.900390625 l 2
 453.950195312 -33.2998046875 455.450195312 -33.650390625 456.25 -33.599609375 c 0
 458.099609375 -33.599609375 470.549804688 -37.900390625 471.299804688 -38.7998046875 c 0
 471.849609375 -39.4501953125 503 -50.5 504.349609375 -50.5 c 0
 505.049804688 -50.5 556.5 -32.7001953125 556.849609375 -32.2998046875 c 0
 556.950195312 -32.2001953125 553 -30.75 548.150390625 -29.099609375 c 0
340 -38.25 m 0
 337.549804688 -37 335.25 -36 334.900390625 -36 c 0
 334.549804688 -36 292.299804688 -78 241 -129.299804688 c 0
 165.349609375 -205 148.25 -222.349609375 150.5 -221.150390625 c 0
 154.950195312 -218.700195312 165.450195312 -214.200195312 171.650390625 -212.049804688 c 0
 194.299804688 -204.25 217.099609375 -200.849609375 246.5 -200.849609375 c 0
 262.400390625 -200.900390625 272.599609375 -201.450195312 281.150390625 -202.849609375 c 2
 286.549804688 -203.700195312 l 1
 326.900390625 -163.349609375 l 1
 367.25 -123 l 1
 363.849609375 -119.950195312 l 1
 360.5 -116.900390625 l 1
 360.5 -86.150390625 l 1
 360.5 -55.349609375 l 1
 363.599609375 -52.5498046875 l 1
 366.650390625 -49.7001953125 l 1
 364.200195312 -48.7998046875 l 2
 359.299804688 -46.9501953125 344.400390625 -40.4501953125 340 -38.25 c 0
392.5 -56.7998046875 m 0
 386.049804688 -56.099609375 380.150390625 -55.4501953125 379.400390625 -55.349609375 c 2
 378 -55.150390625 l 1
 378 -64.400390625 l 2
 378 -69.4501953125 378.200195312 -73.5 378.400390625 -73.400390625 c 0
 379.549804688 -73 404.5 -58.349609375 404.400390625 -58.2001953125 c 0
 404.299804688 -58.150390625 398.950195312 -57.5 392.5 -56.7998046875 c 0
630 -64.5498046875 m 0
 630 -59.599609375 629.849609375 -55.4501953125 629.650390625 -55.349609375 c 0
 629.25 -55.150390625 605.450195312 -57.75 604.450195312 -58.099609375 c 0
 603.950195312 -58.25 629 -73.5 629.700195312 -73.5 c 0
 629.900390625 -73.5 630 -69.4501953125 630 -64.5498046875 c 0
528.200195312 -56.7998046875 m 0
 520.099609375 -56.0498046875 500.599609375 -55.5 494.25 -55.7998046875 c 0
 476.099609375 -56.7001953125 451.049804688 -60.2001953125 447.799804688 -62.2001953125 c 0
 447.25 -62.599609375 443.849609375 -63.599609375 440.349609375 -64.5 c 0
 435.049804688 -65.7998046875 423.849609375 -69.150390625 420.599609375 -70.349609375 c 0
 420.099609375 -70.5498046875 419.950195312 -70.4501953125 420.200195312 -70.099609375 c 0
 420.700195312 -69.2998046875 420.650390625 -69.2998046875 415.650390625 -71.0498046875 c 0
 406.049804688 -74.4501953125 394.849609375 -79.75 384.900390625 -85.650390625 c 2
 378 -89.75 l 1
 378 -95.9501953125 l 1
 378 -102.099609375 l 1
 379.400390625 -101.200195312 l 2
 383.049804688 -98.7998046875 391 -94.25 395.599609375 -91.9501953125 c 0
 398.450195312 -90.5498046875 401.099609375 -89.099609375 401.549804688 -88.7001953125 c 0
 404.099609375 -86.4501953125 429 -77.4501953125 432.25 -77.599609375 c 0
 432.799804688 -77.599609375 435.950195312 -76.9501953125 439.25 -76.099609375 c 0
 455.099609375 -72 469.450195312 -69.7001953125 486.75 -68.4501953125 c 0
 506.400390625 -67.099609375 537.900390625 -69 553 -72.4501953125 c 0
 554.25 -72.75 556.150390625 -73 557.25 -73 c 0
 559.599609375 -73 572.950195312 -76.2001953125 573.450195312 -76.7998046875 c 0
 573.599609375 -77.0498046875 576.900390625 -78.25 580.75 -79.4501953125 c 0
 597.349609375 -84.5498046875 612.099609375 -91.150390625 626 -99.650390625 c 2
 629.75 -101.950195312 l 1
 629.900390625 -96.349609375 l 2
 629.950195312 -93.2998046875 629.950195312 -90.5498046875 629.799804688 -90.2001953125 c 0
 629.450195312 -89.2998046875 619.700195312 -83.599609375 611.450195312 -79.5 c 0
 600.099609375 -73.7998046875 584.900390625 -67.900390625 582 -68.0498046875 c 0
 581.299804688 -68.099609375 578.400390625 -67.4501953125 575.5 -66.599609375 c 0
 572.599609375 -65.75 569.299804688 -64.7998046875 568.099609375 -64.5 c 0
 566.950195312 -64.2001953125 566.099609375 -63.75 566.25 -63.5498046875 c 0
 566.349609375 -63.2998046875 566 -63 565.349609375 -62.849609375 c 0
 548.450195312 -59.25 540.349609375 -57.900390625 528.200195312 -56.7998046875 c 0
517.25 -78 m 0
 486 -76.2998046875 453.650390625 -80.75 424 -90.849609375 c 0
 420.299804688 -92.099609375 416.5 -93.75 415.5 -94.4501953125 c 0
 414.549804688 -95.2001953125 411.950195312 -96.5498046875 409.75 -97.5 c 0
 400.400390625 -101.400390625 392.599609375 -105.700195312 384.849609375 -111.150390625 c 2
 379.900390625 -114.650390625 l 1
 382.450195312 -116.200195312 l 2
 383.799804688 -117.049804688 386 -118.349609375 387.25 -119.099609375 c 0
 388.5 -119.849609375 389.450195312 -120.75 389.400390625 -121.049804688 c 0
 389.200195312 -121.799804688 398.849609375 -127.099609375 408 -131.299804688 c 0
 416.400390625 -135.200195312 432.400390625 -140.599609375 443.5 -143.299804688 c 0
 447.75 -144.299804688 451.450195312 -145.349609375 451.700195312 -145.549804688 c 0
 452.799804688 -146.5 439.450195312 -162.549804688 429.650390625 -172 c 0
 397.349609375 -203.200195312 357.299804688 -217.349609375 308.049804688 -214.900390625 c 0
 302.099609375 -214.599609375 296.799804688 -214.400390625 296.25 -214.400390625 c 0
 293.450195312 -214.5 279.549804688 -212.799804688 278.25 -212.200195312 c 0
 273.450195312 -210.099609375 235.349609375 -208.900390625 221 -210.400390625 c 0
 196.450195312 -213 176.049804688 -219.299804688 158.799804688 -229.599609375 c 0
 138.650390625 -241.650390625 119.5 -259.099609375 103.200195312 -280.25 c 0
 96.75 -288.650390625 82.5 -310.799804688 82.5 -312.5 c 0
 82.5 -313.150390625 106.049804688 -355 106.450195312 -355 c 0
 106.599609375 -354.950195312 108.200195312 -352.349609375 110 -349.150390625 c 0
 114.099609375 -341.75 121.75 -330.299804688 127.099609375 -323.450195312 c 0
 143.5 -302.400390625 161.299804688 -287.549804688 182.700195312 -277 c 0
 195.900390625 -270.5 206 -267.049804688 221 -263.950195312 c 0
 234.5 -261.150390625 237.150390625 -260.900390625 252.25 -260.950195312 c 0
 267.700195312 -260.950195312 275.299804688 -261.450195312 288.75 -263.299804688 c 0
 303.900390625 -265.349609375 312.200195312 -266.049804688 326.25 -266.349609375 c 0
 343.75 -266.700195312 363 -265.299804688 367.25 -263.299804688 c 0
 368.099609375 -262.900390625 371.700195312 -261.900390625 375.25 -261.049804688 c 0
 378.849609375 -260.200195312 384.75 -258.549804688 388.349609375 -257.349609375 c 0
 392 -256.150390625 394.75 -255.450195312 394.450195312 -255.849609375 c 0
 393.650390625 -256.75 393.900390625 -256.700195312 397.799804688 -255.049804688 c 0
 407.450195312 -251 413 -248 423.25 -241.25 c 0
 433.75 -234.349609375 442.25 -227.299804688 452.25 -217.25 c 0
 467.75 -201.700195312 476 -190.400390625 492.049804688 -162.799804688 c 0
 493.849609375 -159.75 496.5 -156.049804688 498.049804688 -154.450195312 c 0
 504 -148.299804688 508.099609375 -150.099609375 514.549804688 -161.799804688 c 0
 526.75 -183.75 536.049804688 -197.099609375 549.650390625 -212.150390625 c 0
 552.5 -215.25 553.799804688 -216.400390625 554.200195312 -216.049804688 c 0
 554.650390625 -215.700195312 556.25 -216.950195312 559.700195312 -220.450195312 c 0
 562.400390625 -223.200195312 564.5 -225.599609375 564.299804688 -225.900390625 c 0
 564 -226.450195312 572.799804688 -233.650390625 580 -238.75 c 0
 589.25 -245.25 600.5 -251.5 609.700195312 -255.200195312 c 0
 621.150390625 -259.849609375 637.650390625 -264 645.25 -264.200195312 c 0
 651.599609375 -264.400390625 663.700195312 -265.650390625 664.049804688 -266.150390625 c 0
 664.549804688 -266.849609375 693.349609375 -266.200195312 702 -265.299804688 c 0
 706 -264.849609375 712.5 -264.049804688 716.5 -263.549804688 c 0
 732.5 -261.349609375 734.150390625 -261.25 751.75 -261.25 c 0
 767.700195312 -261.25 769.950195312 -261.349609375 777 -262.450195312 c 0
 781.25 -263.099609375 785.400390625 -263.650390625 786.25 -263.599609375 c 0
 788.099609375 -263.5 799.049804688 -266.299804688 801.75 -267.5 c 0
 802.849609375 -268.049804688 806.25 -269.349609375 809.25 -270.400390625 c 0
 829.450195312 -277.650390625 848.25 -289.700195312 864 -305.5 c 0
 875.400390625 -316.900390625 886.099609375 -329.099609375 885.349609375 -329.799804688 c 0
 885.200195312 -329.950195312 886.950195312 -332.950195312 889.25 -336.450195312 c 0
 891.549804688 -339.950195312 895 -345.5 896.950195312 -348.75 c 0
 898.849609375 -352.049804688 900.549804688 -354.75 900.75 -354.75 c 0
 901.25 -354.75 924.450195312 -313.400390625 924.5 -312.5 c 0
 924.5 -311.25 917 -299.049804688 916.349609375 -299.25 c 0
 915.599609375 -299.5 908.799804688 -289.150390625 908.75 -287.700195312 c 0
 908.700195312 -286.599609375 903.25 -279.150390625 897.049804688 -271.75 c 0
 891.400390625 -264.950195312 879 -252.5 872.5 -247.049804688 c 0
 860.599609375 -237.049804688 845.049804688 -226.599609375 842.849609375 -227.200195312 c 0
 842.200195312 -227.349609375 839.75 -226.450195312 836.299804688 -224.799804688 c 0
 833.25 -223.349609375 830.25 -222 829.650390625 -221.799804688 c 0
 829 -221.599609375 828.650390625 -221.150390625 828.799804688 -220.799804688 c 0
 829 -220.299804688 827.349609375 -219.549804688 822.900390625 -218.049804688 c 0
 811.549804688 -214.349609375 799.549804688 -211.849609375 786 -210.400390625 c 0
 777.799804688 -209.549804688 751.400390625 -209.549804688 742.25 -210.400390625 c 0
 734.5 -211.150390625 717.049804688 -213.400390625 716.5 -213.75 c 0
 715.599609375 -214.299804688 700.099609375 -215.450195312 693.5 -215.450195312 c 0
 658.200195312 -215.5 629.75 -208.450195312 604.900390625 -193.450195312 c 0
 602.200195312 -191.799804688 599.799804688 -190.5 599.5 -190.5 c 0
 598.5 -190.5 590.650390625 -184.75 588 -182.049804688 c 0
 587 -181.049804688 583.650390625 -178 580.549804688 -175.25 c 0
 575.25 -170.549804688 570.299804688 -165.450195312 563.950195312 -158 c 0
 559.900390625 -153.25 554.849609375 -146.5 555.150390625 -146.200195312 c 0
 555.299804688 -146.049804688 559.200195312 -144.950195312 563.799804688 -143.75 c 0
 583.349609375 -138.75 600.549804688 -132 615.25 -123.5 c 0
 622.849609375 -119.150390625 629.599609375 -114.549804688 629.25 -114 c 0
 628.700195312 -113.099609375 617.799804688 -106.099609375 612.25 -103.099609375 c 0
 604.400390625 -98.7998046875 594.599609375 -94.5498046875 584.349609375 -91.0498046875 c 0
 573.650390625 -87.400390625 566.799804688 -85.5 564.75 -85.599609375 c 0
 563 -85.7001953125 548.400390625 -82.4501953125 547.950195312 -81.900390625 c 0
 547.25 -80.900390625 529.950195312 -78.7001953125 517.25 -78 c 0
384.349609375 -134.950195312 m 0
 382.150390625 -133.549804688 379.950195312 -132.25 379.5 -132 c 0
 378.849609375 -131.650390625 371.450195312 -138.799804688 341.5 -168.75 c 2
 304.349609375 -205.900390625 l 1
 310.799804688 -206.25 l 2
 319.150390625 -206.75 334.599609375 -206.25 342.5 -205.25 c 0
 377.25 -200.849609375 406.299804688 -185.950195312 429.700195312 -160.549804688 c 2
 434 -155.849609375 l 1
 424.650390625 -152.75 l 2
 408.75 -147.5 394.200195312 -141.049804688 384.349609375 -134.950195312 c 0
215.5 -274.650390625 m 0
 215.5 -274.400390625 214.799804688 -274.549804688 211.25 -275.549804688 c 0
 191.650390625 -281.049804688 174.950195312 -289.5 159.5 -301.799804688 c 0
 153.599609375 -306.5 141.099609375 -319.150390625 135.799804688 -325.75 c 0
 123.450195312 -341.150390625 111.5 -362.099609375 102.5 -384.099609375 c 2
 99.9501953125 -390.25 l 1
 157.75 -332.5 l 2
 189.5 -300.75 215.5 -274.700195312 215.5 -274.650390625 c 0
477.400390625 184.400390625 m 1
 477.5 227.5 l 1
 504 227.5 l 1
 530.5 227.5 l 1
 530.650390625 203.900390625 l 2
 530.700195312 190.900390625 530.650390625 171.400390625 530.549804688 160.650390625 c 2
 530.400390625 141 l 1
 593.200195312 141 l 1
 656 141 l 1
 656 127.75 l 1
 656 114.549804688 l 1
 640.150390625 114.25 l 2
 631.400390625 114.150390625 619.700195312 113.900390625 614.150390625 113.75 c 0
 607.25 113.549804688 604 113.650390625 604 114 c 0
 604 114.349609375 592.349609375 114.5 567.200195312 114.5 c 2
 530.400390625 114.5 l 1
 530.549804688 70.400390625 l 1
 530.75 26.25 l 1
 523.549804688 26.099609375 l 2
 517.299804688 26 516.400390625 26.0498046875 516.700195312 26.75 c 0
 516.950195312 27.400390625 514.75 27.5 497.25 27.5 c 2
 477.5 27.5 l 1
 477.5 67.25 l 2
 477.5 93.400390625 477.349609375 107 477 107 c 0
 476.700195312 107 476.5 108.400390625 476.5 110.25 c 2
 476.5 113.5 l 1
 470.25 113.5 l 2
 466.400390625 113.5 464 113.700195312 464 114 c 0
 464 114.349609375 444.849609375 114.5 407.5 114.5 c 2
 351 114.5 l 1
 351 117.549804688 l 2
 351 120.25 350.900390625 120.549804688 350.25 120 c 0
 349.599609375 119.450195312 349.5 120.549804688 349.5 129.650390625 c 0
 349.5 137.599609375 349.650390625 140 350.150390625 140.450195312 c 0
 350.650390625 140.849609375 368.349609375 141.049804688 414.049804688 141.099609375 c 2
 477.25 141.25 l 1
 477.400390625 184.400390625 l 1
918.700195312 -411.099609375 m 2
 988.099609375 -340 l 1
 994.049804688 -340 l 1
 1000 -340 l 1
 1000 -344.150390625 l 1
 1000 -348.299804688 l 1
 925.950195312 -424.150390625 l 1
 851.900390625 -500 l 1
 841.849609375 -500 l 1
 831.849609375 -500 l 1
 840.549804688 -491.099609375 l 2
 845.349609375 -486.25 880.5 -450.25 918.700195312 -411.099609375 c 2
EndSplineSet
EndChar

StartChar: b
Encoding: 98 98 9
Width: 1000
Flags: H
LayerCount: 2
Fore
SplineSet
487.900390625 387.75 m 0
 495.400390625 388.650390625 510.900390625 388.650390625 518.700195312 387.75 c 0
 532.799804688 386.099609375 545.450195312 382.599609375 556.849609375 377.200195312 c 0
 575.150390625 368.5 588.599609375 352.25 591.549804688 335.099609375 c 0
 592.400390625 330.349609375 591.849609375 320.099609375 590.5 315.549804688 c 0
 585.75 299 572.400390625 284.700195312 554.650390625 277 c 0
 552.400390625 276.049804688 550.599609375 275.049804688 550.650390625 274.75 c 0
 550.700195312 274.5 556.25 270.700195312 563 266.349609375 c 0
 606 238.5 642.650390625 211.25 671.75 185.549804688 c 0
 680.450195312 177.900390625 704.099609375 154.200195312 710.200195312 147 c 0
 738.099609375 114.349609375 751.450195312 86.099609375 751.599609375 59.75 c 0
 751.650390625 42.4501953125 746.950195312 28.400390625 736 12.900390625 c 0
 732.299804688 7.650390625 722.75 -2.4501953125 716.5 -7.75 c 0
 699.950195312 -21.75 676.75 -35.099609375 649.25 -46.5 c 0
 645.150390625 -48.2001953125 641.650390625 -49.7001953125 641.549804688 -49.7998046875 c 0
 641.450195312 -49.849609375 642.75 -51.2001953125 644.450195312 -52.7998046875 c 2
 647.5 -55.599609375 l 1
 647.5 -86.25 l 1
 647.5 -116.900390625 l 1
 642.900390625 -120.900390625 l 2
 631.599609375 -130.549804688 619.75 -137.950195312 605.150390625 -144.450195312 c 0
 598.900390625 -147.25 582.75 -153.299804688 577.150390625 -155 c 0
 575.150390625 -155.599609375 573.5 -156.299804688 573.5 -156.599609375 c 0
 573.5 -157.450195312 588.5 -172.099609375 593 -175.700195312 c 0
 620.450195312 -197.400390625 651.950195312 -207.349609375 690 -206.349609375 c 0
 701.5 -206.049804688 710.049804688 -205.150390625 721.25 -203.200195312 c 0
 731.299804688 -201.450195312 734.849609375 -201.099609375 747.849609375 -200.5 c 0
 796.200195312 -198.400390625 839.799804688 -208.450195312 870.150390625 -228.700195312 c 0
 894.900390625 -245.200195312 915.950195312 -270.299804688 931.650390625 -302.150390625 c 0
 935.650390625 -310.200195312 942.150390625 -325.099609375 942.799804688 -327.75 c 0
 943 -328.650390625 939.150390625 -336 925.450195312 -360.450195312 c 2
 907.849609375 -392 l 1
 905 -385.049804688 l 2
 892.349609375 -354.25 878.049804688 -331.549804688 859.5 -313 c 0
 842.799804688 -296.200195312 825.5 -285.349609375 804.049804688 -278.200195312 c 0
 779.099609375 -269.849609375 747.150390625 -268.299804688 715.25 -273.950195312 c 0
 712.25 -274.5 706.400390625 -275.200195312 702.25 -275.549804688 c 0
 692.450195312 -276.349609375 667.75 -276.349609375 658.25 -275.549804688 c 0
 617.650390625 -272.150390625 585.650390625 -260.900390625 560.25 -241.150390625 c 0
 539.549804688 -225.049804688 521.25 -201.650390625 507.450195312 -173.549804688 c 0
 505.400390625 -169.400390625 503.650390625 -166 503.5 -166.049804688 c 0
 503.349609375 -166.049804688 501.400390625 -169.799804688 499.150390625 -174.400390625 c 0
 488.599609375 -195.900390625 476.75 -212.849609375 461.5 -228 c 0
 453.700195312 -235.75 447.599609375 -240.700195312 437.799804688 -247.25 c 0
 425.700195312 -255.25 411.400390625 -262.150390625 397.75 -266.5 c 0
 374 -274.049804688 344.950195312 -277.400390625 315.299804688 -276.049804688 c 0
 300.849609375 -275.349609375 298.450195312 -275.150390625 286.5 -273.299804688 c 0
 272.400390625 -271.200195312 267.299804688 -270.799804688 253 -270.799804688 c 0
 239.549804688 -270.799804688 234.5 -271.150390625 224.5 -272.799804688 c 0
 200.650390625 -276.75 178.700195312 -286.549804688 159.5 -301.799804688 c 0
 153.599609375 -306.5 141.099609375 -319.150390625 135.799804688 -325.75 c 0
 123.200195312 -341.5 110.950195312 -363.049804688 101.950195312 -385.349609375 c 0
 100.5 -389 99.25 -391.900390625 99.2001953125 -391.849609375 c 0
 98.7998046875 -391.400390625 64 -328.849609375 64 -328.549804688 c 0
 64 -327.450195312 70.5498046875 -312.200195312 74.4501953125 -304.25 c 0
 79.75 -293.349609375 83.650390625 -286.5 89.7998046875 -277.25 c 0
 118.400390625 -234.099609375 157.099609375 -210.25 210.25 -203.049804688 c 0
 222.700195312 -201.349609375 231.049804688 -200.849609375 246.5 -200.849609375 c 0
 263.349609375 -200.900390625 273.049804688 -201.5 283.75 -203.25 c 0
 298.849609375 -205.700195312 305.349609375 -206.200195312 321 -206.200195312 c 0
 336.900390625 -206.200195312 342.900390625 -205.650390625 355 -203.200195312 c 0
 383.900390625 -197.25 409.200195312 -182.799804688 429.700195312 -160.549804688 c 2
 434 -155.849609375 l 1
 424.650390625 -152.75 l 2
 398.599609375 -144.099609375 378.349609375 -133.150390625 363.650390625 -119.75 c 2
 360.5 -116.900390625 l 1
 360.5 -86.150390625 l 1
 360.5 -55.349609375 l 1
 363.599609375 -52.5498046875 l 1
 366.650390625 -49.7001953125 l 1
 364.200195312 -48.7998046875 l 2
 357.75 -46.349609375 343.549804688 -40.0498046875 335.349609375 -35.9501953125 c 0
 323.200195312 -29.849609375 316.25 -25.900390625 307 -19.75 c 0
 278.150390625 -0.5498046875 261.900390625 20.349609375 256.650390625 45 c 0
 255.25 51.7001953125 255.349609375 67.349609375 256.900390625 75 c 0
 260.900390625 94.7998046875 272.150390625 116.400390625 290.299804688 139 c 0
 315.650390625 170.700195312 357.349609375 207 411.25 244.349609375 c 0
 420.25 250.599609375 441.849609375 264.950195312 450.150390625 270.25 c 0
 453.950195312 272.650390625 456.900390625 274.799804688 456.650390625 275 c 0
 456.450195312 275.25 454.549804688 276.099609375 452.5 276.950195312 c 0
 447.150390625 279.25 439.349609375 284.049804688 434.799804688 287.900390625 c 0
 424.950195312 296.25 417.349609375 309.099609375 415.5 320.650390625 c 0
 414.650390625 325.849609375 415.099609375 334.650390625 416.5 339.5 c 0
 420 351.75 429.299804688 364.150390625 440.650390625 371.700195312 c 0
 452.400390625 379.5 470.400390625 385.650390625 487.900390625 387.75 c 0
512.099609375 351.25 m 0
 510 351.650390625 506 351.950195312 503.25 351.950195312 c 0
 487.650390625 351.849609375 474.700195312 345.349609375 469.950195312 335.25 c 0
 465.5 325.799804688 469.650390625 315.349609375 480.400390625 309.049804688 c 0
 491.849609375 302.299804688 509.349609375 301.450195312 522.75 307 c 0
 534.599609375 311.950195312 541.099609375 322.5 538.25 332.25 c 0
 535.450195312 341.900390625 526 348.799804688 512.099609375 351.25 c 0
514.450195312 272.200195312 m 0
 508.799804688 275.650390625 503.849609375 278.5 503.450195312 278.450195312 c 0
 502.099609375 278.400390625 468.950195312 257.599609375 448.299804688 243.849609375 c 0
 366.349609375 189.299804688 315.650390625 140.200195312 298.25 98.75 c 0
 293.150390625 86.650390625 291 76.7001953125 291 65.400390625 c 0
 291 57.349609375 291.900390625 51.7001953125 294.299804688 44.5 c 0
 297.950195312 33.5498046875 304.200195312 23.900390625 314 13.9501953125 c 0
 328.099609375 -0.349609375 346.450195312 -12.25 372.200195312 -23.7998046875 c 0
 379.299804688 -27 382.400390625 -27.650390625 390 -27.650390625 c 0
 398.049804688 -27.650390625 402.5 -26.650390625 418.700195312 -21.25 c 0
 451.150390625 -10.400390625 476 -6.5498046875 509.5 -7.150390625 c 0
 538.75 -7.650390625 559.849609375 -11.400390625 589.25 -21.25 c 0
 602.900390625 -25.7998046875 608.099609375 -27.099609375 615.25 -27.75 c 0
 619.200195312 -28.099609375 626.450195312 -27.349609375 629.900390625 -26.2001953125 c 0
 633.650390625 -24.9501953125 654.049804688 -14.849609375 660.650390625 -10.9501953125 c 0
 698 11.099609375 716.049804688 35.900390625 716.150390625 65.25 c 0
 716.200195312 75.400390625 714.150390625 85.599609375 709.950195312 96.150390625 c 0
 690.150390625 145.900390625 625.849609375 203.75 514.450195312 272.200195312 c 0
548.150390625 -29.099609375 m 0
 543.25 -27.400390625 531.400390625 -23.349609375 521.75 -20.099609375 c 2
 504.25 -14.150390625 l 1
 490.5 -18.7998046875 l 2
 456.799804688 -30.2998046875 451.450195312 -32.150390625 451.650390625 -32.2998046875 c 0
 452 -32.650390625 503.650390625 -50.5 504.349609375 -50.5 c 0
 505.049804688 -50.5 556.5 -32.7001953125 556.849609375 -32.2998046875 c 0
 556.950195312 -32.2001953125 553 -30.75 548.150390625 -29.099609375 c 0
392.5 -56.7998046875 m 0
 386.049804688 -56.099609375 380.150390625 -55.4501953125 379.400390625 -55.349609375 c 2
 378 -55.150390625 l 1
 378 -64.400390625 l 2
 378 -69.4501953125 378.200195312 -73.5 378.400390625 -73.400390625 c 0
 379.549804688 -73 404.5 -58.349609375 404.400390625 -58.2001953125 c 0
 404.299804688 -58.150390625 398.950195312 -57.5 392.5 -56.7998046875 c 0
630 -64.5498046875 m 0
 630 -59.599609375 629.849609375 -55.4501953125 629.650390625 -55.349609375 c 0
 629.25 -55.150390625 605.450195312 -57.75 604.450195312 -58.099609375 c 0
 603.950195312 -58.25 629 -73.5 629.700195312 -73.5 c 0
 629.900390625 -73.5 630 -69.4501953125 630 -64.5498046875 c 0
528.200195312 -56.7998046875 m 0
 520.099609375 -56.0498046875 500.599609375 -55.5 494.25 -55.7998046875 c 0
 452.150390625 -57.900390625 413.900390625 -68.349609375 384.900390625 -85.650390625 c 2
 378 -89.75 l 1
 378 -95.9501953125 l 1
 378 -102.099609375 l 1
 379.400390625 -101.200195312 l 1
 406.5 -83.349609375 445.650390625 -71.400390625 486.75 -68.4501953125 c 0
 496.75 -67.75 521.700195312 -68.150390625 531 -69.2001953125 c 0
 567.099609375 -73.25 598.549804688 -83.150390625 624 -98.4501953125 c 2
 629.75 -101.900390625 l 1
 629.900390625 -96.349609375 l 2
 629.950195312 -93.2998046875 629.950195312 -90.5498046875 629.799804688 -90.2001953125 c 0
 629.450195312 -89.2998046875 619.700195312 -83.599609375 611.450195312 -79.5 c 0
 587.700195312 -67.5498046875 558.200195312 -59.5498046875 528.200195312 -56.7998046875 c 0
517.25 -78 m 0
 481.150390625 -76.0498046875 444.150390625 -82.2001953125 410.900390625 -95.75 c 0
 401.25 -99.7001953125 387.450195312 -107.299804688 380.650390625 -112.400390625 c 2
 378.049804688 -114.349609375 l 1
 383.5 -117.900390625 l 2
 400.5 -129.099609375 421.25 -137.849609375 443.5 -143.299804688 c 0
 447.75 -144.299804688 451.450195312 -145.349609375 451.700195312 -145.549804688 c 0
 452.799804688 -146.5 439.450195312 -162.549804688 429.650390625 -172 c 0
 403.900390625 -196.849609375 373.549804688 -210.700195312 336.25 -214.549804688 c 0
 329.099609375 -215.25 308 -215.25 300 -214.5 c 0
 296.549804688 -214.200195312 289.700195312 -213.400390625 284.75 -212.75 c 0
 266.599609375 -210.299804688 260 -209.799804688 243.25 -209.799804688 c 0
 226.25 -209.75 220 -210.200195312 207.5 -212.299804688 c 0
 189.349609375 -215.349609375 172.849609375 -221.200195312 158.799804688 -229.599609375 c 0
 138.650390625 -241.650390625 119.5 -259.099609375 103.200195312 -280.25 c 0
 96.75 -288.650390625 82.5 -310.799804688 82.5 -312.5 c 0
 82.5 -313.150390625 106.049804688 -355 106.450195312 -355 c 0
 106.599609375 -354.950195312 108.200195312 -352.349609375 110 -349.150390625 c 0
 111.799804688 -345.900390625 115.450195312 -340 118.099609375 -336 c 0
 135.75 -309.549804688 156.5 -290.299804688 180.75 -277.900390625 c 0
 203.849609375 -266.150390625 226.5 -260.950195312 255.25 -260.950195312 c 0
 268.349609375 -260.950195312 274.650390625 -261.450195312 290.25 -263.5 c 0
 308.200195312 -265.849609375 314.150390625 -266.25 331.5 -266.25 c 0
 356.75 -266.25 372.549804688 -263.950195312 391.150390625 -257.5 c 0
 412.299804688 -250.200195312 433.049804688 -236.549804688 452.25 -217.25 c 0
 467.75 -201.700195312 476 -190.400390625 492.049804688 -162.799804688 c 0
 493.849609375 -159.75 496.5 -156.049804688 498.049804688 -154.450195312 c 0
 504 -148.299804688 508.099609375 -150.099609375 514.549804688 -161.799804688 c 0
 528.450195312 -186.799804688 539.799804688 -202.450195312 555.450195312 -218 c 0
 575.849609375 -238.299804688 598.049804688 -252.200195312 621.099609375 -259.200195312 c 0
 639.450195312 -264.75 657.400390625 -266.900390625 681.25 -266.349609375 c 0
 694.700195312 -266.049804688 702.799804688 -265.400390625 716.5 -263.549804688 c 0
 732.549804688 -261.349609375 734.099609375 -261.25 752 -261.25 c 0
 771.299804688 -261.299804688 776.5 -261.799804688 789.849609375 -264.799804688 c 0
 835.799804688 -275.099609375 870.650390625 -302.900390625 898.5 -351.400390625 c 0
 899.650390625 -353.450195312 900.799804688 -354.900390625 901 -354.650390625 c 0
 901.849609375 -353.75 924.5 -313.049804688 924.5 -312.400390625 c 0
 924.5 -311.5 918.549804688 -301.549804688 913.25 -293.5 c 0
 889.5 -257.549804688 856.299804688 -229.400390625 825 -218.75 c 0
 805.75 -212.200195312 789.400390625 -209.75 764.5 -209.75 c 0
 748.200195312 -209.75 741.950195312 -210.200195312 724.25 -212.5 c 0
 693.5 -216.549804688 671.849609375 -216.200195312 649.75 -211.200195312 c 0
 621.200195312 -204.799804688 596.650390625 -191.349609375 575.650390625 -170.650390625 c 0
 567.400390625 -162.5 554.349609375 -146.950195312 555.150390625 -146.200195312 c 0
 555.299804688 -146.049804688 559.200195312 -144.950195312 563.799804688 -143.75 c 0
 583.349609375 -138.75 600.549804688 -132 615.25 -123.5 c 0
 622.849609375 -119.150390625 629.599609375 -114.549804688 629.25 -114 c 0
 628.700195312 -113.099609375 617.799804688 -106.099609375 612.25 -103.099609375 c 0
 604.25 -98.7001953125 594.5 -94.5498046875 583.75 -90.849609375 c 0
 562.049804688 -83.4501953125 540.400390625 -79.2998046875 517.25 -78 c 0
477.400390625 184.400390625 m 1
 477.5 227.5 l 1
 504 227.5 l 1
 530.5 227.5 l 1
 530.5 184.25 l 1
 530.5 141 l 1
 593.25 141 l 1
 656 141 l 1
 656 127.75 l 1
 656 114.5 l 1
 593.25 114.5 l 1
 530.5 114.5 l 1
 530.5 71 l 1
 530.5 27.5 l 1
 504 27.5 l 1
 477.5 27.5 l 1
 477.400390625 70.900390625 l 1
 477.25 114.25 l 1
 414.150390625 114.400390625 l 1
 351 114.5 l 1
 351 127.75 l 1
 351 141 l 1
 414.150390625 141.099609375 l 1
 477.25 141.25 l 1
 477.400390625 184.400390625 l 1
EndSplineSet
EndChar

StartChar: f
Encoding: 102 102 10
Width: 1000
Flags: H
LayerCount: 2
Fore
SplineSet
432.849609375 383.650390625 m 0
 433 383.849609375 464.950195312 384 503.849609375 384 c 2
 574.5 384 l 1
 574.5 347.25 l 1
 574.5 310.5 l 1
 627.75 310.5 l 1
 681 310.5 l 1
 681 347 l 2
 681 375.400390625 681.150390625 383.5 681.599609375 383.5 c 0
 682.150390625 383.5 779 361.349609375 784.900390625 359.900390625 c 2
 787 359.400390625 l 1
 787 298.25 l 1
 787 237.150390625 l 1
 762.150390625 225.75 l 2
 748.450195312 219.5 731.75 211.799804688 725 208.700195312 c 0
 718.25 205.599609375 705.650390625 199.849609375 697 195.849609375 c 2
 681.25 188.650390625 l 1
 681.099609375 104.049804688 l 2
 681.049804688 57.5498046875 680.849609375 19.5 680.599609375 19.5498046875 c 0
 680.400390625 19.5498046875 678.549804688 21.4501953125 676.5 23.75 c 0
 669.900390625 31.150390625 659.200195312 40.5498046875 649.900390625 47.150390625 c 2
 645.5 50.25 l 1
 645.5 119.349609375 l 1
 645.5 188.5 l 1
 627.75 188.5 l 1
 610 188.5 l 1
 609.900390625 129.299804688 l 1
 609.75 70.099609375 l 1
 607 73.2998046875 l 2
 605.5 75.099609375 603.049804688 78.0498046875 601.549804688 79.900390625 c 0
 589.700195312 94.75 576.700195312 107.5 555.349609375 125.25 c 0
 550.700195312 129.099609375 546.650390625 132.299804688 546.299804688 132.400390625 c 0
 545.099609375 132.700195312 516.599609375 108.599609375 507.299804688 99.400390625 c 2
 501.299804688 93.5 l 1
 493.200195312 93.5 l 1
 485.150390625 93.5 l 1
 480.099609375 98.4501953125 l 2
 472.349609375 106.049804688 441.049804688 132.5 439.75 132.5 c 0
 439.299804688 132.5 433.299804688 127.549804688 423.5 119.049804688 c 0
 413.299804688 110.200195312 394.349609375 91.150390625 388.849609375 84.25 c 2
 384.5 78.7998046875 l 1
 374.799804688 75.5 l 2
 363.599609375 71.650390625 362.450195312 71.099609375 355.75 66.349609375 c 0
 342.599609375 57.0498046875 332.700195312 47.400390625 327.450195312 38.75 c 2
 326.25 36.75 l 1
 326 112.75 l 1
 325.75 188.700195312 l 1
 272.900390625 212.950195312 l 1
 220 237.25 l 1
 220 298.349609375 l 2
 220 332 220.099609375 359.5 220.200195312 359.5 c 0
 220.349609375 359.5 243.950195312 364.900390625 272.700195312 371.5 c 0
 301.450195312 378.099609375 325.200195312 383.5 325.5 383.5 c 0
 325.799804688 383.5 326.049804688 371.099609375 326.099609375 347.150390625 c 2
 326.25 310.75 l 1
 379.400390625 310.599609375 l 1
 432.5 310.5 l 1
 432.5 346.900390625 l 2
 432.5 366.950195312 432.650390625 383.5 432.849609375 383.650390625 c 0
715.200195312 237.049804688 m 0
 715.5 237.299804688 633.049804688 237.5 503.5 237.5 c 0
 380.599609375 237.5 291.5 237.299804688 291.799804688 237.049804688 c 0
 292.049804688 236.799804688 303.849609375 231.299804688 318.049804688 224.799804688 c 2
 343.799804688 213 l 1
 503.599609375 213 l 1
 663.349609375 213 l 1
 689.049804688 224.799804688 l 2
 703.200195312 231.25 714.950195312 236.799804688 715.200195312 237.049804688 c 0
432.700195312 104.299804688 m 0
 436.299804688 107.450195312 439.450195312 110 439.700195312 110 c 0
 441.349609375 110 459.799804688 93.2001953125 467.5 84.75 c 2
 473.200195312 78.5 l 1
 483.650390625 78.5 l 2
 492.349609375 78.5 498.25 78.25 511.75 77.2998046875 c 0
 512.5 77.25 514.150390625 78.7998046875 517.299804688 82.5 c 0
 525.950195312 92.5498046875 544.700195312 110.25 546.299804688 109.900390625 c 0
 547.450195312 109.650390625 558.549804688 99.900390625 564.75 93.75 c 0
 575.049804688 83.5 585.75 70.4501953125 590.549804688 62.400390625 c 2
 593.099609375 58.0498046875 l 1
 597.950195312 56.0498046875 l 2
 638.200195312 39.349609375 666.400390625 14.7001953125 682.900390625 -18.2998046875 c 0
 688.150390625 -28.7998046875 691.599609375 -39.099609375 693.549804688 -50.2998046875 c 0
 695.200195312 -59.650390625 695.200195312 -75.849609375 693.549804688 -85.2001953125 c 0
 691.650390625 -96 688.900390625 -104.5 684 -114.849609375 c 0
 678.900390625 -125.599609375 676.200195312 -129.75 662.5 -148 c 0
 653.099609375 -160.549804688 644.650390625 -172.849609375 639.400390625 -181.75 c 0
 635.549804688 -188.150390625 631.200195312 -196.849609375 631.549804688 -197.25 c 0
 631.799804688 -197.450195312 649.700195312 -203.650390625 668.25 -209.950195312 c 2
 673.75 -211.849609375 l 1
 673.900390625 -219.299804688 l 1
 674.049804688 -226.75 l 1
 705.75 -241.25 l 1
 737.5 -255.75 l 1
 737.5 -277.849609375 l 1
 737.5 -300 l 1
 524.75 -300 l 1
 312 -300 l 1
 312.099609375 -277.900390625 l 1
 312.25 -255.75 l 1
 344 -241.200195312 l 1
 375.75 -226.650390625 l 1
 376 -219.200195312 l 1
 376.25 -211.799804688 l 1
 389 -207.400390625 l 2
 396 -205 405.400390625 -201.75 409.900390625 -200.200195312 c 2
 418.049804688 -197.400390625 l 1
 415.049804688 -194.549804688 l 2
 413.450195312 -193 411.650390625 -190.799804688 411.049804688 -189.650390625 c 0
 408.799804688 -185.099609375 408.75 -176.700195312 411 -172.75 c 0
 411.650390625 -171.650390625 413.650390625 -168.75 415.450195312 -166.349609375 c 0
 418.099609375 -162.75 419.75 -161.150390625 424 -158.099609375 c 0
 434.799804688 -150.200195312 466.650390625 -124.150390625 478.200195312 -113.75 c 0
 484 -108.5 485 -106.799804688 485 -102.099609375 c 0
 485 -98.7001953125 484.049804688 -96.9501953125 480.950195312 -94.400390625 c 0
 475.650390625 -90.099609375 469 -88.0498046875 459.25 -87.650390625 c 0
 453.450195312 -87.4501953125 452.25 -87.5498046875 447.900390625 -88.650390625 c 0
 434 -92.25 413.25 -103.049804688 384.5 -121.650390625 c 0
 364.150390625 -134.799804688 353.450195312 -140.049804688 340.099609375 -143.349609375 c 0
 335.599609375 -144.5 333.599609375 -144.700195312 327.5 -144.700195312 c 0
 319.099609375 -144.75 316 -144.099609375 309.75 -141 c 0
 302.900390625 -137.650390625 299.150390625 -133.900390625 288.950195312 -120.25 c 0
 274.400390625 -100.700195312 267.75 -84.5 269.950195312 -74 c 0
 272.599609375 -61.349609375 282.549804688 -49.25 306.5 -29.7001953125 c 0
 324.150390625 -15.2998046875 336.150390625 -1.25 340.450195312 9.900390625 c 0
 341.25 12.0498046875 342.400390625 16.099609375 343 19 c 0
 344.400390625 25.7001953125 346.400390625 30.5498046875 350.099609375 36.099609375 c 0
 355.049804688 43.4501953125 365.799804688 53.400390625 374.5 58.599609375 c 0
 377 60.099609375 388.5 64.150390625 396.099609375 66.25 c 0
 398.900390625 67 399.049804688 67.150390625 402.799804688 72.150390625 c 0
 411.150390625 83.25 421.950195312 94.849609375 432.700195312 104.299804688 c 0
486 71.7998046875 m 0
 480.200195312 72.349609375 461.75 72.7998046875 456.75 72.5 c 2
 452.25 72.25 l 1
 459 71.849609375 l 2
 472.349609375 71.099609375 488.049804688 69.150390625 500.700195312 66.7001953125 c 0
 504.200195312 66 507.150390625 65.5 507.200195312 65.599609375 c 0
 508.549804688 67.75 509 68.5 509 68.650390625 c 0
 509 69.0498046875 495 70.9501953125 486 71.7998046875 c 0
606.75 34.849609375 m 0
 604.549804688 36.2001953125 602.5 37.5 602.150390625 37.7001953125 c 0
 601.349609375 38.150390625 601.599609375 37.599609375 607.900390625 24 c 2
 612.849609375 13.25 l 1
 617.650390625 8.400390625 l 2
 622.75 3.2001953125 629.150390625 -5.0498046875 633.75 -12.25 c 0
 640.299804688 -22.650390625 646.650390625 -37.349609375 649.450195312 -48.75 c 0
 652.5 -61.099609375 653.150390625 -78.5498046875 651.049804688 -90.650390625 c 0
 649 -102.549804688 645.450195312 -113.099609375 640 -123.700195312 c 0
 635.75 -132 632.049804688 -137.700195312 624 -148.5 c 0
 606.700195312 -171.549804688 598.5 -184.099609375 591.700195312 -197.849609375 c 2
 588.450195312 -204.5 l 1
 514.099609375 -204.549804688 l 1
 439.75 -204.549804688 l 1
 418.5 -211.900390625 l 1
 397.25 -219.25 l 1
 397.099609375 -222.849609375 l 1
 396.950195312 -226.5 l 1
 524.75 -226.5 l 1
 652.5 -226.5 l 1
 652.5 -222.849609375 l 1
 652.5 -219.25 l 1
 631.650390625 -212.049804688 l 2
 620.150390625 -208.099609375 610.599609375 -204.75 610.349609375 -204.549804688 c 0
 609.849609375 -204.049804688 616 -191.599609375 620.049804688 -184.900390625 c 0
 625.400390625 -176 632.75 -165.299804688 642.950195312 -151.549804688 c 0
 654.049804688 -136.599609375 657.75 -130.950195312 662 -122.25 c 0
 667.5 -111.099609375 671.099609375 -99.5 672.75 -87.9501953125 c 0
 673.650390625 -81.4501953125 673.799804688 -67.349609375 673 -61.25 c 0
 669.650390625 -34.75 656.400390625 -8.900390625 635.5 12 c 0
 627 20.5498046875 616.900390625 28.5498046875 606.75 34.849609375 c 0
436.599609375 27.150390625 m 0
 424.25 31.0498046875 411.299804688 27.25 406.700195312 18.400390625 c 0
 403.900390625 13.0498046875 407.5 5.25 414.200195312 2.2001953125 c 0
 417.349609375 0.7998046875 423.549804688 -0.5 427.25 -0.5 c 0
 430.75 -0.5 437 0.75 440.099609375 2.099609375 c 0
 447.150390625 5.099609375 450.099609375 14 446.200195312 20.2998046875 c 0
 444.200195312 23.599609375 441.200195312 25.75 436.599609375 27.150390625 c 0
310.75 -62.5 m 0
 309.549804688 -61.5 301.950195312 -61.349609375 298.150390625 -62.2001953125 c 0
 290.299804688 -64 285.900390625 -67.5498046875 284.200195312 -73.349609375 c 0
 283.5 -75.75 283.5 -76.25 284.200195312 -78.650390625 c 0
 285.549804688 -83.2001953125 289.849609375 -87.25 295.5 -89.25 c 0
 301.299804688 -91.2998046875 309.849609375 -91.150390625 311 -89 c 0
 311.700195312 -87.7001953125 310.650390625 -85.2001953125 308.349609375 -82.7001953125 c 0
 304.599609375 -78.5 304.099609375 -75.599609375 306.5 -71.849609375 c 0
 307.299804688 -70.5498046875 308.200195312 -69.5 308.450195312 -69.5 c 0
 309.099609375 -69.5 310.799804688 -66.4501953125 311.200195312 -64.650390625 c 0
 311.450195312 -63.599609375 311.299804688 -62.9501953125 310.75 -62.5 c 0
676.950195312 -247.549804688 m 2
 662.650390625 -241 l 1
 524.700195312 -241.049804688 l 1
 386.75 -241.049804688 l 1
 372.75 -247.5 l 2
 365.049804688 -251.049804688 357.849609375 -254.400390625 356.75 -254.950195312 c 0
 354.75 -255.950195312 355.349609375 -255.950195312 524.75 -255.950195312 c 0
 690.5 -255.950195312 694.700195312 -255.950195312 693 -255.049804688 c 0
 692.049804688 -254.5 684.799804688 -251.150390625 676.950195312 -247.549804688 c 2
EndSplineSet
EndChar

StartChar: d
Encoding: 100 100 11
Width: 1000
Flags: H
LayerCount: 2
Fore
SplineSet
432.849609375 383.650390625 m 0
 433 383.849609375 464.950195312 384 503.849609375 384 c 2
 574.5 384 l 1
 574.5 347.25 l 1
 574.5 310.5 l 1
 627.75 310.5 l 1
 681 310.5 l 1
 681 347 l 2
 681 375.400390625 681.150390625 383.5 681.599609375 383.5 c 0
 682.150390625 383.5 779 361.349609375 784.900390625 359.900390625 c 2
 787 359.400390625 l 1
 787 298.25 l 1
 787 237.150390625 l 1
 762.150390625 225.75 l 2
 748.450195312 219.5 731.75 211.799804688 725 208.700195312 c 0
 718.25 205.599609375 705.650390625 199.849609375 697 195.849609375 c 2
 681.25 188.650390625 l 1
 681.099609375 104.049804688 l 2
 681.049804688 57.5498046875 680.849609375 19.5 680.599609375 19.5498046875 c 0
 680.400390625 19.5498046875 678.549804688 21.4501953125 676.5 23.75 c 0
 669.75 31.25 659.200195312 40.5498046875 649.900390625 47.150390625 c 2
 645.5 50.25 l 1
 645.5 119.349609375 l 1
 645.5 188.5 l 1
 503.5 188.5 l 1
 361.5 188.5 l 1
 361.5 129.349609375 l 1
 361.5 70.2001953125 l 1
 357.299804688 67.349609375 l 2
 344.25 58.4501953125 333.650390625 48.349609375 328.200195312 39.5 c 2
 326.25 36.349609375 l 1
 326 112.5 l 1
 325.75 188.700195312 l 1
 272.900390625 212.950195312 l 1
 220 237.25 l 1
 220 298.349609375 l 2
 220 332 220.099609375 359.5 220.200195312 359.5 c 0
 220.349609375 359.5 243.950195312 364.900390625 272.700195312 371.5 c 0
 301.450195312 378.099609375 325.200195312 383.5 325.5 383.5 c 0
 325.799804688 383.5 326.049804688 371.099609375 326.099609375 347.150390625 c 2
 326.25 310.75 l 1
 379.400390625 310.599609375 l 1
 432.5 310.5 l 1
 432.5 346.900390625 l 2
 432.5 366.950195312 432.650390625 383.5 432.849609375 383.650390625 c 0
539 322.75 m 1
 539 359.5 l 1
 503.5 359.5 l 1
 468 359.5 l 1
 468 322.75 l 1
 468 286 l 1
 379.5 286 l 1
 291 286 l 1
 291 317.75 l 2
 291 335.200195312 290.849609375 349.5 290.700195312 349.5 c 0
 290.549804688 349.5 282.650390625 347.349609375 273.200195312 344.75 c 0
 263.75 342.150390625 255.900390625 340 255.75 340 c 0
 255.599609375 340 255.5 322.349609375 255.5 300.75 c 2
 255.5 261.5 l 1
 503.650390625 261.599609375 l 1
 751.75 261.75 l 1
 751.900390625 300.650390625 l 1
 752 339.5 l 1
 750.900390625 340 l 2
 750.25 340.25 742.650390625 342.400390625 734 344.75 c 0
 725.349609375 347.099609375 717.849609375 349.150390625 717.400390625 349.299804688 c 0
 716.549804688 349.549804688 716.5 347.75 716.400390625 317.900390625 c 2
 716.25 286.25 l 1
 627.650390625 286.099609375 l 1
 539 286 l 1
 539 322.75 l 1
715.200195312 237.049804688 m 0
 715.5 237.299804688 633.049804688 237.5 503.5 237.5 c 0
 380.599609375 237.5 291.5 237.299804688 291.799804688 237.049804688 c 0
 292.049804688 236.799804688 303.849609375 231.299804688 318.049804688 224.799804688 c 2
 343.799804688 213 l 1
 503.599609375 213 l 1
 663.349609375 213 l 1
 689.049804688 224.799804688 l 2
 703.200195312 231.25 714.950195312 236.799804688 715.200195312 237.049804688 c 0
431.75 111.150390625 m 0
 435.900390625 114.599609375 439.450195312 117.5 439.650390625 117.5 c 0
 441.049804688 117.549804688 465.700195312 95.400390625 472.349609375 88.150390625 c 2
 476.599609375 83.5 l 1
 485.700195312 83.5 l 2
 490.650390625 83.4501953125 497.799804688 83.25 501.5 83 c 2
 508.25 82.5 l 1
 511.450195312 86.150390625 l 2
 520.900390625 96.849609375 545 118.150390625 546.599609375 117.200195312 c 0
 549.599609375 115.400390625 563.700195312 102.849609375 572.049804688 94.5 c 0
 583.700195312 82.900390625 589.150390625 76.4501953125 594.700195312 67.7001953125 c 2
 598.549804688 61.650390625 l 1
 606.75 58.0498046875 l 2
 621.5 51.5498046875 637.700195312 41.7998046875 649.75 32.2001953125 c 0
 656.549804688 26.7998046875 670.75 12.650390625 674.849609375 7.25 c 0
 689.799804688 -12.5498046875 699.099609375 -34.7001953125 701.450195312 -56.099609375 c 0
 703.5 -74.400390625 700.450195312 -94.400390625 693 -111.849609375 c 0
 688.049804688 -123.400390625 682.599609375 -132.150390625 671.25 -147 c 0
 663.299804688 -157.349609375 656.900390625 -166.150390625 651.700195312 -174 c 0
 645.700195312 -182.900390625 639.450195312 -194.099609375 640.049804688 -194.75 c 0
 640.200195312 -194.900390625 649.450195312 -198.150390625 660.549804688 -201.950195312 c 2
 680.75 -208.900390625 l 1
 680.900390625 -216.599609375 l 1
 681.049804688 -224.25 l 1
 712.75 -238.75 l 1
 744.5 -253.25 l 1
 744.5 -278.849609375 l 1
 744.5 -304.5 l 1
 524.75 -304.5 l 1
 305 -304.5 l 1
 305.099609375 -278.900390625 l 1
 305.25 -253.299804688 l 1
 337 -238.700195312 l 1
 368.75 -224.150390625 l 1
 369 -216.5 l 1
 369.25 -208.849609375 l 1
 387 -202.700195312 l 2
 396.75 -199.299804688 404.950195312 -196.450195312 405.25 -196.349609375 c 0
 405.5 -196.25 404.849609375 -193.849609375 403.75 -190.950195312 c 0
 401.950195312 -186.299804688 401.75 -185.299804688 401.75 -181.25 c 0
 401.75 -176.849609375 401.799804688 -176.650390625 404.099609375 -172.25 c 0
 408 -164.849609375 412.299804688 -159.599609375 417.599609375 -155.700195312 c 0
 434.650390625 -143.299804688 473.400390625 -110.900390625 476.549804688 -106.450195312 c 0
 477.150390625 -105.549804688 477.75 -103.849609375 477.900390625 -102.549804688 c 0
 478.099609375 -100.349609375 478 -100.099609375 476.200195312 -98.5498046875 c 0
 469.349609375 -92.5 455.799804688 -90.75 445.049804688 -94.400390625 c 0
 432.650390625 -98.7001953125 414.099609375 -108.75 388.599609375 -125.200195312 c 0
 376.299804688 -133.099609375 371.049804688 -136.200195312 364.549804688 -139.450195312 c 0
 341.650390625 -150.900390625 322.299804688 -152.900390625 306.099609375 -145.450195312 c 0
 297.849609375 -141.650390625 292.650390625 -136.900390625 284.099609375 -125.400390625 c 0
 277.25 -116.200195312 273.049804688 -109.549804688 269.25 -101.75 c 0
 259.900390625 -82.7001953125 260.200195312 -71.5 270.450195312 -56.650390625 c 0
 276.049804688 -48.5498046875 284.200195312 -40.2001953125 296 -30.5498046875 c 0
 309.799804688 -19.2998046875 318.650390625 -10.7001953125 324.75 -2.5498046875 c 0
 329.150390625 3.2998046875 333.700195312 12.2998046875 334.700195312 17.2998046875 c 0
 336.5 25.75 337.099609375 27.900390625 338.700195312 31.349609375 c 0
 343.200195312 40.849609375 352.200195312 50.2998046875 365 59.099609375 c 0
 367.599609375 60.900390625 370.700195312 62.849609375 371.900390625 63.4501953125 c 0
 374.200195312 64.650390625 391.5 70.5 392.599609375 70.5 c 0
 393 70.5 394.799804688 72.5 396.599609375 74.900390625 c 0
 405.25 86.349609375 418.049804688 99.5498046875 431.75 111.150390625 c 0
447.150390625 83.349609375 m 0
 445.849609375 84.400390625 443.599609375 86.099609375 442.25 87.099609375 c 2
 439.75 88.900390625 l 1
 436.950195312 86.849609375 l 2
 433.150390625 83.9501953125 428.599609375 79.9501953125 428.299804688 79.25 c 0
 428.150390625 78.7998046875 428.900390625 78.7998046875 431.400390625 79.2998046875 c 0
 433.25 79.650390625 438 80.2001953125 442 80.5 c 0
 446 80.7998046875 449.299804688 81.150390625 449.400390625 81.2001953125 c 0
 449.450195312 81.2998046875 448.450195312 82.25 447.150390625 83.349609375 c 0
549.349609375 86.4501953125 m 0
 547.849609375 87.5498046875 546.349609375 88.5 545.950195312 88.5 c 0
 544.599609375 88.4501953125 537.400390625 81.7998046875 532.450195312 76.0498046875 c 0
 529.700195312 72.849609375 525.650390625 67.599609375 523.450195312 64.349609375 c 0
 521.25 61.150390625 518.900390625 58.099609375 518.200195312 57.650390625 c 0
 517.049804688 56.900390625 516.200195312 56.900390625 506.349609375 57.7998046875 c 0
 498.099609375 58.5498046875 491.349609375 58.75 475.75 58.75 c 0
 444.25 58.75 432.049804688 57.2001953125 406.400390625 50.0498046875 c 0
 387.900390625 44.900390625 385.650390625 44.0498046875 380.650390625 40.4501953125 c 0
 368.700195312 31.7998046875 361.849609375 22.75 359.450195312 12.25 c 0
 358.849609375 9.7998046875 357.849609375 6.150390625 357.150390625 4.2001953125 c 0
 353.900390625 -5.25 343.599609375 -17.5498046875 328.799804688 -29.7001953125 c 0
 314.5 -41.400390625 306.5 -50.0498046875 305.25 -55.0498046875 c 0
 304.950195312 -56.349609375 304.950195312 -56.349609375 308.75 -56.9501953125 c 0
 312.549804688 -57.5 315.799804688 -58.7998046875 316.950195312 -60.150390625 c 0
 317.75 -61.150390625 318.200195312 -64.0498046875 317.799804688 -66.099609375 c 0
 317.650390625 -67.099609375 316.450195312 -69.0498046875 315 -70.75 c 0
 311.950195312 -74.349609375 311.549804688 -76.099609375 312.950195312 -78.900390625 c 0
 313.5 -80 314.25 -81.099609375 314.549804688 -81.25 c 0
 314.799804688 -81.4501953125 315.75 -82.5 316.549804688 -83.599609375 c 0
 320.5 -89.099609375 316.5 -94.7001953125 308.200195312 -95.400390625 c 0
 305.599609375 -95.599609375 305 -95.7998046875 305 -96.5 c 0
 305 -97.9501953125 308.299804688 -104 311.700195312 -108.75 c 0
 320.349609375 -120.75 327.75 -125.049804688 338.5 -124.349609375 c 0
 348.400390625 -123.650390625 360.849609375 -118.299804688 374.25 -109 c 0
 407.349609375 -86 426.849609375 -75.2001953125 442.5 -71.150390625 c 0
 451.799804688 -68.75 471.150390625 -69.0498046875 482.099609375 -71.849609375 c 0
 488.200195312 -73.349609375 492.950195312 -75.599609375 497.75 -79.25 c 0
 505.950195312 -85.4501953125 508.799804688 -92.25 507.599609375 -102.450195312 c 0
 506.75 -109.75 505.5 -112.599609375 501.549804688 -116.450195312 c 0
 492.25 -125.5 463.849609375 -149.349609375 450.099609375 -159.700195312 c 0
 447.299804688 -161.799804688 443.950195312 -164.849609375 442.700195312 -166.400390625 c 0
 438.25 -172.099609375 437.799804688 -178.599609375 441.599609375 -183.200195312 c 2
 443.049804688 -185 l 1
 525 -185 l 1
 606.900390625 -185 l 1
 609.200195312 -180.700195312 l 2
 613.950195312 -171.799804688 623.849609375 -157.900390625 635 -144.5 c 0
 651.25 -125.049804688 658.400390625 -112 662.049804688 -95.4501953125 c 0
 663.349609375 -89.400390625 664.700195312 -73.349609375 664.299804688 -67.650390625 c 0
 663.25 -50.75 654.950195312 -30.0498046875 640.150390625 -7.5 c 0
 636.099609375 -1.2998046875 634.299804688 0.7998046875 628.049804688 7.0498046875 c 0
 617.549804688 17.5 607.5 24.75 593.200195312 32.349609375 c 0
 589.849609375 34.150390625 586.5 36.2001953125 585.849609375 36.9501953125 c 0
 585.150390625 37.650390625 582.25 42.099609375 579.400390625 46.75 c 0
 571.150390625 60.25 566.5 67.400390625 563.299804688 71.650390625 c 0
 559.599609375 76.599609375 552.849609375 83.7001953125 549.349609375 86.4501953125 c 0
625.650390625 -215.349609375 m 1
 608.549804688 -209.5 l 1
 524.650390625 -209.549804688 l 1
 440.75 -209.549804688 l 1
 423.900390625 -215.400390625 l 1
 407 -221.25 l 1
 466.049804688 -221.400390625 l 2
 498.5 -221.450195312 551.549804688 -221.450195312 583.900390625 -221.400390625 c 2
 642.75 -221.25 l 1
 625.650390625 -215.349609375 l 1
666.049804688 -248.450195312 m 1
 660.900390625 -246 l 1
 524.799804688 -246 l 1
 388.75 -246.049804688 l 1
 384.75 -247.900390625 l 2
 382.549804688 -248.950195312 380.200195312 -250.049804688 379.5 -250.349609375 c 0
 378.549804688 -250.799804688 413.650390625 -250.950195312 524.75 -250.950195312 c 2
 671.25 -250.900390625 l 1
 666.049804688 -248.450195312 l 1
570.900390625 -274.849609375 m 0
 545.900390625 -274.950195312 505.099609375 -274.950195312 480.150390625 -274.849609375 c 0
 455.150390625 -274.799804688 475.599609375 -274.75 525.5 -274.75 c 0
 575.400390625 -274.75 595.849609375 -274.799804688 570.900390625 -274.849609375 c 0
709 -278 m 1
 709 -275.5 l 1
 524.75 -275.5 l 1
 340.5 -275.5 l 1
 340.5 -278 l 1
 340.5 -280.5 l 1
 524.75 -280.5 l 1
 709 -280.5 l 1
 709 -278 l 1
419.25 33 m 0
 423.299804688 33.7998046875 432.150390625 33.5498046875 436.150390625 32.5 c 0
 447.349609375 29.650390625 455.200195312 22.099609375 455.200195312 14.2001953125 c 0
 455.200195312 8.400390625 450.5 1.5498046875 444.5 -1.5 c 0
 435.900390625 -5.849609375 423.5 -6.5 413.400390625 -3.150390625 c 0
 404.549804688 -0.25 398.900390625 6.599609375 398.799804688 14.5 c 0
 398.700195312 22.4501953125 407.799804688 30.7001953125 419.25 33 c 0
EndSplineSet
EndChar

StartChar: k
Encoding: 107 107 12
Width: 1000
Flags: H
LayerCount: 2
Fore
SplineSet
361.849609375 383.650390625 m 0
 362 383.849609375 425.849609375 383.950195312 503.700195312 383.900390625 c 2
 645.25 383.75 l 1
 645.400390625 310.650390625 l 1
 645.5 237.5 l 1
 614.700195312 237.5 l 1
 583.900390625 237.5 l 1
 589.799804688 231.799804688 l 2
 598.849609375 223.150390625 603.849609375 215.599609375 607.200195312 205.5 c 0
 608.150390625 202.599609375 609.200195312 198.349609375 609.5 196 c 0
 609.799804688 193.650390625 610.099609375 191.700195312 610.150390625 191.650390625 c 0
 610.200195312 191.599609375 612.849609375 192.700195312 616 194.049804688 c 0
 625.5 198.150390625 643.200195312 205.200195312 654.849609375 209.400390625 c 0
 698.150390625 225.200195312 735.799804688 233.75 774.5 236.549804688 c 0
 785.5 237.349609375 812.75 237.349609375 821.25 236.599609375 c 0
 860 233 888.450195312 224.700195312 911.25 210.349609375 c 0
 938.799804688 192.950195312 954.400390625 169.799804688 958.799804688 139.5 c 0
 959.900390625 131.75 959.549804688 115.900390625 958.049804688 107.25 c 0
 953.75 82.75 942.349609375 58.650390625 922.5 32 c 0
 897.599609375 -1.400390625 865.900390625 -32.25 828 -60.0498046875 c 0
 819.799804688 -66.0498046875 802 -78.099609375 795.150390625 -82.25 c 2
 791.049804688 -84.75 l 1
 790.900390625 -145.950195312 l 1
 790.75 -207.200195312 l 1
 785 -212.400390625 l 2
 766.900390625 -228.799804688 747.450195312 -242.099609375 723.75 -254.299804688 c 0
 708.450195312 -262.150390625 696.799804688 -267.150390625 676.5 -274.5 c 0
 629 -291.75 580.75 -301.400390625 528.799804688 -304.049804688 c 0
 507.400390625 -305.150390625 472.099609375 -304.200195312 450.75 -302 c 0
 407.200195312 -297.5 364.349609375 -287.450195312 323.75 -272.25 c 0
 281.650390625 -256.450195312 249.599609375 -237.450195312 220.599609375 -211.099609375 c 2
 216.5 -207.349609375 l 1
 216.5 -146.200195312 l 1
 216.5 -85.099609375 l 1
 211.900390625 -82.2001953125 l 2
 187.75 -67.099609375 164.849609375 -50.099609375 143.049804688 -31.150390625 c 0
 133.549804688 -22.849609375 111.900390625 -1.2001953125 103.950195312 8 c 0
 63.349609375 55.0498046875 46.349609375 92 47.650390625 130.400390625 c 0
 48.2998046875 149.450195312 54.2998046875 167.099609375 65.349609375 182.650390625 c 0
 68.900390625 187.650390625 77.900390625 197.049804688 83.25 201.400390625 c 0
 109.450195312 222.599609375 145.950195312 234.25 194.849609375 237.049804688 c 0
 205.549804688 237.650390625 227.799804688 237.150390625 240 236 c 0
 286.950195312 231.549804688 333.150390625 218.900390625 387.599609375 195.5 c 0
 392.650390625 193.349609375 396.799804688 191.650390625 396.900390625 191.75 c 0
 396.950195312 191.799804688 397.349609375 193.950195312 397.75 196.549804688 c 0
 399.599609375 208.75 406.700195312 221.349609375 418.150390625 232.650390625 c 2
 423.049804688 237.5 l 1
 392.299804688 237.5 l 1
 361.5 237.5 l 1
 361.5 310.400390625 l 2
 361.5 350.5 361.650390625 383.5 361.849609375 383.650390625 c 0
609.900390625 310.650390625 m 1
 610 359.5 l 1
 503.75 359.5 l 2
 419.200195312 359.5 397.400390625 359.349609375 397.25 358.900390625 c 0
 397.099609375 358.549804688 397.049804688 336.549804688 397.099609375 310 c 2
 397.25 261.75 l 1
 503.5 261.75 l 1
 609.75 261.75 l 1
 609.900390625 310.650390625 l 1
536.450195312 226.25 m 0
 531.849609375 227.400390625 520.650390625 227.650390625 516 226.75 c 0
 503.849609375 224.450195312 495.299804688 219 491.400390625 211.099609375 c 0
 489.900390625 208.049804688 489.75 207.400390625 489.75 203 c 0
 489.75 198.75 489.900390625 197.950195312 491.25 195.25 c 0
 493.25 191.200195312 498.299804688 186.200195312 502.75 183.900390625 c 0
 514.549804688 177.75 530.400390625 177.150390625 543.400390625 182.299804688 c 0
 554.700195312 186.799804688 561.5 196.450195312 560 205.849609375 c 0
 558.450195312 215.349609375 549.549804688 223.049804688 536.450195312 226.25 c 0
240.25 212.5 m 0
 217.299804688 213.700195312 196.5 212.349609375 176.099609375 208.200195312 c 0
 158.200195312 204.599609375 143.700195312 199.400390625 130.799804688 192 c 0
 108.200195312 178.950195312 94.150390625 163.150390625 87.5 143.049804688 c 0
 84.5498046875 134.150390625 83.5 128.400390625 83.150390625 119.200195312 c 0
 82.25 94.150390625 90 70.650390625 108.099609375 43.5 c 0
 127.349609375 14.5498046875 155.349609375 -14.7001953125 188 -40.099609375 c 0
 202.349609375 -51.2001953125 230.200195312 -70.5 231.950195312 -70.5 c 0
 232.150390625 -70.5 234.25 -69 236.549804688 -67.2001953125 c 0
 272.049804688 -39.2001953125 321.5 -16.4501953125 375.75 -3.25 c 0
 380.700195312 -2 384.950195312 -0.75 385.150390625 -0.400390625 c 0
 385.349609375 -0.0498046875 387.400390625 3.75 389.700195312 8 c 0
 392 12.2998046875 395.599609375 18.599609375 397.75 22 c 0
 415.450195312 50.4501953125 444.049804688 82.0498046875 476.400390625 109 c 0
 480.700195312 112.650390625 484.299804688 115.75 484.400390625 115.950195312 c 0
 484.450195312 116.099609375 482.099609375 116.700195312 479.150390625 117.200195312 c 0
 465 119.549804688 445.900390625 125.900390625 435.650390625 131.549804688 c 0
 422.099609375 139.099609375 410.349609375 150.650390625 403.400390625 163.200195312 c 2
 401.25 167.150390625 l 1
 393.75 170.599609375 l 1
 339.150390625 195.950195312 287.799804688 209.950195312 240.25 212.5 c 0
798.099609375 212.5 m 0
 784.849609375 213.400390625 765.700195312 212.900390625 750.599609375 211.25 c 0
 713.700195312 207.299804688 675.150390625 196.700195312 631.75 178.650390625 c 0
 623.549804688 175.25 607.5 168 606.200195312 167.099609375 c 0
 605.950195312 166.900390625 604.849609375 165.200195312 603.799804688 163.25 c 0
 592 141.450195312 572.25 128.049804688 539.75 119.75 c 0
 536.200195312 118.849609375 530.849609375 117.700195312 527.849609375 117.200195312 c 0
 524.900390625 116.700195312 522.549804688 116.150390625 522.599609375 115.950195312 c 0
 522.700195312 115.75 525.400390625 113.450195312 528.650390625 110.849609375 c 0
 567.950195312 79.150390625 604.200195312 37.150390625 619.650390625 5.400390625 c 2
 622.75 -0.9501953125 l 1
 626.25 -1.7998046875 l 2
 647.450195312 -6.9501953125 673.75 -15.4501953125 693.75 -23.650390625 c 0
 723 -35.599609375 747.849609375 -49.650390625 769.900390625 -66.650390625 c 0
 772.900390625 -68.9501953125 775.349609375 -70.5 775.75 -70.2998046875 c 0
 778.650390625 -69.2001953125 802.5 -52.7001953125 816 -42.4501953125 c 0
 842.950195312 -22 868.400390625 2.900390625 887.299804688 27.25 c 0
 908.75 54.900390625 920.150390625 78.7998046875 923.299804688 102.700195312 c 0
 924.400390625 111.099609375 924.049804688 125.75 922.5 132.75 c 0
 917.700195312 155 905.950195312 172.099609375 885.75 186.099609375 c 0
 863.5 201.5 835.400390625 209.950195312 798.099609375 212.5 c 0
506.200195312 101.400390625 m 0
 504.75 102.549804688 503.549804688 103.5 503.450195312 103.450195312 c 0
 503.150390625 103.400390625 494.299804688 95.849609375 487.75 90.099609375 c 0
 466.099609375 70.900390625 445.549804688 47.349609375 430.75 24.849609375 c 0
 425.900390625 17.4501953125 419.549804688 6 420.349609375 6 c 0
 420.549804688 6 425.25 6.650390625 430.75 7.5 c 0
 440.5 8.900390625 453.549804688 10.349609375 468.75 11.599609375 c 0
 479 12.4501953125 527.5 12.4501953125 538.25 11.599609375 c 0
 552.150390625 10.5 565.900390625 9 576.450195312 7.5 c 0
 582.099609375 6.7001953125 586.799804688 6.099609375 586.900390625 6.25 c 0
 587.25 6.5498046875 580.349609375 19 576.099609375 25.650390625 c 0
 565.75 42.0498046875 551.849609375 58.7001953125 533.200195312 77 c 0
 524.5 85.5498046875 514.700195312 94.400390625 506.200195312 101.400390625 c 0
556.25 -20.0498046875 m 0
 527.349609375 -10.150390625 503.5 -2 503.25 -2.0498046875 c 0
 502.950195312 -2.099609375 495.799804688 -4.5498046875 487.25 -7.5 c 0
 471.5 -13 457.950195312 -17.7001953125 420 -30.7001953125 c 0
 408.299804688 -34.75 398.400390625 -38.150390625 398 -38.2998046875 c 0
 397.599609375 -38.4501953125 404 -40.900390625 412.25 -43.75 c 0
 420.5 -46.599609375 434.150390625 -51.25 442.5 -54.150390625 c 0
 492.349609375 -71.349609375 503.299804688 -75.0498046875 504.049804688 -74.900390625 c 0
 506.25 -74.5498046875 609.400390625 -38.7001953125 609.099609375 -38.4501953125 c 0
 608.900390625 -38.25 585.099609375 -30 556.25 -20.0498046875 c 0
279.650390625 -87.5498046875 m 0
 266.200195312 -86.099609375 254.5 -84.75 253.650390625 -84.599609375 c 2
 252 -84.349609375 l 1
 252 -102.650390625 l 1
 252 -120.950195312 l 1
 262.650390625 -114.799804688 l 2
 297.200195312 -94.849609375 304 -90.849609375 304 -90.5498046875 c 0
 304 -90.349609375 293.049804688 -89 279.650390625 -87.5498046875 c 0
755.5 -102.799804688 m 2
 755.5 -84.5 l 1
 754.400390625 -84.5498046875 l 2
 750.599609375 -84.75 703 -90.25 703 -90.5 c 0
 703 -90.75 752.200195312 -119.349609375 755.150390625 -120.849609375 c 0
 755.349609375 -120.950195312 755.5 -112.849609375 755.5 -102.799804688 c 2
537 -86 m 0
 529.799804688 -85.4501953125 489.25 -84.9501953125 484 -85.2998046875 c 0
 482.5 -85.400390625 476.849609375 -85.7001953125 471.5 -86 c 0
 427.349609375 -88.4501953125 382.299804688 -97.150390625 338.75 -111.75 c 0
 307.5 -122.200195312 281.650390625 -134.349609375 258.299804688 -149.5 c 2
 252 -153.599609375 l 1
 252 -165.75 l 1
 252 -177.950195312 l 1
 258.900390625 -173.549804688 l 2
 285.75 -156.25 317.25 -142.200195312 353.25 -131.450195312 c 0
 391.150390625 -120.099609375 427.549804688 -113.5 468.75 -110.5 c 0
 489.200195312 -109 525.900390625 -109.349609375 548.25 -111.299804688 c 0
 623.400390625 -117.75 696.700195312 -140.650390625 748.900390625 -174.049804688 c 0
 752.299804688 -176.25 755.150390625 -178 755.299804688 -178 c 0
 755.400390625 -178 755.5 -172.599609375 755.5 -166 c 2
 755.5 -154.049804688 l 1
 751.150390625 -151.099609375 l 2
 733.849609375 -139.549804688 709.75 -127.400390625 685.25 -117.900390625 c 0
 681.700195312 -116.5 673.150390625 -113.5 666.25 -111.200195312 c 0
 623.75 -97.0498046875 584.150390625 -89.2998046875 537 -86 c 0
530.299804688 -134.5 m 0
 522.450195312 -134.049804688 486.400390625 -133.950195312 479.75 -134.349609375 c 0
 453.200195312 -135.900390625 436.150390625 -137.849609375 414.5 -141.799804688 c 0
 388.799804688 -146.450195312 367.049804688 -152.200195312 341 -161.099609375 c 0
 312 -171.049804688 286.799804688 -183.349609375 263.75 -198.799804688 c 0
 251.799804688 -206.799804688 251.599609375 -206.950195312 252.299804688 -207.400390625 c 0
 252.549804688 -207.599609375 255.049804688 -209.349609375 257.75 -211.299804688 c 0
 302.5 -243.299804688 369.200195312 -267.099609375 439.75 -276.200195312 c 0
 475.549804688 -280.849609375 517.5 -281.400390625 554.25 -277.700195312 c 0
 616.549804688 -271.450195312 679.599609375 -252.349609375 726.75 -225.450195312 c 0
 734.849609375 -220.849609375 755 -207.75 755 -207.099609375 c 0
 755 -206.599609375 745.650390625 -200.150390625 738.150390625 -195.400390625 c 0
 704 -174 661.599609375 -157.200195312 614.400390625 -146.299804688 c 0
 586.950195312 -139.950195312 560.25 -136.200195312 530.299804688 -134.5 c 0
416.25 346.299804688 m 0
 415.450195312 346.900390625 420.049804688 347 446.099609375 347 c 2
 476.900390625 347 l 1
 490.25 338.549804688 l 1
 503.599609375 330.049804688 l 1
 509.75 334 l 2
 513.150390625 336.200195312 519.200195312 340 523.150390625 342.5 c 2
 530.349609375 347 l 1
 560.950195312 346.900390625 l 1
 591.599609375 346.75 l 1
 563.049804688 328.799804688 l 2
 547.349609375 318.900390625 534.5 310.700195312 534.5 310.549804688 c 0
 534.5 310.400390625 547.200195312 302.25 562.75 292.5 c 2
 590.950195312 274.75 l 1
 585.599609375 274.450195312 l 2
 582.650390625 274.25 569.049804688 274.099609375 555.299804688 274.049804688 c 2
 530.349609375 274 l 1
 516.950195312 282.5 l 1
 503.599609375 291 l 1
 490.150390625 282.5 l 1
 476.75 274 l 1
 446.049804688 274 l 2
 429.150390625 274 415.450195312 274.099609375 415.599609375 274.25 c 0
 415.75 274.400390625 428.549804688 282.549804688 444.049804688 292.299804688 c 0
 459.549804688 302.049804688 472.299804688 310.200195312 472.400390625 310.450195312 c 0
 472.5 310.700195312 460.099609375 318.700195312 444.900390625 328.25 c 0
 429.700195312 337.849609375 416.799804688 345.950195312 416.25 346.299804688 c 0
EndSplineSet
EndChar

StartChar: n
Encoding: 110 110 13
Width: 1000
Flags: HW
LayerCount: 2
Fore
SplineSet
394.5 381.650390625 m 0
 395.75 382.650390625 396.950195312 383.5 397.150390625 383.5 c 0
 397.700195312 383.5 404.450195312 377.849609375 413 370.299804688 c 0
 421.700195312 362.599609375 439.75 344.450195312 446.5 336.599609375 c 2
 451.75 330.549804688 l 1
 467.25 330.5 l 2
 484.849609375 330.5 510.099609375 329.349609375 516.799804688 328.25 c 0
 518.25 328 518.599609375 328.25 521.299804688 331.599609375 c 0
 529.200195312 341.400390625 544.099609375 357 555.400390625 367.349609375 c 0
 562.799804688 374.099609375 573.900390625 383.5 574.5 383.5 c 0
 575 383.5 582.599609375 377.25 589 371.549804688 c 0
 603.450195312 358.700195312 616.150390625 345.75 627.5 332.25 c 0
 637.849609375 319.950195312 643.700195312 311.75 651.150390625 299 c 0
 652.650390625 296.450195312 652.950195312 296.200195312 657 294.599609375 c 0
 659.349609375 293.700195312 664.849609375 291.349609375 669.25 289.400390625 c 0
 717.200195312 268.25 754.450195312 239.849609375 780.599609375 204.5 c 0
 803.049804688 174.200195312 816.599609375 142.400390625 821.25 109 c 0
 822.400390625 101.099609375 822.799804688 79.9501953125 822 71.400390625 c 0
 818.700195312 34.9501953125 804.450195312 0.5498046875 778.549804688 -33.5 c 0
 752.349609375 -67.849609375 741.900390625 -82.75 730.549804688 -101.75 c 0
 724.049804688 -112.599609375 716.049804688 -128.450195312 716.849609375 -128.900390625 c 0
 717.150390625 -129.099609375 733.099609375 -134.650390625 752.200195312 -141.25 c 2
 787 -153.200195312 l 1
 787.099609375 -165.450195312 l 1
 787.25 -177.700195312 l 1
 840.25 -202.049804688 l 1
 893.25 -226.349609375 l 1
 893.400390625 -263.200195312 l 1
 893.5 -300 l 1
 539 -300 l 1
 184.5 -300 l 1
 184.599609375 -263.200195312 l 1
 184.75 -226.400390625 l 1
 237.75 -202.049804688 l 1
 290.75 -177.75 l 1
 290.900390625 -165.5 l 1
 291 -153.25 l 1
 325.150390625 -141.549804688 l 2
 343.900390625 -135.099609375 359.75 -129.549804688 360.400390625 -129.25 c 0
 361.549804688 -128.700195312 361.549804688 -128.700195312 359.599609375 -127.349609375 c 0
 354.799804688 -124.200195312 350.200195312 -118.450195312 347.849609375 -112.650390625 c 0
 343.200195312 -101.150390625 345.450195312 -91.400390625 355.950195312 -77.5498046875 c 0
 360.299804688 -71.849609375 363.049804688 -69.2998046875 373.25 -61.7998046875 c 0
 396.299804688 -44.75 448.75 -1.349609375 463.900390625 13.25 c 0
 469.5 18.599609375 470.599609375 20.2998046875 471.75 25.099609375 c 0
 473.75 33.5498046875 471.349609375 38.849609375 463.200195312 44.2998046875 c 0
 453.599609375 50.7001953125 440.599609375 54 425.099609375 54 c 0
 417.099609375 54 411.599609375 53 402.200195312 49.849609375 c 0
 378.75 41.900390625 345.650390625 23.900390625 300.5 -5.5498046875 c 0
 269.549804688 -25.75 245.799804688 -36.4501953125 223.25 -40.2998046875 c 0
 216.900390625 -41.400390625 202.349609375 -41.5498046875 197 -40.5498046875 c 0
 184.799804688 -38.349609375 173.450195312 -32.599609375 164.400390625 -24.099609375 c 0
 155.900390625 -16.099609375 136.849609375 9.7998046875 128.049804688 25.349609375 c 0
 121.900390625 36.25 117.349609375 47.150390625 114.950195312 57 c 0
 113.299804688 63.7998046875 113.299804688 74.0498046875 114.900390625 79.75 c 0
 116.349609375 84.75 120.599609375 93.75 124.150390625 99.150390625 c 0
 132.799804688 112.400390625 148.299804688 128.299804688 169.450195312 145.599609375 c 0
 174.849609375 150 182.299804688 156.25 186 159.5 c 0
 194.75 167.099609375 208.599609375 181.25 214.200195312 188.25 c 0
 225.700195312 202.599609375 232.5 215.650390625 234.799804688 227.950195312 c 0
 237.200195312 240.400390625 239.299804688 246.849609375 243.599609375 254.349609375 c 0
 248 262 251.849609375 266.849609375 260 275 c 0
 268.099609375 283.099609375 275.150390625 288.900390625 285.150390625 295.599609375 c 2
 291.049804688 299.549804688 l 1
 306.150390625 304.549804688 l 2
 314.450195312 307.25 322.900390625 310 324.900390625 310.549804688 c 2
 328.549804688 311.599609375 l 1
 333.75 318.5 l 2
 351.349609375 341.849609375 371.200195312 362.5 394.5 381.650390625 c 0
405.25 353.549804688 m 0
 403.599609375 354.799804688 401.099609375 356.599609375 399.700195312 357.650390625 c 2
 397.150390625 359.450195312 l 1
 392.450195312 355.900390625 l 2
 384.400390625 349.900390625 376.599609375 343.049804688 368.25 334.75 c 0
 360.599609375 327.150390625 351.299804688 317.049804688 351.599609375 316.700195312 c 0
 351.700195312 316.650390625 354.700195312 317.200195312 358.25 318 c 0
 382.549804688 323.400390625 403.900390625 326.349609375 423.25 326.900390625 c 2
 434.25 327.25 l 1
 427 334.549804688 l 2
 420.200195312 341.349609375 412.25 348.299804688 405.25 353.549804688 c 0
580.200195312 355.299804688 m 0
 577.400390625 357.349609375 574.799804688 359 574.450195312 359 c 0
 573.700195312 359 564.049804688 351.950195312 559.5 348.099609375 c 0
 545 335.799804688 533.700195312 323.049804688 524.75 308.900390625 c 0
 520.75 302.549804688 523 303.049804688 506 304.5 c 0
 484.450195312 306.25 472.900390625 306.650390625 448.75 306.349609375 c 0
 436.099609375 306.200195312 422.599609375 305.799804688 418.75 305.5 c 0
 397.900390625 303.950195312 382.950195312 302.049804688 369.099609375 299.200195312 c 0
 356.599609375 296.650390625 327.200195312 288.400390625 309.150390625 282.400390625 c 0
 300.5 279.549804688 299.700195312 279.200195312 293.400390625 275 c 0
 269.150390625 258.900390625 254.549804688 240.75 251.25 222.75 c 0
 247.849609375 204.25 239.349609375 189.900390625 220.75 171.200195312 c 0
 212.799804688 163.200195312 207.200195312 158.299804688 192.700195312 146.700195312 c 0
 178.700195312 135.5 172.549804688 130.049804688 164.200195312 121.349609375 c 0
 154.25 111.049804688 147 100.400390625 144 91.7001953125 c 0
 142.549804688 87.4501953125 142.700195312 87.150390625 145.349609375 89.5 c 0
 150.700195312 94.2001953125 159.200195312 96.900390625 169.849609375 97.349609375 c 0
 184.450195312 97.9501953125 186.650390625 94.5 177.900390625 84.7001953125 c 0
 173.950195312 80.2001953125 172.5 77.150390625 172.5 73.25 c 0
 172.5 69.349609375 174.049804688 66.0498046875 177.599609375 62.150390625 c 0
 182.400390625 56.9501953125 183.549804688 54.2001953125 182.049804688 51.7001953125 c 0
 180.650390625 49.400390625 177.900390625 48.7998046875 170.099609375 49.150390625 c 0
 163 49.400390625 157.450195312 50.75 151.200195312 53.7001953125 c 2
 147.599609375 55.400390625 l 1
 149.25 51.75 l 2
 154.549804688 40.2001953125 166.5 22.150390625 178.700195312 7.5 c 0
 188.200195312 -4 197.75 -10.5498046875 209.799804688 -13.7998046875 c 0
 214.299804688 -15.0498046875 215.599609375 -15.2001953125 223.75 -15.2001953125 c 0
 233.900390625 -15.25 238.900390625 -14.5498046875 248.349609375 -11.7001953125 c 0
 266.299804688 -6.2998046875 283.75 3.099609375 308.75 20.75 c 0
 353.400390625 52.2998046875 389.900390625 71.5 412.400390625 75.25 c 0
 419.099609375 76.400390625 444.049804688 76.099609375 451.5 74.7998046875 c 0
 470.049804688 71.599609375 480.950195312 66.650390625 490.5 57.0498046875 c 0
 497.799804688 49.650390625 499.849609375 44.349609375 499.299804688 34 c 0
 498.650390625 22 496.75 17.2998046875 489.549804688 9.849609375 c 0
 477 -3.150390625 433.349609375 -39.900390625 406.049804688 -60.5 c 0
 399.25 -65.650390625 397.099609375 -67.5498046875 394.150390625 -71.25 c 0
 384.400390625 -83.400390625 381.849609375 -92.2001953125 385.5 -101.25 c 0
 386.349609375 -103.450195312 387.599609375 -106.150390625 388.25 -107.25 c 0
 389.349609375 -109.200195312 393.349609375 -113.349609375 396.099609375 -115.450195312 c 2
 397.400390625 -116.5 l 1
 541.349609375 -116.5 l 1
 685.25 -116.5 l 1
 687.150390625 -112.299804688 l 2
 694.900390625 -95.349609375 712.75 -69.900390625 738 -39.75 c 0
 757.450195312 -16.4501953125 767.799804688 0.7001953125 775.25 22.150390625 c 0
 781.099609375 38.849609375 783.099609375 53.2001953125 783.200195312 78 c 0
 783.25 93.75 783.099609375 95.5498046875 780.200195312 108.450195312 c 0
 774.700195312 133 759.549804688 164.650390625 738.599609375 195.5 c 0
 722.349609375 219.400390625 692.599609375 244 658.75 261.5 c 0
 654.349609375 263.799804688 650.349609375 266 649.849609375 266.450195312 c 0
 649.349609375 266.849609375 646.75 270.849609375 644.099609375 275.25 c 0
 633.75 292.549804688 623.099609375 309.700195312 617.25 318.5 c 0
 611.700195312 326.900390625 610.450195312 328.450195312 603.700195312 335.099609375 c 0
 595.75 343 588.349609375 349.349609375 580.200195312 355.299804688 c 0
712.599609375 -152.049804688 m 2
 680.450195312 -141 l 1
 538.849609375 -141.049804688 l 1
 397.25 -141.049804688 l 1
 361.650390625 -153.349609375 l 1
 326 -165.650390625 l 1
 326 -171.549804688 l 1
 326 -177.5 l 1
 539 -177.5 l 1
 752 -177.5 l 1
 752 -171.549804688 l 1
 752 -165.599609375 l 1
 748.400390625 -164.349609375 l 2
 746.400390625 -163.700195312 730.299804688 -158.150390625 712.599609375 -152.049804688 c 2
795.599609375 -214.099609375 m 1
 769.150390625 -202 l 1
 538.950195312 -202 l 1
 308.75 -202.049804688 l 1
 282.400390625 -214.150390625 l 1
 256.049804688 -226.25 l 1
 397.5 -226.400390625 l 2
 475.349609375 -226.450195312 602.700195312 -226.450195312 680.549804688 -226.400390625 c 2
 822.049804688 -226.25 l 1
 795.599609375 -214.099609375 l 1
858 -263.25 m 1
 858 -251 l 1
 539 -251 l 1
 220 -251 l 1
 220 -263.25 l 1
 220 -275.5 l 1
 539 -275.5 l 1
 858 -275.5 l 1
 858 -263.25 l 1
366.849609375 246.700195312 m 0
 377.599609375 248.650390625 390.349609375 246.75 398.849609375 241.900390625 c 0
 407 237.299804688 412.049804688 228.900390625 411.200195312 221.349609375 c 0
 410.799804688 217.599609375 408.25 212.450195312 405.299804688 209.349609375 c 0
 398.950195312 202.75 388.200195312 198.950195312 375.75 198.950195312 c 0
 359.799804688 198.950195312 347.25 205.150390625 342.299804688 215.5 c 0
 340.900390625 218.400390625 340.75 219.25 340.75 223.25 c 0
 340.75 227.349609375 340.900390625 228.099609375 342.400390625 231.099609375 c 0
 346.299804688 239 355 244.549804688 366.849609375 246.700195312 c 0
EndSplineSet
EndChar

StartChar: l
Encoding: 108 108 14
Width: 1000
Flags: H
LayerCount: 2
Fore
SplineSet
361.849609375 383.650390625 m 0
 362 383.849609375 425.849609375 383.950195312 503.700195312 383.900390625 c 2
 645.25 383.75 l 1
 645.400390625 310.650390625 l 1
 645.5 237.5 l 1
 614.700195312 237.5 l 1
 583.900390625 237.5 l 1
 589.799804688 231.799804688 l 2
 598.849609375 223.150390625 603.849609375 215.599609375 607.200195312 205.5 c 0
 608.150390625 202.599609375 609.200195312 198.349609375 609.5 196 c 0
 609.799804688 193.650390625 610.099609375 191.700195312 610.150390625 191.650390625 c 0
 610.200195312 191.599609375 612.849609375 192.700195312 616 194.049804688 c 0
 625.5 198.150390625 643.200195312 205.200195312 654.849609375 209.400390625 c 0
 698.150390625 225.200195312 735.799804688 233.75 774.5 236.549804688 c 0
 785.5 237.349609375 812.75 237.349609375 821.25 236.599609375 c 0
 860 233 888.450195312 224.700195312 911.25 210.349609375 c 0
 938.799804688 192.950195312 954.400390625 169.799804688 958.799804688 139.5 c 0
 959.900390625 131.75 959.549804688 115.900390625 958.049804688 107.25 c 0
 953.75 82.75 942.349609375 58.650390625 922.5 32 c 0
 897.599609375 -1.400390625 865.900390625 -32.25 828 -60.0498046875 c 0
 819.75 -66.0498046875 802 -78.099609375 795.150390625 -82.25 c 2
 791.049804688 -84.75 l 1
 791 -145.849609375 l 1
 791 -206.950195312 l 1
 784.900390625 -212.549804688 l 2
 765.799804688 -229.900390625 745.099609375 -243.75 718.75 -256.75 c 0
 701.900390625 -265.099609375 685.099609375 -271.849609375 663.5 -279.049804688 c 0
 619.900390625 -293.5 576 -301.650390625 528.799804688 -304.049804688 c 0
 507.400390625 -305.150390625 472.099609375 -304.200195312 450.75 -302 c 0
 407.200195312 -297.5 364.349609375 -287.450195312 323.75 -272.25 c 0
 281.650390625 -256.450195312 249.599609375 -237.450195312 220.599609375 -211.099609375 c 2
 216.5 -207.349609375 l 1
 216.5 -146.200195312 l 1
 216.5 -85.099609375 l 1
 211.900390625 -82.2001953125 l 2
 187.75 -67.099609375 164.849609375 -50.099609375 143.049804688 -31.150390625 c 0
 133.549804688 -22.849609375 111.900390625 -1.2001953125 103.950195312 8 c 0
 63.349609375 55.0498046875 46.349609375 92 47.650390625 130.400390625 c 0
 48.2998046875 149.450195312 54.2998046875 167.099609375 65.349609375 182.650390625 c 0
 68.900390625 187.650390625 77.900390625 197.049804688 83.25 201.400390625 c 0
 109.450195312 222.599609375 145.950195312 234.25 194.849609375 237.049804688 c 0
 205.549804688 237.650390625 227.799804688 237.150390625 240 236 c 0
 286.950195312 231.549804688 333.150390625 218.900390625 387.599609375 195.5 c 0
 392.650390625 193.349609375 396.799804688 191.650390625 396.900390625 191.75 c 0
 396.950195312 191.799804688 397.349609375 193.950195312 397.75 196.549804688 c 0
 399.599609375 208.75 406.700195312 221.349609375 418.150390625 232.650390625 c 2
 423.049804688 237.5 l 1
 392.299804688 237.5 l 1
 361.5 237.5 l 1
 361.5 310.400390625 l 2
 361.5 350.5 361.650390625 383.5 361.849609375 383.650390625 c 0
487.200195312 347.950195312 m 1
 470.75 359.5 l 1
 434.150390625 359.5 l 2
 414 359.5 397.5 359.400390625 397.5 359.349609375 c 0
 397.5 359.25 413 348.25 432 334.950195312 c 0
 450.950195312 321.650390625 466.450195312 310.650390625 466.450195312 310.5 c 0
 466.450195312 310.349609375 450.900390625 299.349609375 431.849609375 286 c 2
 397.25 261.75 l 1
 433.900390625 261.599609375 l 1
 470.599609375 261.5 l 1
 487 273.049804688 l 2
 497.599609375 280.5 503.700195312 284.450195312 504.099609375 284.200195312 c 0
 504.450195312 284 511.900390625 278.799804688 520.599609375 272.650390625 c 2
 536.5 261.5 l 1
 573.099609375 261.5 l 2
 604.900390625 261.5 609.599609375 261.599609375 609 262.200195312 c 0
 608.599609375 262.599609375 593.299804688 273.450195312 575 286.25 c 0
 556.700195312 299.099609375 541.5 309.849609375 541.200195312 310.150390625 c 0
 540.75 310.599609375 549.049804688 316.650390625 575.200195312 335 c 2
 609.75 359.25 l 1
 573.099609375 359.400390625 l 1
 536.400390625 359.5 l 1
 521.349609375 348.900390625 l 2
 513.049804688 343.099609375 505.650390625 337.900390625 504.950195312 337.349609375 c 2
 503.599609375 336.400390625 l 1
 487.200195312 347.950195312 l 1
536.450195312 226.25 m 0
 531.849609375 227.400390625 520.650390625 227.650390625 516 226.75 c 0
 503.849609375 224.450195312 495.299804688 219 491.400390625 211.099609375 c 0
 489.900390625 208.049804688 489.75 207.400390625 489.75 203 c 0
 489.75 198.75 489.900390625 197.950195312 491.25 195.25 c 0
 493.25 191.200195312 498.299804688 186.200195312 502.75 183.900390625 c 0
 514.549804688 177.75 530.400390625 177.150390625 543.400390625 182.299804688 c 0
 554.700195312 186.799804688 561.5 196.450195312 560 205.849609375 c 0
 558.450195312 215.349609375 549.549804688 223.049804688 536.450195312 226.25 c 0
240.25 212.5 m 0
 231.5 212.950195312 216.900390625 213.049804688 211.5 212.650390625 c 0
 173.900390625 210.049804688 148.150390625 203 126.700195312 189.5 c 0
 102.599609375 174.400390625 89.7001953125 156.900390625 84.5 132.25 c 0
 83.150390625 125.799804688 82.650390625 113.25 83.4501953125 105.450195312 c 0
 85.5498046875 85.2998046875 93.4501953125 65.5 108.099609375 43.5 c 0
 127.349609375 14.5498046875 155.349609375 -14.75 188 -40.099609375 c 0
 202.349609375 -51.25 230.200195312 -70.5 231.950195312 -70.5 c 0
 232.150390625 -70.5 234.25 -69 236.549804688 -67.2001953125 c 0
 272.049804688 -39.2001953125 321.5 -16.4501953125 375.75 -3.25 c 0
 380.700195312 -2 384.950195312 -0.75 385.150390625 -0.400390625 c 0
 385.349609375 -0.0498046875 387.400390625 3.75 389.700195312 8 c 0
 392 12.2998046875 395.599609375 18.599609375 397.75 22 c 0
 415.450195312 50.4501953125 444.049804688 82.0498046875 476.400390625 109 c 0
 480.700195312 112.650390625 484.299804688 115.75 484.400390625 115.950195312 c 0
 484.450195312 116.150390625 482.799804688 116.599609375 480.650390625 116.900390625 c 0
 466.400390625 119.150390625 446.599609375 125.549804688 436 131.400390625 c 0
 422.25 139 410.400390625 150.5 403.400390625 163.200195312 c 2
 401.25 167.150390625 l 1
 393.75 170.599609375 l 1
 339.150390625 195.950195312 287.799804688 209.950195312 240.25 212.5 c 0
798.099609375 212.5 m 0
 763.799804688 214.799804688 723 209.349609375 682.299804688 197 c 0
 660.950195312 190.549804688 631.400390625 179.150390625 612.5 170.200195312 c 2
 605.75 166.950195312 l 1
 604.099609375 163.799804688 l 2
 592.900390625 142.150390625 572.299804688 128.099609375 539.75 119.75 c 0
 536.200195312 118.849609375 530.849609375 117.700195312 527.849609375 117.200195312 c 0
 524.900390625 116.700195312 522.549804688 116.150390625 522.599609375 115.950195312 c 0
 522.700195312 115.75 525.400390625 113.450195312 528.650390625 110.849609375 c 0
 567.950195312 79.150390625 604.200195312 37.2001953125 619.650390625 5.400390625 c 2
 622.75 -0.9501953125 l 1
 628.25 -2.2998046875 l 2
 631.299804688 -3.0498046875 638.700195312 -5.0498046875 644.75 -6.7998046875 c 0
 694.849609375 -21.2001953125 734.599609375 -40 767.700195312 -64.9501953125 c 0
 771.799804688 -68.0498046875 775.400390625 -70.4501953125 775.799804688 -70.2998046875 c 0
 778.650390625 -69.2001953125 802.599609375 -52.599609375 816 -42.4501953125 c 0
 842.950195312 -22 868.400390625 2.900390625 887.299804688 27.25 c 0
 908.75 54.900390625 920.150390625 78.7998046875 923.299804688 102.700195312 c 0
 924.400390625 111.099609375 924.049804688 125.75 922.5 132.75 c 0
 917.700195312 155 905.950195312 172.099609375 885.75 186.099609375 c 0
 863.5 201.5 835.400390625 209.950195312 798.099609375 212.5 c 0
506.200195312 101.400390625 m 0
 504.75 102.549804688 503.549804688 103.5 503.450195312 103.5 c 0
 502.700195312 103.400390625 482.75 85.650390625 475.700195312 78.849609375 c 0
 459.549804688 63.25 442.5 42.75 430.75 24.849609375 c 0
 425.900390625 17.4501953125 419.549804688 6 420.349609375 6 c 0
 420.549804688 6 425.25 6.650390625 430.75 7.5 c 0
 440.599609375 8.900390625 454.049804688 10.400390625 468.75 11.599609375 c 0
 478.849609375 12.4501953125 526.950195312 12.4501953125 538 11.599609375 c 0
 551.200195312 10.599609375 565.450195312 9.0498046875 576.450195312 7.5 c 0
 582.099609375 6.7001953125 586.799804688 6.099609375 586.900390625 6.25 c 0
 587.25 6.5498046875 580.349609375 19 576.099609375 25.650390625 c 0
 565.75 42.0498046875 551.849609375 58.7001953125 533.200195312 77 c 0
 524.5 85.5498046875 514.700195312 94.400390625 506.200195312 101.400390625 c 0
556.25 -20.0498046875 m 0
 527.349609375 -10.150390625 503.5 -2.0498046875 503.25 -2.0498046875 c 0
 502.950195312 -2.099609375 499.25 -3.349609375 495 -4.849609375 c 0
 490.75 -6.349609375 480.5 -9.900390625 472.25 -12.75 c 0
 433.5 -26.099609375 425.799804688 -28.75 412.5 -33.25 c 0
 404.650390625 -35.9501953125 398.099609375 -38.2998046875 397.900390625 -38.4501953125 c 0
 397.700195312 -38.599609375 400.950195312 -39.900390625 405.150390625 -41.349609375 c 0
 409.349609375 -42.75 419.75 -46.2998046875 428.25 -49.25 c 0
 436.799804688 -52.2001953125 450.599609375 -56.9501953125 459 -59.849609375 c 0
 467.400390625 -62.75 480.900390625 -67.349609375 489 -70.099609375 c 2
 503.75 -75.150390625 l 1
 556.599609375 -56.9501953125 l 2
 585.650390625 -46.9501953125 609.299804688 -38.599609375 609.099609375 -38.4501953125 c 0
 608.900390625 -38.25 585.099609375 -30 556.25 -20.0498046875 c 0
279.650390625 -87.5498046875 m 0
 266.200195312 -86.099609375 254.5 -84.75 253.650390625 -84.599609375 c 2
 252 -84.349609375 l 1
 252 -102.650390625 l 1
 252 -120.950195312 l 1
 262.650390625 -114.799804688 l 2
 297.200195312 -94.849609375 304 -90.849609375 304 -90.5498046875 c 0
 304 -90.349609375 293.049804688 -89 279.650390625 -87.5498046875 c 0
755.5 -102.799804688 m 2
 755.5 -84.5 l 1
 754.400390625 -84.5498046875 l 2
 750.599609375 -84.75 703 -90.25 703 -90.5 c 0
 703 -90.75 752.200195312 -119.349609375 755.150390625 -120.849609375 c 0
 755.349609375 -120.950195312 755.5 -112.849609375 755.5 -102.799804688 c 2
537 -86 m 0
 529.799804688 -85.4501953125 489.25 -84.9501953125 484 -85.2998046875 c 0
 482.5 -85.400390625 476.849609375 -85.7001953125 471.5 -86 c 0
 427.349609375 -88.4501953125 382.299804688 -97.150390625 338.75 -111.75 c 0
 307.5 -122.200195312 281.650390625 -134.349609375 258.299804688 -149.5 c 2
 252 -153.599609375 l 1
 252 -165.75 l 1
 252 -177.950195312 l 1
 258.900390625 -173.549804688 l 2
 272.549804688 -164.75 290.099609375 -155.450195312 305.5 -148.75 c 0
 348.400390625 -130.200195312 400.900390625 -116.950195312 451 -112.049804688 c 0
 481.900390625 -109 518.549804688 -108.75 548.25 -111.299804688 c 0
 623.349609375 -117.75 696.549804688 -140.599609375 748.900390625 -174.049804688 c 0
 752.299804688 -176.25 755.200195312 -178 755.299804688 -178 c 0
 755.400390625 -178 755.5 -172.599609375 755.5 -166 c 2
 755.5 -154.049804688 l 1
 751.150390625 -151.099609375 l 2
 733.849609375 -139.549804688 709.75 -127.400390625 685.25 -117.900390625 c 0
 681.700195312 -116.5 673.150390625 -113.5 666.25 -111.200195312 c 0
 623.75 -97.0498046875 584.150390625 -89.2998046875 537 -86 c 0
222.5 188.200195312 m 0
 226.599609375 188.549804688 243.849609375 188.450195312 250.75 188 c 0
 279.950195312 186.049804688 309.150390625 179.299804688 343 166.650390625 c 0
 374.099609375 155 404 140.150390625 430.599609375 123.150390625 c 0
 438 118.450195312 449.950195312 109.950195312 450 109.450195312 c 0
 450 109.25 447.5 107.049804688 444.450195312 104.5 c 0
 422.650390625 86.2998046875 404.099609375 66.849609375 387.400390625 44.75 c 0
 379.950195312 34.849609375 371.799804688 21.7001953125 368.75 14.7001953125 c 2
 367.450195312 11.7001953125 l 1
 362.599609375 10.5498046875 l 2
 354.900390625 8.7001953125 336.5 3.2998046875 327.599609375 0.2998046875 c 0
 297.099609375 -10.150390625 270 -24.2001953125 247.650390625 -41.2998046875 c 0
 244.25 -43.900390625 241.25 -46 240.950195312 -46 c 0
 240.049804688 -46 221.349609375 -33.349609375 212.200195312 -26.5 c 0
 172.900390625 2.7998046875 139.5 40.900390625 126.5 71.150390625 c 0
 120.700195312 84.75 118.799804688 93.650390625 118.75 107.75 c 0
 118.75 116.450195312 118.900390625 118.400390625 119.900390625 122.950195312 c 0
 124.400390625 142.950195312 135.099609375 157.200195312 155.099609375 169.599609375 c 0
 170.049804688 178.900390625 191.950195312 185.5 214.5 187.450195312 c 0
 217.950195312 187.75 221.549804688 188.099609375 222.5 188.200195312 c 0
759 188.200195312 m 0
 764.75 188.549804688 780.900390625 188.450195312 786.950195312 188 c 0
 815.75 185.799804688 838.049804688 179.049804688 855.75 167.150390625 c 0
 866.25 160.099609375 872.200195312 154.25 877.849609375 145.599609375 c 0
 885.049804688 134.599609375 888.5 122.400390625 888.5 107.700195312 c 0
 888.5 85.349609375 880.450195312 64.849609375 861.75 39.75 c 0
 842.099609375 13.349609375 819 -9.150390625 789.650390625 -30.4501953125 c 0
 782.549804688 -35.599609375 766.849609375 -46 766.150390625 -46 c 0
 765.900390625 -46 763 -43.9501953125 759.75 -41.4501953125 c 0
 730.75 -19.2998046875 696.400390625 -3.599609375 650 8.75 c 0
 645.200195312 10.0498046875 641 11.349609375 640.700195312 11.7001953125 c 0
 640.349609375 12 638.650390625 15.099609375 636.849609375 18.599609375 c 0
 629.400390625 33.0498046875 619.450195312 46.9501953125 604.200195312 64.25 c 0
 592.799804688 77.2001953125 572.900390625 96.25 559.049804688 107.5 c 2
 556.849609375 109.299804688 l 1
 561.299804688 112.400390625 l 2
 592.950195312 134.450195312 620.549804688 149.400390625 655.5 163.25 c 0
 693.950195312 178.549804688 724.5 185.900390625 759 188.200195312 c 0
496.549804688 74 m 0
 500.200195312 76.75 503.349609375 79 503.549804688 79 c 0
 504.049804688 79 515.400390625 70.5 520.5 66.25 c 0
 530.150390625 58.25 540.650390625 47.25 546.099609375 39.5 c 0
 548.900390625 35.5 551.599609375 30.9501953125 551.349609375 30.650390625 c 0
 551.200195312 30.5498046875 547.099609375 30.900390625 542.200195312 31.4501953125 c 0
 526.599609375 33.2001953125 516.5 33.650390625 497.549804688 33.349609375 c 0
 481 33.099609375 470.75 32.4501953125 460.400390625 30.9501953125 c 0
 458.299804688 30.650390625 456.299804688 30.5 456 30.599609375 c 0
 455.700195312 30.7001953125 456.849609375 32.7998046875 458.549804688 35.25 c 0
 467.950195312 49.0498046875 480.849609375 62.2001953125 496.549804688 74 c 0
EndSplineSet
EndChar

StartChar: m
Encoding: 109 109 15
Width: 1000
Flags: HW
LayerCount: 2
Fore
SplineSet
394.5 381.650390625 m 0
 395.75 382.650390625 396.950195312 383.5 397.150390625 383.5 c 0
 397.700195312 383.5 404.450195312 377.849609375 413 370.299804688 c 0
 421.700195312 362.599609375 439.75 344.450195312 446.5 336.599609375 c 2
 451.75 330.549804688 l 1
 467.25 330.5 l 2
 484.849609375 330.5 510.099609375 329.349609375 516.799804688 328.25 c 0
 518.25 328 518.599609375 328.25 521.299804688 331.599609375 c 0
 529.200195312 341.400390625 544.099609375 357 555.400390625 367.349609375 c 0
 562.799804688 374.099609375 573.900390625 383.5 574.5 383.5 c 0
 575 383.5 582.599609375 377.25 589 371.549804688 c 0
 603.450195312 358.700195312 616.150390625 345.75 627.5 332.25 c 0
 637.849609375 319.950195312 643.700195312 311.75 651.150390625 299 c 0
 652.650390625 296.450195312 652.950195312 296.200195312 657 294.599609375 c 0
 709.900390625 273.650390625 752.349609375 242.700195312 780.599609375 204.5 c 0
 803.049804688 174.200195312 816.599609375 142.400390625 821.25 109 c 0
 822.400390625 101.099609375 822.799804688 79.9501953125 822 71.400390625 c 0
 818.700195312 35 804.400390625 0.5 778.549804688 -33.5 c 0
 752.349609375 -67.849609375 741.900390625 -82.75 730.549804688 -101.75 c 0
 724.049804688 -112.599609375 716.049804688 -128.450195312 716.849609375 -128.900390625 c 0
 717.150390625 -129.099609375 733.099609375 -134.650390625 752.200195312 -141.25 c 2
 787 -153.200195312 l 1
 787.099609375 -165.450195312 l 1
 787.25 -177.700195312 l 1
 840.25 -202.049804688 l 1
 893.25 -226.349609375 l 1
 893.400390625 -263.200195312 l 1
 893.5 -300 l 1
 539 -300 l 1
 184.5 -300 l 1
 184.599609375 -263.200195312 l 1
 184.75 -226.400390625 l 1
 237.75 -202.049804688 l 1
 290.75 -177.75 l 1
 290.900390625 -165.5 l 1
 291 -153.25 l 1
 325.150390625 -141.549804688 l 2
 343.900390625 -135.099609375 359.75 -129.549804688 360.400390625 -129.25 c 0
 361.549804688 -128.700195312 361.549804688 -128.700195312 359.599609375 -127.349609375 c 0
 354.799804688 -124.200195312 350.200195312 -118.450195312 347.849609375 -112.650390625 c 0
 343.200195312 -101.150390625 345.450195312 -91.400390625 355.950195312 -77.5498046875 c 0
 360.299804688 -71.849609375 363.049804688 -69.2998046875 373.25 -61.7998046875 c 0
 396.5 -44.599609375 449.299804688 -0.900390625 464.200195312 13.5 c 0
 469.549804688 18.650390625 470.599609375 20.349609375 471.75 25.099609375 c 0
 473.75 33.5498046875 471.349609375 38.849609375 463.200195312 44.2998046875 c 0
 453.599609375 50.7001953125 440.599609375 54 425.099609375 54 c 0
 417.099609375 54 411.599609375 53 402.200195312 49.849609375 c 0
 378.400390625 41.7998046875 347.099609375 24.7001953125 298.5 -6.849609375 c 0
 268.799804688 -26.099609375 245.400390625 -36.5 223.25 -40.2998046875 c 0
 216.900390625 -41.400390625 202.349609375 -41.5498046875 197 -40.5498046875 c 0
 184.799804688 -38.349609375 173.450195312 -32.599609375 164.400390625 -24.099609375 c 0
 155.900390625 -16.099609375 136.849609375 9.7998046875 128.049804688 25.349609375 c 0
 121.900390625 36.25 117.349609375 47.150390625 114.950195312 57 c 0
 113.299804688 63.7998046875 113.299804688 74.0498046875 114.900390625 79.75 c 0
 116.349609375 84.75 120.599609375 93.75 124.150390625 99.150390625 c 0
 132.799804688 112.400390625 148.299804688 128.299804688 169.450195312 145.599609375 c 0
 174.849609375 150 182.299804688 156.25 186 159.5 c 0
 194.75 167.099609375 208.599609375 181.25 214.200195312 188.25 c 0
 225.700195312 202.599609375 232.5 215.650390625 234.799804688 227.950195312 c 0
 237.200195312 240.400390625 239.299804688 246.849609375 243.599609375 254.349609375 c 0
 248 262 251.849609375 266.849609375 260 275 c 0
 268.099609375 283.099609375 275.150390625 288.900390625 285.150390625 295.599609375 c 2
 291.049804688 299.549804688 l 1
 306.150390625 304.549804688 l 2
 314.450195312 307.25 322.900390625 310 324.900390625 310.549804688 c 2
 328.549804688 311.599609375 l 1
 333.75 318.5 l 2
 351.349609375 341.849609375 371.200195312 362.5 394.5 381.650390625 c 0
448.150390625 320.5 m 0
 439.700195312 320.75 431.950195312 320.950195312 431 320.900390625 c 0
 430.049804688 320.849609375 426.650390625 320.700195312 423.5 320.549804688 c 2
 417.75 320.25 l 1
 425.25 319.900390625 l 2
 449.349609375 318.700195312 477.150390625 315.200195312 500.950195312 310.349609375 c 2
 509.099609375 308.650390625 l 1
 510.549804688 311.700195312 l 2
 511.349609375 313.349609375 511.900390625 314.75 511.849609375 314.799804688 c 0
 511.25 315.400390625 486.900390625 318.200195312 473.650390625 319.25 c 0
 468.099609375 319.650390625 456.650390625 320.25 448.150390625 320.5 c 0
677 256.849609375 m 0
 669.5 261.599609375 667 263.049804688 667 262.700195312 c 0
 667 262.599609375 671.049804688 253.400390625 676 242.349609375 c 2
 685.049804688 222.25 l 1
 691.200195312 216 l 2
 699.200195312 207.849609375 703.900390625 202.450195312 709.450195312 195.049804688 c 0
 739.400390625 154.900390625 753.650390625 111.799804688 751.450195312 68.099609375 c 0
 751.049804688 59.849609375 750.900390625 58.400390625 749.950195312 51.75 c 0
 745.75 22.7001953125 733.549804688 -6.650390625 714.299804688 -34.2001953125 c 0
 712.200195312 -37.150390625 707.25 -43.7998046875 703.299804688 -48.9501953125 c 0
 686.75 -70.4501953125 672.799804688 -90.5 662.75 -107.25 c 0
 657.099609375 -116.650390625 649.799804688 -130.599609375 647.099609375 -137 c 2
 645.549804688 -140.75 l 1
 521.150390625 -141 l 1
 396.75 -141.25 l 1
 361.400390625 -153.450195312 l 1
 326 -165.650390625 l 1
 326 -171.549804688 l 1
 326 -177.5 l 1
 539 -177.5 l 1
 752 -177.5 l 1
 752 -171.549804688 l 1
 752 -165.599609375 l 1
 741.900390625 -162.099609375 l 2
 736.299804688 -160.200195312 720.400390625 -154.75 706.5 -149.950195312 c 0
 692.599609375 -145.200195312 681.150390625 -141.25 681.049804688 -141.150390625 c 0
 680.700195312 -140.900390625 684.950195312 -131.5 689 -123.700195312 c 0
 698.650390625 -104.900390625 713.849609375 -81.75 733.400390625 -56 c 0
 747.5 -37.5 749.049804688 -35.2998046875 753.75 -28.25 c 0
 772.400390625 0 783.049804688 28.5 786.25 58.75 c 0
 787.200195312 67.7998046875 787.200195312 85.7001953125 786.25 94.75 c 0
 782.549804688 129.450195312 768.650390625 163.150390625 744.75 195.299804688 c 0
 727.799804688 218.049804688 703.599609375 240.049804688 677 256.849609375 c 0
384.650390625 246.75 m 0
 366.650390625 249.900390625 348.299804688 243.099609375 342.400390625 231.099609375 c 0
 340.900390625 228.099609375 340.75 227.349609375 340.75 223.25 c 0
 340.75 219.25 340.900390625 218.400390625 342.299804688 215.5 c 0
 347.25 205.150390625 359.799804688 198.950195312 375.75 198.950195312 c 0
 391.700195312 198.950195312 404.150390625 204.950195312 409.200195312 215.049804688 c 0
 411.349609375 219.349609375 411.849609375 223.150390625 410.75 227.25 c 0
 408.150390625 237.200195312 398.599609375 244.299804688 384.650390625 246.75 c 0
179.25 96.9501953125 m 0
 176.900390625 97.599609375 167.450195312 97.599609375 163.549804688 96.9501953125 c 0
 159.650390625 96.2998046875 152.200195312 93.7001953125 149 91.849609375 c 0
 145 89.599609375 140.950195312 85.349609375 138.950195312 81.25 c 0
 137.400390625 78.0498046875 137.25 77.400390625 137.25 73.25 c 0
 137.25 69.099609375 137.400390625 68.4501953125 138.950195312 65.25 c 0
 142.349609375 58.349609375 148.700195312 53.7001953125 158.75 50.75 c 0
 164 49.2001953125 175.200195312 48.4501953125 178.75 49.4501953125 c 0
 181.200195312 50.099609375 183 51.650390625 183 53.099609375 c 0
 183 55 181 58.400390625 177.900390625 61.7998046875 c 0
 170.599609375 69.900390625 170.599609375 76.4501953125 177.900390625 84.7001953125 c 0
 182.599609375 89.9501953125 184.099609375 93.849609375 182.150390625 95.599609375 c 0
 181.650390625 96.0498046875 180.349609375 96.650390625 179.25 96.9501953125 c 0
795.599609375 -214.099609375 m 1
 769.150390625 -202 l 1
 538.950195312 -202 l 1
 308.75 -202.049804688 l 1
 282.400390625 -214.150390625 l 1
 256.049804688 -226.25 l 1
 397.5 -226.400390625 l 2
 475.349609375 -226.450195312 602.700195312 -226.450195312 680.549804688 -226.400390625 c 2
 822.049804688 -226.25 l 1
 795.599609375 -214.099609375 l 1
EndSplineSet
EndChar

StartChar: o
Encoding: 111 111 16
Width: 1000
Flags: H
LayerCount: 2
Fore
SplineSet
492.75 315.150390625 m 0
 534.049804688 317.650390625 580.349609375 305.5 608 284.950195312 c 0
 616.849609375 278.349609375 626.400390625 268.150390625 632.650390625 258.5 c 0
 651.549804688 229.25 649.25 196.549804688 626.150390625 168 c 0
 622.549804688 163.549804688 614 155.150390625 609.75 151.950195312 c 0
 601.950195312 146 590.049804688 139.099609375 581.299804688 135.450195312 c 2
 577.349609375 133.799804688 l 1
 582.299804688 132.900390625 l 2
 592.950195312 130.950195312 611.599609375 126.799804688 619 124.75 c 0
 654.049804688 115.049804688 679.950195312 101.150390625 697.549804688 82.599609375 c 0
 709.349609375 70.150390625 714.549804688 59.599609375 716.25 44.650390625 c 2
 716.549804688 42 l 1
 650.049804688 42 l 1
 583.599609375 42 l 1
 584.049804688 40.150390625 l 2
 584.299804688 39.099609375 585.400390625 34.2001953125 586.549804688 29.25 c 0
 605 -51 645.849609375 -126 707.5 -192.75 c 2
 714.900390625 -200.75 l 1
 720.799804688 -202.200195312 l 2
 754.150390625 -210.299804688 788.150390625 -223.599609375 810.150390625 -237.150390625 c 0
 839.5 -255.299804688 856.400390625 -276.099609375 857.849609375 -295.849609375 c 2
 858.150390625 -300 l 1
 503.549804688 -300 l 1
 149 -300 l 1
 149 -297.799804688 l 2
 149 -296.599609375 149.299804688 -293.950195312 149.700195312 -291.900390625 c 0
 151.950195312 -280.200195312 157.400390625 -271 168.950195312 -259.450195312 c 0
 193.25 -235.150390625 232.200195312 -215.950195312 284 -202.75 c 2
 292.25 -200.650390625 l 1
 298.75 -193.700195312 l 1
 362.400390625 -125.200195312 404.150390625 -47.400390625 422.200195312 36.400390625 c 2
 423.400390625 42 l 1
 357.099609375 42 l 1
 290.849609375 42 l 1
 291.150390625 46.400390625 l 2
 292 58.9501953125 298.900390625 71.900390625 311.5 84.5 c 0
 333.75 106.849609375 365.799804688 120.950195312 417.799804688 131.450195312 c 2
 429.599609375 133.849609375 l 1
 424.049804688 136.25 l 2
 392.200195312 150 369.099609375 175.700195312 363.150390625 204 c 0
 360.849609375 215 361.549804688 227.900390625 365.099609375 238.950195312 c 0
 371.099609375 257.799804688 385.349609375 275.849609375 404.049804688 288.400390625 c 0
 426.099609375 303.150390625 459.349609375 313.200195312 492.75 315.150390625 c 0
551.5 265.049804688 m 0
 548.299804688 265.849609375 545.5 266.200195312 540.25 266.299804688 c 0
 532.549804688 266.400390625 532 266.349609375 526.25 264.950195312 c 0
 510.700195312 261.049804688 500.950195312 249.049804688 504.25 237.700195312 c 0
 506.75 229.049804688 513.549804688 223.25 525.299804688 219.700195312 c 0
 531.25 217.900390625 542.25 217.450195312 548.450195312 218.700195312 c 0
 561.900390625 221.450195312 570.799804688 227.950195312 573.549804688 237.099609375 c 0
 575 241.900390625 574.650390625 245.450195312 572.299804688 250.25 c 0
 568.849609375 257.200195312 561.450195312 262.450195312 551.5 265.049804688 c 0
EndSplineSet
EndChar

StartChar: p
Encoding: 112 112 17
Width: 1000
Flags: H
LayerCount: 2
Fore
SplineSet
492.75 315.150390625 m 0
 534.049804688 317.650390625 580.349609375 305.5 608 284.950195312 c 0
 616.849609375 278.349609375 626.400390625 268.150390625 632.650390625 258.5 c 0
 651.200195312 229.849609375 649.400390625 198.299804688 627.549804688 169.75 c 0
 624.150390625 165.25 615.799804688 156.849609375 611 153 c 0
 602.75 146.450195312 590.900390625 139.450195312 581.299804688 135.450195312 c 2
 577.349609375 133.799804688 l 1
 582.299804688 132.900390625 l 2
 592.950195312 130.950195312 611.599609375 126.799804688 619 124.75 c 0
 653.900390625 115.049804688 680 101.099609375 697.549804688 82.599609375 c 0
 709.349609375 70.150390625 714.549804688 59.599609375 716.25 44.650390625 c 2
 716.549804688 42 l 1
 650.049804688 42 l 1
 583.599609375 42 l 1
 584.049804688 40.150390625 l 2
 584.299804688 39.099609375 585.400390625 34.2001953125 586.549804688 29.25 c 0
 605 -51 645.75 -125.799804688 707.5 -192.75 c 2
 714.849609375 -200.75 l 1
 718.799804688 -201.700195312 l 2
 743.049804688 -207.400390625 770.75 -217 790.25 -226.450195312 c 0
 831.599609375 -246.5 856.049804688 -271.599609375 857.849609375 -295.849609375 c 2
 858.150390625 -300 l 1
 503.549804688 -300 l 1
 149 -300 l 1
 149 -297.799804688 l 2
 149 -296.599609375 149.299804688 -293.950195312 149.700195312 -291.900390625 c 0
 151.950195312 -280.200195312 157.400390625 -271 168.950195312 -259.450195312 c 0
 193.25 -235.150390625 232.200195312 -215.950195312 284 -202.75 c 2
 292.25 -200.650390625 l 1
 298.75 -193.700195312 l 1
 362.400390625 -125.200195312 404.150390625 -47.400390625 422.200195312 36.400390625 c 2
 423.400390625 42 l 1
 357.099609375 42 l 1
 290.849609375 42 l 1
 291.150390625 46.400390625 l 2
 292 58.9501953125 298.900390625 71.900390625 311.5 84.5 c 0
 333.75 106.849609375 365.799804688 120.950195312 417.799804688 131.450195312 c 2
 429.599609375 133.849609375 l 1
 424.049804688 136.25 l 2
 392.200195312 150 369.099609375 175.700195312 363.150390625 204 c 0
 360.849609375 215 361.549804688 227.900390625 365.099609375 238.950195312 c 0
 371.099609375 257.799804688 385.349609375 275.849609375 404.049804688 288.400390625 c 0
 426.099609375 303.150390625 459.349609375 313.200195312 492.75 315.150390625 c 0
516 290.5 m 0
 509.349609375 291.049804688 496.849609375 291.049804688 490 290.450195312 c 0
 468.200195312 288.549804688 443.75 280.650390625 429 270.75 c 0
 410.950195312 258.599609375 399.5 241.25 397.5 223 c 0
 395.450195312 204.349609375 404.700195312 184.299804688 422 170 c 0
 443.549804688 152.150390625 480.650390625 142.25 515.549804688 145.049804688 c 0
 548 147.599609375 578.200195312 160.349609375 593.349609375 177.849609375 c 0
 613.599609375 201.25 615.299804688 227.5 598.099609375 251.75 c 0
 594.25 257.099609375 586.299804688 265 580.5 269.150390625 c 0
 564.900390625 280.25 540.200195312 288.400390625 516 290.5 c 0
533.5 114.5 m 0
 523 115.049804688 482.799804688 115.049804688 472.25 114.450195312 c 0
 439.75 112.650390625 409.700195312 107.75 389.349609375 100.950195312 c 0
 365.400390625 92.900390625 349.349609375 80.5 347.700195312 68.900390625 c 2
 347.400390625 66.5 l 1
 503.5 66.5 l 1
 659.650390625 66.5 l 1
 659.299804688 68.849609375 l 2
 657.549804688 81.75 638.049804688 95.4501953125 610.25 103.25 c 0
 589.650390625 109.049804688 563.799804688 112.849609375 533.5 114.5 c 0
555.650390625 34.650390625 m 2
 555.349609375 42 l 1
 503.700195312 42 l 1
 452 42 l 1
 451.799804688 40.900390625 l 2
 451.650390625 40.25 451.450195312 36.849609375 451.299804688 33.25 c 0
 450.5 12.4501953125 443.200195312 -15.349609375 431 -44 c 0
 422 -65.0498046875 408.799804688 -90.099609375 393.400390625 -115.099609375 c 0
 382.049804688 -133.599609375 360.700195312 -164.75 346.700195312 -183.400390625 c 0
 344.099609375 -186.849609375 342.049804688 -189.700195312 342.099609375 -189.799804688 c 0
 342.200195312 -189.849609375 345.200195312 -189.599609375 348.75 -189.200195312 c 0
 382.200195312 -185.5 426.349609375 -181.599609375 456.5 -179.75 c 0
 516.75 -176.049804688 572.700195312 -177.75 630.75 -185.049804688 c 0
 644.049804688 -186.700195312 662.75 -189.400390625 664.200195312 -189.799804688 c 0
 665.400390625 -190.200195312 665.799804688 -190.849609375 656.25 -177.75 c 0
 605.349609375 -108.349609375 573.900390625 -49.900390625 561.549804688 -1.9501953125 c 0
 557.849609375 12.4501953125 556.099609375 23.150390625 555.650390625 34.650390625 c 2
531.450195312 -202.5 m 0
 423.549804688 -200.099609375 334.799804688 -210.200195312 268 -232.450195312 c 0
 227.900390625 -245.849609375 208.150390625 -258.900390625 205.75 -273.599609375 c 2
 205.450195312 -275.5 l 1
 503.5 -275.5 l 2
 795.650390625 -275.5 801.5 -275.5 801.5 -274.549804688 c 0
 801.5 -274.049804688 801.049804688 -272.150390625 800.5 -270.349609375 c 0
 796.549804688 -257.549804688 776.900390625 -245.25 740.75 -233 c 0
 703.849609375 -220.5 658.849609375 -211.549804688 608.950195312 -206.799804688 c 0
 583.299804688 -204.349609375 562.400390625 -203.200195312 531.450195312 -202.5 c 0
EndSplineSet
EndChar

StartChar: q
Encoding: 113 113 18
Width: 1000
Flags: H
LayerCount: 2
Fore
SplineSet
496.25 383.450195312 m 0
 499.299804688 383.700195312 502 383.900390625 502.25 383.900390625 c 0
 503.700195312 384.099609375 517.400390625 382.900390625 521.25 382.25 c 0
 535.650390625 379.799804688 549.950195312 373.650390625 558.650390625 366.150390625 c 0
 565.25 360.5 570.599609375 352.450195312 573.049804688 344.5 c 0
 574.700195312 339.150390625 574.700195312 330.799804688 573.049804688 325.5 c 0
 568.349609375 310.349609375 556.650390625 299.099609375 538.349609375 292.299804688 c 0
 531.650390625 289.799804688 523.349609375 287.75 516.299804688 286.849609375 c 0
 513.049804688 286.400390625 510.299804688 286 510.200195312 285.900390625 c 0
 510.099609375 285.799804688 522.099609375 239.75 536.900390625 183.599609375 c 0
 551.650390625 127.450195312 563.900390625 81.7001953125 564.099609375 81.900390625 c 0
 564.650390625 82.4501953125 672 282.5 672 282.950195312 c 0
 672 283.200195312 670.650390625 283.650390625 669 283.950195312 c 0
 657.099609375 286.299804688 641.450195312 293.950195312 633.5 301.349609375 c 0
 627.450195312 307 622.5 315.25 620.75 322.599609375 c 0
 619.150390625 329.5 620.25 338.200195312 623.75 345.799804688 c 0
 630.299804688 360.099609375 645.75 371.599609375 664.900390625 376.450195312 c 0
 683.849609375 381.25 708.799804688 379.75 726.549804688 372.75 c 0
 744.299804688 365.75 755.549804688 355.5 759.799804688 342.5 c 0
 761.099609375 338.599609375 761.200195312 337.599609375 761.200195312 330.25 c 0
 761.25 322.400390625 761.200195312 322.150390625 759.700195312 318.400390625 c 0
 756.450195312 310.400390625 748.650390625 301 740.75 295.5 c 0
 729.200195312 287.549804688 714.049804688 283.099609375 694.700195312 281.950195312 c 0
 689.5 281.650390625 685.200195312 281.349609375 685.150390625 281.299804688 c 0
 685.049804688 281.200195312 686.450195312 97.650390625 686.599609375 94.900390625 c 2
 686.75 92.5498046875 l 1
 756 174.599609375 l 2
 794.099609375 219.700195312 828.349609375 260.299804688 832.099609375 264.75 c 2
 838.950195312 272.849609375 l 1
 835.349609375 274.25 l 2
 818.450195312 280.799804688 805.549804688 291.849609375 800.950195312 303.700195312 c 0
 798 311.349609375 797.849609375 320.150390625 800.549804688 328.150390625 c 0
 801.349609375 330.599609375 802.599609375 333.650390625 803.349609375 334.900390625 c 0
 811.75 349.5 828.5 360.25 849.349609375 364.549804688 c 0
 855.700195312 365.849609375 873.599609375 366.400390625 880.849609375 365.549804688 c 0
 905.950195312 362.450195312 927.25 350.799804688 935.849609375 335.599609375 c 0
 939.049804688 329.900390625 940.150390625 325.599609375 940.150390625 318.5 c 0
 940.200195312 311.650390625 939.5 308.25 937 302.700195312 c 0
 930.150390625 287.599609375 911.700195312 274.650390625 891.099609375 270.549804688 c 0
 880.599609375 268.450195312 865.299804688 268 854.799804688 269.5 c 0
 852.900390625 269.799804688 851.25 269.950195312 851.150390625 269.849609375 c 0
 851.049804688 269.75 837.549804688 215.349609375 821.099609375 148.950195312 c 2
 791.25 28.25 l 1
 791 -89.4501953125 l 1
 790.75 -207.200195312 l 1
 785 -212.400390625 l 2
 766.900390625 -228.799804688 747.450195312 -242.099609375 723.75 -254.299804688 c 0
 708.450195312 -262.150390625 696.799804688 -267.150390625 676.5 -274.5 c 0
 629 -291.75 580.75 -301.400390625 528.799804688 -304.049804688 c 0
 507.400390625 -305.150390625 472.099609375 -304.200195312 450.75 -302 c 0
 407.200195312 -297.5 364.349609375 -287.450195312 323.75 -272.25 c 0
 281.650390625 -256.450195312 249.599609375 -237.450195312 220.650390625 -211.099609375 c 2
 216.5 -207.349609375 l 1
 216.5 -91.349609375 l 1
 216.5 24.599609375 l 1
 186.75 145.450195312 l 2
 170.349609375 211.900390625 156.75 267.099609375 156.450195312 268.200195312 c 0
 156 269.900390625 155.799804688 270.099609375 154.599609375 269.799804688 c 0
 153.849609375 269.650390625 149.5 269.25 144.900390625 268.900390625 c 0
 122.950195312 267.299804688 104.200195312 271.599609375 88.7998046875 281.849609375 c 0
 76.2998046875 290.150390625 68.599609375 301.349609375 67 313.650390625 c 0
 65.5 324.75 69.099609375 334.950195312 77.5498046875 343.75 c 0
 88.5 355.150390625 105 362.700195312 124.75 365.299804688 c 0
 133.900390625 366.5 150.650390625 366.049804688 158.799804688 364.299804688 c 0
 193.75 356.900390625 214.849609375 331.150390625 206.799804688 305.700195312 c 0
 205 300.049804688 202.400390625 295.950195312 197.299804688 290.650390625 c 0
 190.900390625 283.950195312 181.400390625 277.849609375 171.75 274.25 c 0
 170.099609375 273.599609375 168.75 272.900390625 168.75 272.650390625 c 0
 168.75 272.150390625 320.150390625 92.5498046875 320.400390625 92.75 c 0
 320.5 92.849609375 321.950195312 260.299804688 322 277.549804688 c 2
 322 281.400390625 l 1
 315.150390625 281.75 l 2
 305.950195312 282.200195312 300.900390625 282.799804688 294 284.299804688 c 0
 278.900390625 287.599609375 268.599609375 292.599609375 259.950195312 300.849609375 c 0
 252.900390625 307.599609375 248.049804688 315.099609375 246.25 322.25 c 0
 244 331.049804688 246.700195312 343.599609375 252.75 352.700195312 c 0
 260.099609375 363.799804688 277.25 373.549804688 295.75 377.150390625 c 0
 307.349609375 379.450195312 321.799804688 379.900390625 332.5 378.349609375 c 0
 358.849609375 374.5 378.5 360.700195312 385.099609375 341.5 c 0
 386.599609375 337.049804688 386.700195312 336.299804688 386.700195312 329.75 c 0
 386.75 323.349609375 386.650390625 322.400390625 385.299804688 318.299804688 c 0
 381.650390625 307.200195312 372.299804688 298 357.200195312 290.700195312 c 0
 351.349609375 287.849609375 343.299804688 285 338.049804688 283.950195312 c 0
 335.650390625 283.450195312 335.049804688 283.150390625 335.25 282.5 c 0
 335.549804688 281.799804688 437.549804688 91.5 441.349609375 84.599609375 c 0
 442.349609375 82.849609375 443.200195312 81.5 443.299804688 81.599609375 c 0
 443.349609375 81.7001953125 455.5 127.650390625 470.25 183.700195312 c 0
 488.75 254.150390625 496.849609375 285.75 496.5 286 c 0
 496.150390625 286.200195312 494.25 286.5 492.25 286.650390625 c 0
 483.450195312 287.400390625 470.150390625 291.150390625 461.700195312 295.25 c 0
 447.200195312 302.25 437.299804688 313.299804688 433.700195312 326.549804688 c 0
 432.549804688 330.799804688 432.549804688 339.099609375 433.700195312 343.450195312 c 0
 437.099609375 356.099609375 447.150390625 367.450195312 460.950195312 374.25 c 0
 471.200195312 379.349609375 483.650390625 382.599609375 496.25 383.450195312 c 0
513.799804688 358.299804688 m 0
 510.25 359.049804688 501.400390625 359.599609375 498.75 359.200195312 c 0
 481.650390625 356.799804688 471.549804688 350 468.700195312 339 c 0
 465.799804688 327.549804688 475 316.349609375 490.900390625 312.150390625 c 0
 495.150390625 311 496.75 310.849609375 503.5 310.849609375 c 0
 510.25 310.849609375 511.900390625 311 516.049804688 312.150390625 c 0
 526.400390625 314.900390625 533.400390625 319.799804688 536.849609375 326.900390625 c 0
 538.599609375 330.400390625 538.75 331.049804688 538.75 334.950195312 c 0
 538.75 338.75 538.549804688 339.650390625 537.150390625 342.650390625 c 0
 533.5 350.349609375 525.299804688 355.849609375 513.799804688 358.299804688 c 0
328.25 353.5 m 0
 301.299804688 359.549804688 276.299804688 344.599609375 281.75 325.700195312 c 0
 286.049804688 310.650390625 307.849609375 302.5 329.150390625 307.950195312 c 0
 342.950195312 311.5 351.650390625 320.299804688 351.599609375 330.700195312 c 0
 351.549804688 340.950195312 341.799804688 350.450195312 328.25 353.5 c 0
698.599609375 354.25 m 0
 671.75 358.299804688 649.75 341.950195312 656.950195312 323.349609375 c 0
 658.25 320 662.299804688 315.400390625 665.900390625 313.049804688 c 0
 671.400390625 309.549804688 678.400390625 307.400390625 687.349609375 306.450195312 c 0
 692.200195312 305.950195312 693.700195312 306 698.099609375 306.75 c 0
 708.349609375 308.450195312 714.450195312 311.200195312 719.799804688 316.5 c 0
 723.849609375 320.5 725.650390625 324.5 725.900390625 330 c 0
 726.25 336.900390625 725.299804688 339.299804688 720.599609375 344 c 0
 714.799804688 349.75 708.150390625 352.799804688 698.599609375 354.25 c 0
148.450195312 340.450195312 m 0
 134.150390625 343.299804688 122 341.099609375 111.799804688 333.799804688 c 0
 106.25 329.849609375 103.549804688 325.799804688 102.450195312 319.950195312 c 0
 101.950195312 317.25 102 316.25 102.700195312 313.5 c 0
 104.099609375 308 108.299804688 302.849609375 114.700195312 298.75 c 0
 123.099609375 293.349609375 135.049804688 291.299804688 145.400390625 293.450195312 c 0
 160.200195312 296.5 169.349609375 302.75 172.549804688 311.900390625 c 0
 174.5 317.349609375 173.700195312 321.549804688 169.700195312 327.599609375 c 0
 165.650390625 333.700195312 157.349609375 338.700195312 148.450195312 340.450195312 c 0
879.400390625 340.700195312 m 0
 867.049804688 343.099609375 853.200195312 340.700195312 844.400390625 334.599609375 c 0
 838.150390625 330.299804688 833.5 322.849609375 833.5 317.299804688 c 0
 833.549804688 308.349609375 840.950195312 300.150390625 852.900390625 295.849609375 c 0
 857.650390625 294.099609375 865.650390625 292.5 869.400390625 292.5 c 0
 876.950195312 292.5 885.400390625 294.599609375 891 297.849609375 c 0
 895.5 300.5 901.650390625 306.650390625 903.200195312 310.049804688 c 0
 906.450195312 317.150390625 904.700195312 325.25 898.650390625 331.099609375 c 0
 894.25 335.299804688 886 339.450195312 879.400390625 340.700195312 c 0
542.549804688 64.900390625 m 2
 540.349609375 65.25 l 1
 522.049804688 138.75 l 2
 511.950195312 179.200195312 503.599609375 212.049804688 503.450195312 211.75 c 0
 503.299804688 211.5 495 178.5 485 138.5 c 0
 475.049804688 98.5 466.700195312 65.599609375 466.5 65.349609375 c 0
 466.349609375 65.150390625 461.150390625 64.5498046875 454.950195312 63.9501953125 c 0
 448.799804688 63.400390625 439.5 62.400390625 434.25 61.75 c 0
 429.049804688 61.099609375 424.75 60.599609375 424.700195312 60.650390625 c 0
 424.700195312 60.7001953125 407.25 94.25 385.950195312 135.200195312 c 2
 347.25 209.599609375 l 1
 347.099609375 201.450195312 l 2
 347 196.950195312 347.200195312 166.5 347.450195312 133.75 c 0
 347.75 101.049804688 348 67.099609375 348 58.400390625 c 2
 348 42.5498046875 l 1
 345.900390625 42 l 2
 343.150390625 41.2998046875 338.75 39.7998046875 336.5 38.849609375 c 2
 334.75 38.099609375 l 1
 267 120 l 2
 229.75 165 199.200195312 201.700195312 199.099609375 201.5 c 0
 199.049804688 201.299804688 210.900390625 155.799804688 225.5 100.400390625 c 2
 252 -0.349609375 l 1
 252 -28.150390625 l 1
 252 -55.9501953125 l 1
 258.400390625 -51.7998046875 l 2
 279.950195312 -37.7001953125 307.25 -24.7001953125 335.799804688 -15 c 0
 373.349609375 -2.25 410.700195312 5.900390625 450.25 10 c 0
 480.650390625 13.150390625 520.400390625 13.349609375 551.75 10.4501953125 c 0
 625.349609375 3.75 699.349609375 -19.75 749.400390625 -52.2998046875 c 0
 752.5 -54.349609375 755.150390625 -56 755.299804688 -56 c 0
 755.400390625 -56 755.5 -43.150390625 755.5 -27.4501953125 c 2
 755.5 1.150390625 l 1
 781.25 99.2001953125 l 2
 795.450195312 153.099609375 807.349609375 198.349609375 807.700195312 199.650390625 c 0
 808.25 201.5 808.25 201.900390625 807.799804688 201.5 c 0
 807.450195312 201.25 776.849609375 164.349609375 739.75 119.599609375 c 2
 672.400390625 38.150390625 l 1
 669.049804688 39.5 l 2
 667.200195312 40.2998046875 664.400390625 41.150390625 662.849609375 41.5 c 0
 661.349609375 41.849609375 659.799804688 42.2998046875 659.5 42.5 c 0
 659 42.7998046875 659 59.849609375 659.450195312 120.049804688 c 0
 659.75 162.5 660.099609375 200.150390625 660.200195312 203.700195312 c 0
 660.349609375 207.25 660.25 209.950195312 660.049804688 209.700195312 c 0
 659.799804688 209.450195312 642.25 175.849609375 621 135 c 0
 599.75 94.150390625 582.349609375 60.7001953125 582.299804688 60.650390625 c 0
 582.25 60.599609375 578.049804688 61.0498046875 573 61.75 c 0
 567.900390625 62.400390625 559.5 63.2998046875 554.25 63.75 c 0
 549.049804688 64.2001953125 543.75 64.7001953125 542.549804688 64.900390625 c 2
556.25 -20.0498046875 m 0
 527.349609375 -10.150390625 503.5 -2.0498046875 503.25 -2.0498046875 c 0
 502.950195312 -2.099609375 488.700195312 -7 471.5 -12.9501953125 c 0
 454.299804688 -18.900390625 431.150390625 -26.900390625 420 -30.7001953125 c 0
 408.849609375 -34.5498046875 399.200195312 -37.900390625 398.5 -38.150390625 c 0
 397.400390625 -38.5498046875 398.150390625 -38.900390625 404.400390625 -41.0498046875 c 0
 408.299804688 -42.400390625 432.150390625 -50.599609375 457.349609375 -59.25 c 0
 482.549804688 -67.9501953125 503.599609375 -75 504.049804688 -74.900390625 c 0
 506.25 -74.5498046875 609.400390625 -38.7001953125 609.099609375 -38.4501953125 c 0
 608.900390625 -38.25 585.099609375 -30 556.25 -20.0498046875 c 0
279.650390625 -87.5498046875 m 0
 266.200195312 -86.099609375 254.5 -84.75 253.650390625 -84.599609375 c 2
 252 -84.349609375 l 1
 252 -102.650390625 l 1
 252 -120.950195312 l 1
 262.650390625 -114.799804688 l 2
 297.200195312 -94.849609375 304 -90.849609375 304 -90.5498046875 c 0
 304 -90.349609375 293.049804688 -89 279.650390625 -87.5498046875 c 0
755.5 -102.799804688 m 2
 755.5 -84.5 l 1
 754.400390625 -84.5498046875 l 2
 750.599609375 -84.75 703 -90.25 703 -90.5 c 0
 703 -90.75 752.200195312 -119.349609375 755.150390625 -120.849609375 c 0
 755.349609375 -120.950195312 755.5 -112.849609375 755.5 -102.799804688 c 2
537 -86 m 0
 529.799804688 -85.4501953125 489.25 -84.9501953125 484 -85.2998046875 c 0
 482.5 -85.400390625 476.849609375 -85.7001953125 471.5 -86 c 0
 427.349609375 -88.4501953125 382.299804688 -97.150390625 338.75 -111.75 c 0
 307.5 -122.200195312 281.650390625 -134.349609375 258.299804688 -149.5 c 2
 252 -153.599609375 l 1
 252 -165.75 l 1
 252 -177.950195312 l 1
 258.900390625 -173.549804688 l 2
 285.75 -156.25 317.25 -142.200195312 353.25 -131.450195312 c 0
 391.150390625 -120.099609375 427.549804688 -113.5 468.75 -110.5 c 0
 489.200195312 -109 525.900390625 -109.349609375 548.25 -111.299804688 c 0
 623.400390625 -117.75 696.700195312 -140.650390625 748.900390625 -174.049804688 c 0
 752.299804688 -176.25 755.150390625 -178 755.299804688 -178 c 0
 755.400390625 -178 755.5 -172.599609375 755.5 -166 c 2
 755.5 -154.049804688 l 1
 751.150390625 -151.099609375 l 2
 733.849609375 -139.549804688 709.75 -127.400390625 685.25 -117.900390625 c 0
 681.700195312 -116.5 673.150390625 -113.5 666.25 -111.200195312 c 0
 623.75 -97.0498046875 584.150390625 -89.2998046875 537 -86 c 0
530.299804688 -134.5 m 0
 522.450195312 -134.049804688 486.400390625 -133.950195312 479.75 -134.349609375 c 0
 453.200195312 -135.900390625 436.150390625 -137.849609375 414.5 -141.799804688 c 0
 388.799804688 -146.450195312 367.049804688 -152.200195312 341 -161.099609375 c 0
 312 -171.049804688 286.799804688 -183.349609375 263.75 -198.799804688 c 0
 251.799804688 -206.799804688 251.599609375 -206.950195312 252.299804688 -207.400390625 c 0
 252.549804688 -207.599609375 255.049804688 -209.349609375 257.75 -211.299804688 c 0
 302.5 -243.299804688 369.200195312 -267.099609375 439.75 -276.200195312 c 0
 475.549804688 -280.849609375 517.5 -281.400390625 554.25 -277.700195312 c 0
 616.549804688 -271.450195312 679.599609375 -252.349609375 726.75 -225.450195312 c 0
 734.849609375 -220.849609375 755 -207.75 755 -207.099609375 c 0
 755 -206.599609375 745.650390625 -200.150390625 738.150390625 -195.400390625 c 0
 704 -174 661.599609375 -157.200195312 614.400390625 -146.299804688 c 0
 586.950195312 -139.950195312 560.25 -136.200195312 530.299804688 -134.5 c 0
EndSplineSet
EndChar

StartChar: r
Encoding: 114 114 19
Width: 1000
Flags: H
LayerCount: 2
Fore
SplineSet
432.849609375 383.650390625 m 0
 433 383.849609375 464.950195312 384 503.849609375 384 c 2
 574.5 384 l 1
 574.5 347.25 l 1
 574.5 310.5 l 1
 627.75 310.5 l 1
 681 310.5 l 1
 681 347 l 2
 681 375.400390625 681.150390625 383.5 681.599609375 383.5 c 0
 682.150390625 383.5 779 361.349609375 784.900390625 359.900390625 c 2
 787 359.400390625 l 1
 787 298.25 l 1
 787 237.150390625 l 1
 762.150390625 225.75 l 2
 748.450195312 219.5 731.75 211.799804688 725 208.700195312 c 0
 718.25 205.599609375 705.650390625 199.849609375 697 195.849609375 c 2
 681.25 188.650390625 l 1
 681.099609375 29.849609375 l 1
 681 -128.900390625 l 1
 683.099609375 -129.650390625 l 2
 689.200195312 -131.75 719.849609375 -142.299804688 734.75 -147.450195312 c 2
 751.75 -153.25 l 1
 751.900390625 -165.549804688 l 1
 752 -177.799804688 l 1
 804.900390625 -202.099609375 l 1
 857.75 -226.349609375 l 1
 857.900390625 -263.150390625 l 1
 858 -300 l 1
 503.5 -300 l 1
 149 -300 l 1
 149.099609375 -263.200195312 l 1
 149.25 -226.400390625 l 1
 201.75 -202.299804688 l 2
 230.650390625 -189.049804688 254.549804688 -178.049804688 254.900390625 -177.849609375 c 0
 255.349609375 -177.549804688 255.5 -174.5 255.5 -165.349609375 c 2
 255.5 -153.25 l 1
 288.150390625 -142.049804688 l 2
 306.049804688 -135.900390625 321.950195312 -130.400390625 323.400390625 -129.900390625 c 2
 326 -128.950195312 l 1
 325.900390625 29.900390625 l 1
 325.75 188.700195312 l 1
 272.900390625 212.950195312 l 1
 220 237.25 l 1
 220 298.349609375 l 2
 220 332 220.099609375 359.5 220.200195312 359.5 c 0
 220.349609375 359.5 243.950195312 364.900390625 272.700195312 371.5 c 0
 301.450195312 378.099609375 325.200195312 383.5 325.5 383.5 c 0
 325.799804688 383.5 326.049804688 371.099609375 326.099609375 347.150390625 c 2
 326.25 310.75 l 1
 379.400390625 310.599609375 l 1
 432.5 310.5 l 1
 432.5 346.900390625 l 2
 432.5 366.950195312 432.650390625 383.5 432.849609375 383.650390625 c 0
539 322.75 m 1
 539 359.5 l 1
 503.5 359.5 l 1
 468 359.5 l 1
 468 322.75 l 1
 468 286 l 1
 379.5 286 l 1
 291 286 l 1
 291 317.75 l 2
 291 335.200195312 290.849609375 349.5 290.700195312 349.5 c 0
 290.549804688 349.5 282.650390625 347.349609375 273.200195312 344.75 c 0
 263.75 342.150390625 255.900390625 340 255.75 340 c 0
 255.599609375 340 255.5 322.349609375 255.5 300.75 c 2
 255.5 261.5 l 1
 503.650390625 261.599609375 l 1
 751.75 261.75 l 1
 751.900390625 300.650390625 l 1
 752 339.5 l 1
 750.900390625 340 l 2
 750.25 340.25 742.650390625 342.400390625 734 344.75 c 0
 725.349609375 347.099609375 717.849609375 349.150390625 717.400390625 349.299804688 c 0
 716.549804688 349.549804688 716.5 347.75 716.400390625 317.900390625 c 2
 716.25 286.25 l 1
 627.650390625 286.099609375 l 1
 539 286 l 1
 539 322.75 l 1
715.200195312 237.049804688 m 0
 715.5 237.299804688 633.049804688 237.5 503.5 237.5 c 0
 380.599609375 237.5 291.5 237.299804688 291.799804688 237.049804688 c 0
 292.049804688 236.799804688 303.849609375 231.299804688 318.049804688 224.799804688 c 2
 343.799804688 213 l 1
 503.599609375 213 l 1
 663.349609375 213 l 1
 689.049804688 224.799804688 l 2
 703.200195312 231.25 714.950195312 236.799804688 715.200195312 237.049804688 c 0
645.5 36 m 1
 645.5 188.5 l 1
 503.5 188.5 l 1
 361.5 188.5 l 1
 361.5 36 l 1
 361.5 -116.5 l 1
 503.5 -116.5 l 1
 645.5 -116.5 l 1
 645.5 36 l 1
677.900390625 -152.299804688 m 2
 645.049804688 -141 l 1
 503.400390625 -141.049804688 l 1
 361.75 -141.049804688 l 1
 326.5 -153.200195312 l 1
 291.25 -165.400390625 l 1
 291.099609375 -171.450195312 l 1
 290.950195312 -177.5 l 1
 503.75 -177.5 l 1
 716.5 -177.5 l 1
 716.5 -171.549804688 l 1
 716.5 -165.599609375 l 1
 713.650390625 -164.599609375 l 2
 712.049804688 -164.049804688 695.950195312 -158.549804688 677.900390625 -152.299804688 c 2
760.150390625 -214.099609375 m 1
 733.75 -202 l 1
 503.5 -202 l 1
 273.25 -202.049804688 l 1
 246.900390625 -214.150390625 l 1
 220.599609375 -226.25 l 1
 362.049804688 -226.400390625 l 2
 439.849609375 -226.450195312 567.200195312 -226.450195312 645.049804688 -226.400390625 c 2
 786.599609375 -226.25 l 1
 760.150390625 -214.099609375 l 1
822.5 -263.25 m 1
 822.5 -251 l 1
 503.5 -251 l 1
 184.5 -251 l 1
 184.5 -263.25 l 1
 184.5 -275.5 l 1
 503.5 -275.5 l 1
 822.5 -275.5 l 1
 822.5 -263.25 l 1
EndSplineSet
EndChar

StartChar: t
Encoding: 116 116 20
Width: 1000
Flags: H
LayerCount: 2
Fore
SplineSet
432.849609375 383.650390625 m 0
 433 383.849609375 464.950195312 384 503.849609375 384 c 2
 574.5 384 l 1
 574.5 347.25 l 1
 574.5 310.5 l 1
 627.75 310.5 l 1
 681 310.5 l 1
 681 347 l 2
 681 375.400390625 681.150390625 383.5 681.599609375 383.5 c 0
 682.150390625 383.5 779 361.349609375 784.900390625 359.900390625 c 2
 787 359.400390625 l 1
 787 298.25 l 1
 787 237.150390625 l 1
 762.150390625 225.75 l 2
 748.450195312 219.5 731.75 211.799804688 725 208.700195312 c 0
 718.25 205.599609375 705.650390625 199.849609375 697 195.849609375 c 2
 681.25 188.650390625 l 1
 681.099609375 29.849609375 l 1
 681 -128.900390625 l 1
 683.099609375 -129.650390625 l 2
 689.200195312 -131.75 719.849609375 -142.299804688 734.75 -147.450195312 c 2
 751.75 -153.25 l 1
 751.900390625 -165.549804688 l 1
 752 -177.799804688 l 1
 804.900390625 -202.099609375 l 1
 857.75 -226.349609375 l 1
 857.900390625 -263.150390625 l 1
 858 -300 l 1
 503.5 -300 l 1
 149 -300 l 1
 149.099609375 -263.200195312 l 1
 149.25 -226.400390625 l 1
 201.75 -202.299804688 l 2
 230.650390625 -189.049804688 254.549804688 -178.049804688 254.900390625 -177.849609375 c 0
 255.349609375 -177.549804688 255.5 -174.5 255.5 -165.349609375 c 2
 255.5 -153.25 l 1
 288.150390625 -142.049804688 l 2
 306.049804688 -135.900390625 321.950195312 -130.400390625 323.400390625 -129.900390625 c 2
 326 -128.950195312 l 1
 325.900390625 29.900390625 l 1
 325.75 188.700195312 l 1
 272.900390625 212.950195312 l 1
 220 237.25 l 1
 220 298.349609375 l 2
 220 332 220.099609375 359.5 220.200195312 359.5 c 0
 220.349609375 359.5 243.950195312 364.900390625 272.700195312 371.5 c 0
 301.450195312 378.099609375 325.200195312 383.5 325.5 383.5 c 0
 325.799804688 383.5 326.049804688 371.099609375 326.099609375 347.150390625 c 2
 326.25 310.75 l 1
 379.400390625 310.599609375 l 1
 432.5 310.5 l 1
 432.5 346.900390625 l 2
 432.5 366.950195312 432.650390625 383.5 432.849609375 383.650390625 c 0
715.200195312 237.049804688 m 0
 715.5 237.299804688 633.049804688 237.5 503.5 237.5 c 0
 380.599609375 237.5 291.5 237.299804688 291.799804688 237.049804688 c 0
 292.049804688 236.799804688 303.849609375 231.299804688 318.049804688 224.799804688 c 2
 343.799804688 213 l 1
 503.599609375 213 l 1
 663.349609375 213 l 1
 689.049804688 224.799804688 l 2
 703.200195312 231.25 714.950195312 236.799804688 715.200195312 237.049804688 c 0
645.5 36 m 1
 645.5 188.5 l 1
 627.75 188.5 l 1
 610 188.5 l 1
 610 36 l 1
 610 -116.5 l 1
 627.75 -116.5 l 1
 645.5 -116.5 l 1
 645.5 36 l 1
677.900390625 -152.299804688 m 2
 645.049804688 -141 l 1
 503.400390625 -141.049804688 l 1
 361.75 -141.049804688 l 1
 326.5 -153.200195312 l 1
 291.25 -165.400390625 l 1
 291.099609375 -171.450195312 l 1
 290.950195312 -177.5 l 1
 503.75 -177.5 l 1
 716.5 -177.5 l 1
 716.5 -171.549804688 l 1
 716.5 -165.599609375 l 1
 713.650390625 -164.599609375 l 2
 712.049804688 -164.049804688 695.950195312 -158.549804688 677.900390625 -152.299804688 c 2
760.150390625 -214.099609375 m 1
 733.75 -202 l 1
 503.5 -202 l 1
 273.25 -202.049804688 l 1
 246.900390625 -214.150390625 l 1
 220.599609375 -226.25 l 1
 362.049804688 -226.400390625 l 2
 439.849609375 -226.450195312 567.200195312 -226.450195312 645.049804688 -226.400390625 c 2
 786.599609375 -226.25 l 1
 760.150390625 -214.099609375 l 1
EndSplineSet
EndChar

StartChar: v
Encoding: 118 118 21
Width: 1000
Flags: H
LayerCount: 2
Fore
SplineSet
487.900390625 387.75 m 0
 495.400390625 388.650390625 510.900390625 388.650390625 518.700195312 387.75 c 0
 532.799804688 386.099609375 545.450195312 382.599609375 556.849609375 377.200195312 c 0
 575.150390625 368.5 588.599609375 352.25 591.549804688 335.099609375 c 0
 592.400390625 330.349609375 591.849609375 320.099609375 590.5 315.549804688 c 0
 585.75 299 572.400390625 284.700195312 554.650390625 277 c 0
 552.400390625 276.049804688 550.599609375 275.049804688 550.650390625 274.75 c 0
 550.700195312 274.5 556.25 270.700195312 563 266.349609375 c 0
 606 238.5 642.650390625 211.25 671.75 185.549804688 c 0
 680.450195312 177.900390625 704.099609375 154.200195312 710.200195312 147 c 0
 738.099609375 114.349609375 751.450195312 86.099609375 751.599609375 59.75 c 0
 751.650390625 42.4501953125 746.950195312 28.400390625 736 12.900390625 c 0
 732.299804688 7.650390625 722.799804688 -2.400390625 716.5 -7.75 c 0
 700.099609375 -21.650390625 676.799804688 -35.099609375 649.099609375 -46.5498046875 c 0
 645.049804688 -48.25 641.650390625 -49.7001953125 641.549804688 -49.7998046875 c 0
 641.450195312 -49.849609375 642.75 -51.2001953125 644.450195312 -52.7998046875 c 2
 647.5 -55.599609375 l 1
 647.5 -86.25 l 1
 647.5 -116.849609375 l 1
 644 -120 l 2
 628.400390625 -133.799804688 608.25 -144.599609375 581.150390625 -153.650390625 c 0
 576.950195312 -155.049804688 573.5 -156.400390625 573.5 -156.650390625 c 0
 573.5 -157.450195312 588.650390625 -172.200195312 593 -175.700195312 c 0
 620.450195312 -197.400390625 651.950195312 -207.349609375 690 -206.349609375 c 0
 701.5 -206.049804688 710.049804688 -205.150390625 721.25 -203.200195312 c 0
 731.299804688 -201.450195312 734.849609375 -201.099609375 747.849609375 -200.5 c 0
 796.200195312 -198.400390625 839.799804688 -208.450195312 870.150390625 -228.700195312 c 0
 894.900390625 -245.200195312 915.950195312 -270.299804688 931.650390625 -302.150390625 c 0
 935.650390625 -310.200195312 942.150390625 -325.099609375 942.799804688 -327.75 c 0
 943 -328.650390625 939.150390625 -336 925.450195312 -360.450195312 c 2
 907.849609375 -392 l 1
 905 -385.049804688 l 2
 877.650390625 -318.299804688 836.25 -281.049804688 780.049804688 -272.5 c 0
 760.700195312 -269.549804688 736.950195312 -270.099609375 715.25 -274 c 0
 706.650390625 -275.5 696 -276.200195312 680 -276.200195312 c 0
 664.700195312 -276.150390625 656.549804688 -275.650390625 643.75 -273.950195312 c 0
 610.549804688 -269.450195312 582.450195312 -258.450195312 560.25 -241.150390625 c 0
 539.549804688 -225.049804688 521.25 -201.650390625 507.450195312 -173.549804688 c 0
 505.400390625 -169.400390625 503.650390625 -166 503.5 -166.049804688 c 0
 503.349609375 -166.049804688 501.400390625 -169.799804688 499.150390625 -174.400390625 c 0
 488.599609375 -195.900390625 476.75 -212.849609375 461.5 -228 c 0
 453.700195312 -235.75 447.599609375 -240.700195312 437.75 -247.25 c 0
 425.349609375 -255.5 411.25 -262.200195312 397 -266.700195312 c 0
 373.549804688 -274.099609375 344.700195312 -277.400390625 315.299804688 -276.049804688 c 0
 300.849609375 -275.349609375 298.450195312 -275.150390625 286.5 -273.299804688 c 0
 272.400390625 -271.200195312 267.299804688 -270.799804688 253 -270.799804688 c 0
 239.549804688 -270.799804688 234.5 -271.150390625 224.5 -272.799804688 c 0
 200.650390625 -276.75 178.700195312 -286.549804688 159.5 -301.799804688 c 0
 153.599609375 -306.5 141.099609375 -319.150390625 135.799804688 -325.75 c 0
 123.200195312 -341.5 110.950195312 -363.049804688 101.950195312 -385.349609375 c 0
 100.5 -389 99.25 -391.900390625 99.2001953125 -391.849609375 c 0
 98.7998046875 -391.400390625 64 -328.849609375 64 -328.549804688 c 0
 64 -327.450195312 70.5498046875 -312.200195312 74.4501953125 -304.25 c 0
 79.75 -293.349609375 83.650390625 -286.5 89.7998046875 -277.25 c 0
 118.400390625 -234.150390625 157.150390625 -210.25 210.25 -203.049804688 c 0
 222.650390625 -201.349609375 231 -200.849609375 246.25 -200.849609375 c 0
 262.299804688 -200.849609375 273.799804688 -201.549804688 282.5 -203.049804688 c 0
 304.75 -206.849609375 327.599609375 -207.450195312 346.5 -204.700195312 c 0
 365.099609375 -202 385.299804688 -194.700195312 400.25 -185.25 c 0
 410.349609375 -178.900390625 421.150390625 -169.849609375 429.700195312 -160.549804688 c 2
 434 -155.849609375 l 1
 424.650390625 -152.75 l 2
 398.599609375 -144.099609375 378.349609375 -133.150390625 363.650390625 -119.75 c 2
 360.5 -116.900390625 l 1
 360.5 -86.150390625 l 1
 360.5 -55.349609375 l 1
 363.599609375 -52.5498046875 l 1
 366.650390625 -49.7001953125 l 1
 364.200195312 -48.7998046875 l 2
 357.75 -46.349609375 343.549804688 -40.0498046875 335.349609375 -35.9501953125 c 0
 323.200195312 -29.849609375 316.25 -25.900390625 307 -19.75 c 0
 278.150390625 -0.5498046875 261.900390625 20.349609375 256.650390625 45 c 0
 255.25 51.7001953125 255.349609375 67.349609375 256.900390625 75 c 0
 260.900390625 94.849609375 272.25 116.549804688 290.25 139 c 0
 315.799804688 170.849609375 357.349609375 207 411.25 244.349609375 c 0
 420.25 250.599609375 441.849609375 264.950195312 450.150390625 270.25 c 0
 453.950195312 272.650390625 456.900390625 274.799804688 456.650390625 275 c 0
 456.450195312 275.25 454.549804688 276.099609375 452.5 276.950195312 c 0
 447.150390625 279.25 439.349609375 284.049804688 434.799804688 287.900390625 c 0
 424.950195312 296.25 417.349609375 309.099609375 415.5 320.650390625 c 0
 414.650390625 325.849609375 415.099609375 334.650390625 416.5 339.5 c 0
 420 351.75 429.299804688 364.150390625 440.650390625 371.700195312 c 0
 452.400390625 379.5 470.400390625 385.650390625 487.900390625 387.75 c 0
512.099609375 351.25 m 0
 510 351.650390625 506 351.950195312 503.25 351.950195312 c 0
 487.650390625 351.849609375 474.700195312 345.349609375 469.950195312 335.25 c 0
 465.5 325.799804688 469.650390625 315.349609375 480.400390625 309.049804688 c 0
 491.849609375 302.299804688 509.349609375 301.450195312 522.75 307 c 0
 534.599609375 311.950195312 541.099609375 322.5 538.25 332.25 c 0
 535.450195312 341.900390625 526 348.799804688 512.099609375 351.25 c 0
530.5 184.25 m 1
 530.5 227.5 l 1
 504 227.5 l 1
 477.5 227.5 l 1
 477.400390625 184.400390625 l 1
 477.25 141.25 l 1
 414.150390625 141.099609375 l 1
 351 141 l 1
 351 127.5 l 1
 351 114 l 1
 414.25 114 l 1
 477.5 114 l 1
 477.5 70.75 l 1
 477.5 27.5 l 1
 504 27.5 l 1
 530.5 27.5 l 1
 530.5 70.75 l 1
 530.5 114 l 1
 592.150390625 114 l 2
 626 114 654.25 114.150390625 654.900390625 114.299804688 c 2
 656 114.599609375 l 1
 656 127.799804688 l 1
 656 141 l 1
 593.25 141 l 1
 530.5 141 l 1
 530.5 184.25 l 1
528.349609375 4.25 m 0
 520.450195312 5 500.150390625 5.5498046875 492.75 5.2001953125 c 0
 452 3.25 411.950195312 -8.0498046875 382.650390625 -25.900390625 c 2
 378 -28.7001953125 l 1
 378 -34.849609375 l 1
 378 -40.9501953125 l 1
 383.25 -37.75 l 2
 411.049804688 -20.900390625 448.450195312 -10 487.099609375 -7.4501953125 c 0
 496.5 -6.7998046875 518.650390625 -7.099609375 528.75 -8 c 0
 563.200195312 -11.0498046875 598.900390625 -22.150390625 624.650390625 -37.7998046875 c 0
 627.099609375 -39.2998046875 629.25 -40.5 629.549804688 -40.5 c 0
 629.799804688 -40.5 630 -38 630 -34.75 c 2
 630 -29 l 1
 626.650390625 -26.7998046875 l 1
 601.549804688 -10.7001953125 565.450195312 0.7001953125 528.349609375 4.25 c 0
548.150390625 -29.099609375 m 0
 543.25 -27.400390625 531.349609375 -23.349609375 521.75 -20.099609375 c 2
 504.25 -14.150390625 l 1
 493.75 -17.75 l 2
 487.950195312 -19.7001953125 476.099609375 -23.75 467.349609375 -26.75 c 0
 458.599609375 -29.7001953125 451.549804688 -32.2001953125 451.650390625 -32.2998046875 c 0
 452 -32.650390625 503.650390625 -50.5 504.349609375 -50.5 c 0
 505.049804688 -50.5 556.5 -32.7001953125 556.849609375 -32.2998046875 c 0
 556.950195312 -32.2001953125 553 -30.75 548.150390625 -29.099609375 c 0
392.5 -56.7998046875 m 0
 386.049804688 -56.099609375 380.150390625 -55.4501953125 379.400390625 -55.349609375 c 2
 378 -55.150390625 l 1
 378 -64.400390625 l 2
 378 -69.4501953125 378.200195312 -73.5 378.400390625 -73.400390625 c 0
 379.549804688 -73 404.5 -58.349609375 404.400390625 -58.2001953125 c 0
 404.299804688 -58.150390625 398.950195312 -57.5 392.5 -56.7998046875 c 0
630 -64.5498046875 m 0
 630 -59.599609375 629.849609375 -55.4501953125 629.650390625 -55.349609375 c 0
 629.25 -55.150390625 605.450195312 -57.75 604.450195312 -58.099609375 c 0
 603.950195312 -58.25 629 -73.5 629.700195312 -73.5 c 0
 629.900390625 -73.5 630 -69.4501953125 630 -64.5498046875 c 0
528.200195312 -56.7998046875 m 0
 520.099609375 -56.0498046875 500.599609375 -55.5 494.25 -55.7998046875 c 0
 452.150390625 -57.900390625 413.900390625 -68.349609375 384.900390625 -85.650390625 c 2
 378 -89.75 l 1
 378 -95.9501953125 l 1
 378 -102.099609375 l 1
 379.400390625 -101.200195312 l 1
 406.450195312 -83.349609375 445.700195312 -71.400390625 486.75 -68.4501953125 c 0
 496.75 -67.75 521.700195312 -68.150390625 531 -69.2001953125 c 0
 567.400390625 -73.2998046875 599.25 -83.400390625 624.75 -98.900390625 c 2
 629.75 -101.950195312 l 1
 629.900390625 -96.349609375 l 2
 629.950195312 -93.2998046875 629.950195312 -90.5498046875 629.799804688 -90.2001953125 c 0
 629.450195312 -89.2998046875 619.700195312 -83.599609375 611.599609375 -79.5498046875 c 0
 587.549804688 -67.5498046875 558.25 -59.5498046875 528.200195312 -56.7998046875 c 0
EndSplineSet
EndChar

StartChar: w
Encoding: 119 119 22
Width: 1000
Flags: H
LayerCount: 2
Fore
SplineSet
496.25 383.450195312 m 0
 499.299804688 383.700195312 502 383.900390625 502.25 383.900390625 c 0
 503.700195312 384.099609375 517.400390625 382.900390625 521.25 382.25 c 0
 531.049804688 380.599609375 542.799804688 376.5 550.099609375 372.200195312 c 0
 561.549804688 365.5 569.549804688 355.799804688 573.049804688 344.5 c 0
 574.700195312 339.150390625 574.700195312 330.799804688 573.049804688 325.5 c 0
 568.349609375 310.349609375 556.650390625 299.099609375 538.349609375 292.299804688 c 0
 531.650390625 289.799804688 523.349609375 287.75 516.299804688 286.849609375 c 0
 513.049804688 286.400390625 510.299804688 286 510.200195312 285.900390625 c 0
 510.099609375 285.799804688 522.099609375 239.75 536.900390625 183.599609375 c 0
 551.650390625 127.450195312 563.900390625 81.7001953125 564.099609375 81.900390625 c 0
 564.650390625 82.4501953125 672 282.5 672 282.950195312 c 0
 672 283.200195312 670.650390625 283.650390625 669 283.950195312 c 0
 657.099609375 286.299804688 641.450195312 293.950195312 633.5 301.349609375 c 0
 627.450195312 307 622.5 315.25 620.75 322.599609375 c 0
 619.150390625 329.5 620.25 338.200195312 623.75 345.799804688 c 0
 630.299804688 360.099609375 645.75 371.599609375 664.900390625 376.450195312 c 0
 675.299804688 379.099609375 692.200195312 380.049804688 703 378.549804688 c 0
 723.099609375 375.849609375 739.5 368.700195312 750.049804688 358.049804688 c 0
 757.849609375 350.200195312 760.950195312 342.950195312 761.349609375 331.75 c 0
 761.650390625 324.200195312 761 320.849609375 758.200195312 315.25 c 0
 755.700195312 310.349609375 752.75 306.349609375 748.200195312 301.849609375 c 0
 736.049804688 289.799804688 718.75 283.349609375 694.700195312 281.950195312 c 0
 689.5 281.650390625 685.200195312 281.349609375 685.150390625 281.299804688 c 0
 685.049804688 281.200195312 686.450195312 71.25 686.599609375 67.9501953125 c 2
 686.75 65.2001953125 l 1
 763 154.900390625 l 2
 804.950195312 204.200195312 839.299804688 244.75 839.400390625 244.950195312 c 0
 839.450195312 245.150390625 837.900390625 245.799804688 835.900390625 246.450195312 c 0
 830.549804688 248.200195312 821.349609375 253.049804688 816.450195312 256.75 c 0
 809.799804688 261.75 805.049804688 267.099609375 802.349609375 272.599609375 c 0
 799.75 277.950195312 799.150390625 280.25 798.700195312 286.049804688 c 0
 797.849609375 297.349609375 802.299804688 308.349609375 811.5 317.549804688 c 0
 823.549804688 329.599609375 840.049804688 336.450195312 860.950195312 338.099609375 c 0
 897.650390625 340.900390625 932.75 323.650390625 939.299804688 299.5 c 0
 940.400390625 295.400390625 940.549804688 285.950195312 939.549804688 282 c 0
 934.700195312 262.950195312 915.25 247.299804688 890.5 242.450195312 c 0
 881.549804688 240.700195312 865.950195312 240.400390625 854.75 241.75 c 2
 851.75 242.099609375 l 1
 821.349609375 120.200195312 l 1
 791 -1.75 l 1
 791 -104.349609375 l 1
 791 -206.950195312 l 1
 784.900390625 -212.549804688 l 2
 765.799804688 -229.900390625 745.099609375 -243.75 718.75 -256.75 c 0
 701.900390625 -265.099609375 685.099609375 -271.849609375 663.5 -279.049804688 c 0
 619.900390625 -293.5 576 -301.650390625 528.799804688 -304.049804688 c 0
 507.400390625 -305.150390625 472.099609375 -304.200195312 450.75 -302 c 0
 407.200195312 -297.5 364.349609375 -287.450195312 323.75 -272.25 c 0
 281.650390625 -256.450195312 249.599609375 -237.450195312 220.650390625 -211.099609375 c 2
 216.5 -207.349609375 l 1
 216.5 -105.299804688 l 1
 216.5 -3.25 l 1
 185.950195312 119.450195312 l 1
 155.349609375 242.099609375 l 1
 152.299804688 241.75 l 2
 146 241 136 240.700195312 129 241.049804688 c 0
 113.349609375 241.849609375 100.099609375 246.150390625 88.25 254.200195312 c 0
 77.9501953125 261.25 70.7998046875 270.599609375 67.900390625 280.849609375 c 0
 66.5498046875 285.799804688 66.400390625 294.099609375 67.7001953125 299 c 0
 73.0498046875 319.799804688 98.650390625 335.599609375 130.849609375 338.049804688 c 0
 156 340 179.150390625 333 194.299804688 318.849609375 c 0
 200.799804688 312.799804688 205.299804688 305.599609375 207.349609375 298 c 0
 208.599609375 293.450195312 208.549804688 282.900390625 207.299804688 278.75 c 0
 203.200195312 265.049804688 190.900390625 254.150390625 171.75 247.099609375 c 0
 169.549804688 246.299804688 167.849609375 245.450195312 167.900390625 245.200195312 c 0
 168.25 244.349609375 320.150390625 65.4501953125 320.349609375 65.650390625 c 0
 320.5 65.7998046875 321.950195312 250.849609375 322 276.799804688 c 2
 322 281.400390625 l 1
 315.150390625 281.75 l 2
 305.950195312 282.200195312 300.900390625 282.799804688 294 284.299804688 c 0
 277.75 287.849609375 266.650390625 293.599609375 257.5 303.299804688 c 0
 244.950195312 316.549804688 242.299804688 330.099609375 249.150390625 345.950195312 c 0
 252.549804688 353.900390625 257.650390625 359.700195312 265.950195312 365.25 c 0
 279.799804688 374.5 297.700195312 379.25 318 379.200195312 c 0
 341.950195312 379.099609375 360.849609375 372.299804688 374.049804688 359 c 0
 379.450195312 353.549804688 382.900390625 348.049804688 385.099609375 341.349609375 c 0
 386.650390625 336.599609375 386.75 335.799804688 386.75 329.5 c 0
 386.75 323.400390625 386.599609375 322.299804688 385.299804688 318.299804688 c 0
 381.650390625 307.200195312 372.299804688 298 357.200195312 290.700195312 c 0
 351.349609375 287.849609375 343.299804688 285 338.049804688 283.950195312 c 0
 335.650390625 283.450195312 335.049804688 283.150390625 335.25 282.5 c 0
 335.549804688 281.799804688 437.549804688 91.5 441.349609375 84.599609375 c 0
 442.349609375 82.849609375 443.200195312 81.5 443.299804688 81.599609375 c 0
 443.349609375 81.7001953125 455.5 127.650390625 470.25 183.700195312 c 0
 488.75 254.150390625 496.849609375 285.75 496.5 286 c 0
 496.150390625 286.200195312 494.25 286.5 492.25 286.650390625 c 0
 483.450195312 287.400390625 470.150390625 291.150390625 461.700195312 295.25 c 0
 447.200195312 302.25 437.299804688 313.299804688 433.700195312 326.549804688 c 0
 432.549804688 330.799804688 432.549804688 339.099609375 433.700195312 343.450195312 c 0
 435.650390625 350.650390625 439.099609375 356.5 445.150390625 362.849609375 c 0
 453.150390625 371.200195312 464.049804688 376.950195312 478.950195312 380.75 c 0
 485.200195312 382.299804688 489.5 383 496.25 383.450195312 c 0
513.799804688 358.299804688 m 0
 510.25 359.049804688 501.400390625 359.599609375 498.75 359.200195312 c 0
 481.650390625 356.799804688 471.549804688 350 468.700195312 339 c 0
 465.799804688 327.549804688 475 316.349609375 490.900390625 312.150390625 c 0
 495.150390625 311 496.75 310.849609375 503.5 310.849609375 c 0
 510.25 310.849609375 511.900390625 311 516.049804688 312.150390625 c 0
 526.400390625 314.900390625 533.400390625 319.799804688 536.849609375 326.900390625 c 0
 538.599609375 330.400390625 538.75 331.049804688 538.75 334.950195312 c 0
 538.75 338.75 538.549804688 339.650390625 537.150390625 342.650390625 c 0
 533.5 350.349609375 525.299804688 355.849609375 513.799804688 358.299804688 c 0
328.25 353.5 m 0
 301.299804688 359.549804688 276.299804688 344.599609375 281.75 325.700195312 c 0
 286.049804688 310.650390625 307.849609375 302.5 329.150390625 307.950195312 c 0
 342.950195312 311.5 351.650390625 320.299804688 351.599609375 330.700195312 c 0
 351.549804688 340.950195312 341.799804688 350.450195312 328.25 353.5 c 0
698.599609375 354.25 m 0
 671.75 358.299804688 649.75 341.950195312 656.950195312 323.349609375 c 0
 658.25 320 662.299804688 315.400390625 665.900390625 313.049804688 c 0
 671.400390625 309.549804688 678.400390625 307.400390625 687.349609375 306.450195312 c 0
 692.200195312 305.950195312 693.700195312 306 698.099609375 306.75 c 0
 708.349609375 308.450195312 714.450195312 311.200195312 719.799804688 316.5 c 0
 723.849609375 320.5 725.650390625 324.5 725.900390625 330 c 0
 726.25 336.900390625 725.299804688 339.299804688 720.599609375 344 c 0
 714.799804688 349.75 708.150390625 352.799804688 698.599609375 354.25 c 0
148.25 312.75 m 0
 143.349609375 313.75 134.349609375 314.099609375 130 313.450195312 c 0
 122 312.200195312 112.599609375 307.900390625 107.700195312 303.150390625 c 0
 103.75 299.400390625 101.75 294.950195312 101.75 289.950195312 c 0
 101.75 286.549804688 101.950195312 285.799804688 103.75 282.200195312 c 0
 108.5 272.700195312 117.299804688 267.299804688 131.450195312 265.200195312 c 0
 137.900390625 264.25 143.299804688 264.75 151.049804688 267.049804688 c 0
 162.450195312 270.400390625 169.599609375 276.400390625 172.049804688 284.700195312 c 0
 174 291.150390625 172.450195312 296.950195312 167.450195312 302.299804688 c 0
 162.5 307.5 155.75 311.200195312 148.25 312.75 c 0
876.299804688 313.450195312 m 0
 867.349609375 314.700195312 857 313.200195312 849.75 309.599609375 c 0
 843.450195312 306.5 838.099609375 301.599609375 835.75 296.799804688 c 0
 832.299804688 289.650390625 834.5 281.349609375 841.599609375 274.75 c 0
 849.099609375 267.799804688 863.200195312 263.650390625 874.5 265 c 0
 888.849609375 266.700195312 898.400390625 272.400390625 903.25 282.099609375 c 0
 905.150390625 285.849609375 905.5 287.049804688 905.5 289.450195312 c 0
 905.5 292.950195312 904.099609375 297.150390625 902 300.25 c 0
 897.75 306.400390625 886.950195312 312 876.299804688 313.450195312 c 0
538.25 36.0498046875 m 0
 531.099609375 36.5498046875 487.75 37.099609375 482 36.7001953125 c 0
 480.5 36.599609375 475.200195312 36.2998046875 470.25 36 c 0
 400.200195312 31.849609375 326.450195312 11.650390625 274.5 -17.650390625 c 0
 267.799804688 -21.4501953125 262.700195312 -24.5498046875 256.150390625 -28.849609375 c 2
 252 -31.5498046875 l 1
 252 -43.75 l 1
 252 -55.9501953125 l 1
 258.400390625 -51.7998046875 l 2
 279.950195312 -37.7001953125 307.25 -24.7001953125 335.799804688 -15 c 0
 373.400390625 -2.2001953125 410.650390625 5.900390625 450.25 10 c 0
 480.650390625 13.150390625 520.400390625 13.349609375 551.75 10.4501953125 c 0
 625.299804688 3.75 699.400390625 -19.7998046875 749.400390625 -52.2998046875 c 0
 752.5 -54.349609375 755.150390625 -56 755.299804688 -56 c 0
 755.400390625 -56 755.5 -50.599609375 755.5 -44.0498046875 c 2
 755.5 -32.0498046875 l 1
 753.900390625 -30.849609375 l 2
 753 -30.150390625 749.549804688 -27.9501953125 746.25 -25.900390625 c 0
 691 8.400390625 617.849609375 30.150390625 538.25 36.0498046875 c 0
556.200195312 -20.0498046875 m 0
 527.349609375 -10.150390625 503.5 -2.0498046875 503.200195312 -2.0498046875 c 0
 502.950195312 -2.099609375 488.799804688 -6.9501953125 471.75 -12.849609375 c 0
 454.700195312 -18.75 431.299804688 -26.849609375 419.75 -30.7998046875 c 0
 408.200195312 -34.7998046875 398.400390625 -38.150390625 398 -38.2998046875 c 0
 397.599609375 -38.4501953125 400.450195312 -39.7001953125 404.400390625 -41.0498046875 c 0
 408.299804688 -42.400390625 432.150390625 -50.599609375 457.349609375 -59.25 c 0
 482.549804688 -67.9501953125 503.599609375 -75 504.049804688 -74.900390625 c 0
 506.25 -74.5498046875 609.400390625 -38.7001953125 609.099609375 -38.4501953125 c 0
 608.900390625 -38.25 585.099609375 -30 556.200195312 -20.0498046875 c 0
279.650390625 -87.5498046875 m 0
 266.200195312 -86.099609375 254.5 -84.75 253.650390625 -84.599609375 c 2
 252 -84.349609375 l 1
 252 -102.650390625 l 1
 252 -120.950195312 l 1
 262.650390625 -114.799804688 l 2
 297.200195312 -94.849609375 304 -90.849609375 304 -90.5498046875 c 0
 304 -90.349609375 293.049804688 -89 279.650390625 -87.5498046875 c 0
755.5 -102.799804688 m 2
 755.5 -84.5 l 1
 754.400390625 -84.5498046875 l 2
 750.599609375 -84.75 703 -90.25 703 -90.5 c 0
 703 -90.75 752.200195312 -119.349609375 755.150390625 -120.849609375 c 0
 755.349609375 -120.950195312 755.5 -112.849609375 755.5 -102.799804688 c 2
537 -86 m 0
 529.799804688 -85.4501953125 489.25 -84.9501953125 484 -85.2998046875 c 0
 482.5 -85.400390625 476.849609375 -85.7001953125 471.5 -86 c 0
 427.349609375 -88.4501953125 382.299804688 -97.150390625 338.75 -111.75 c 0
 307.5 -122.200195312 281.650390625 -134.349609375 258.299804688 -149.5 c 2
 252 -153.599609375 l 1
 252 -165.75 l 1
 252 -177.950195312 l 1
 258.900390625 -173.549804688 l 2
 285.75 -156.25 317.25 -142.200195312 353.25 -131.450195312 c 0
 391.150390625 -120.099609375 427.549804688 -113.5 468.75 -110.5 c 0
 489.200195312 -109 525.900390625 -109.349609375 548.25 -111.299804688 c 0
 623.400390625 -117.75 696.549804688 -140.599609375 748.900390625 -174.049804688 c 0
 752.299804688 -176.25 755.200195312 -178 755.299804688 -178 c 0
 755.400390625 -178 755.5 -172.599609375 755.5 -166 c 2
 755.5 -154.049804688 l 1
 751.150390625 -151.099609375 l 2
 733.849609375 -139.549804688 709.75 -127.400390625 685.25 -117.900390625 c 0
 681.700195312 -116.5 673.150390625 -113.5 666.25 -111.200195312 c 0
 623.75 -97.0498046875 584.150390625 -89.2998046875 537 -86 c 0
EndSplineSet
EndChar

StartChar: D
Encoding: 68 68 23
Width: 1000
Flags: H
LayerCount: 2
Fore
SplineSet
74.0498046875 424.150390625 m 1
 148.099609375 500 l 1
 158.150390625 500 l 1
 168.150390625 500 l 1
 159.200195312 490.849609375 l 2
 154.299804688 485.849609375 119.099609375 449.849609375 81.0498046875 410.849609375 c 2
 11.900390625 340 l 1
 5.9501953125 340 l 1
 0 340 l 1
 0 344.150390625 l 1
 0 348.299804688 l 1
 74.0498046875 424.150390625 l 1
308.75 499.200195312 m 2
 313.450195312 499.549804688 317.799804688 499.900390625 318.5 499.950195312 c 0
 319.650390625 500 319.5 499.799804688 317.25 497.549804688 c 0
 315.849609375 496.25 246.400390625 428.75 162.900390625 347.549804688 c 2
 11 200 l 1
 5.5 200 l 1
 0 200 l 1
 0 205.5 l 1
 0 210.950195312 l 1
 77.400390625 285.599609375 l 2
 119.950195312 326.650390625 186.25 390.150390625 224.75 426.700195312 c 0
 263.25 463.25 296 494.349609375 297.5 495.799804688 c 2
 300.299804688 498.5 l 1
 308.75 499.200195312 l 2
369.450195312 440 m 1
 429.150390625 500 l 1
 439.200195312 500 l 1
 449.25 500 l 1
 420 470.650390625 l 2
 403.900390625 454.450195312 376.200195312 426.599609375 358.349609375 408.75 c 2
 326 376.200195312 l 1
 326.099609375 343.5 l 1
 326.25 310.75 l 1
 353.25 310.599609375 l 1
 380.25 310.5 l 1
 406.349609375 336.599609375 l 1
 432.5 362.75 l 1
 432.599609375 373.25 l 1
 432.75 383.75 l 1
 443.299804688 383.900390625 l 1
 453.849609375 384 l 1
 511.700195312 442 l 1
 569.599609375 500 l 1
 579.450195312 499.900390625 l 1
 589.25 499.75 l 1
 531.650390625 442 l 1
 474.049804688 384.25 l 1
 524.299804688 384.099609375 l 1
 574.5 384 l 1
 574.5 374.349609375 l 1
 574.5 364.75 l 1
 642.150390625 432.400390625 l 1
 709.75 500 l 1
 719.75 500 l 1
 729.75 500 l 1
 652.099609375 422.349609375 l 1
 574.5 344.75 l 1
 574.5 327.599609375 l 1
 574.5 310.5 l 1
 617.400390625 310.5 l 1
 660.25 310.5 l 1
 670.650390625 320.900390625 l 1
 681 331.25 l 1
 681 357.400390625 l 2
 681 377.950195312 681.150390625 383.5 681.650390625 383.5 c 0
 681.950195312 383.5 691.599609375 381.349609375 703 378.75 c 2
 723.700195312 373.950195312 l 1
 786.75 437 l 1
 849.75 500 l 1
 859.75 500 l 1
 869.75 500 l 1
 804.849609375 435.099609375 l 1
 740 370.25 l 1
 757.099609375 366.299804688 l 2
 766.549804688 364.150390625 777.099609375 361.75 780.650390625 360.900390625 c 2
 787 359.400390625 l 1
 787 328.700195312 l 2
 787 311.799804688 787.150390625 298 787.400390625 298 c 0
 787.599609375 298 833.200195312 343.450195312 888.75 399 c 2
 989.75 500 l 1
 994.849609375 500 l 1
 1000 500 l 1
 1000 495.150390625 l 1
 1000 490.25 l 1
 893.5 383.75 l 1
 787 277.25 l 1
 787 257.200195312 l 1
 787 237.150390625 l 1
 761.650390625 225.5 l 2
 747.650390625 219.099609375 731.200195312 211.599609375 725 208.799804688 c 2
 713.75 203.75 l 1
 697.400390625 187.5 l 1
 681 171.299804688 l 1
 681 111.25 l 1
 681 51.25 l 1
 835.400390625 205.650390625 l 1
 989.75 360 l 1
 994.900390625 360 l 1
 1000 360 l 1
 1000 355.099609375 l 1
 1000 350.25 l 1
 840.5 190.75 l 1
 681 31.25 l 1
 681 25.400390625 l 2
 681 22.150390625 680.900390625 19.5 680.799804688 19.5 c 0
 680.700195312 19.5 679.349609375 20.7998046875 677.799804688 22.400390625 c 2
 675.049804688 25.25 l 1
 671 21.25 l 2
 668.799804688 19.0498046875 667 17.0498046875 667 16.7998046875 c 0
 667 16.5498046875 668.400390625 14.75 670.150390625 12.7998046875 c 0
 689 -8.4501953125 702 -39.9501953125 702 -64.349609375 c 2
 702 -67.75 l 1
 845.900390625 76.150390625 l 1
 989.75 220 l 1
 994.900390625 220 l 1
 1000 220 l 1
 1000 215.150390625 l 1
 1000 210.25 l 1
 850 60.25 l 1
 700.049804688 -89.75 l 1
 698.549804688 -95.599609375 l 2
 695.25 -108.5 689.599609375 -120.799804688 681.349609375 -133.25 c 0
 679.700195312 -135.700195312 675.150390625 -141.900390625 671.25 -147 c 0
 663.299804688 -157.349609375 656.900390625 -166.150390625 651.700195312 -174 c 0
 645.700195312 -182.900390625 639.450195312 -194.099609375 640.049804688 -194.75 c 0
 640.200195312 -194.900390625 649.450195312 -198.150390625 660.549804688 -201.950195312 c 2
 680.75 -208.900390625 l 1
 680.900390625 -216.599609375 l 1
 681 -224.299804688 l 1
 682.700195312 -224.900390625 l 1
 684.349609375 -225.5 l 1
 831.299804688 -78.400390625 l 2
 912.150390625 2.5498046875 980.75 71.2998046875 983.75 74.400390625 c 2
 989.200195312 80 l 1
 994.599609375 80 l 1
 1000 80 l 1
 1000 75.150390625 l 1
 1000 70.25 l 1
 860.099609375 -69.75 l 2
 719.900390625 -210.049804688 698.849609375 -231.200195312 698.650390625 -231.900390625 c 0
 698.549804688 -232.099609375 708.849609375 -236.950195312 721.5 -242.75 c 2
 744.5 -253.25 l 1
 744.5 -278.849609375 l 1
 744.5 -304.5 l 1
 685.099609375 -304.5 l 1
 625.700195312 -304.5 l 1
 528 -402.25 l 1
 430.299804688 -500 l 1
 420.549804688 -499.900390625 l 1
 410.75 -499.75 l 1
 507.900390625 -402.5 l 2
 561.299804688 -349 605 -305.049804688 605 -304.849609375 c 0
 605 -304.650390625 578.150390625 -304.5 545.349609375 -304.5 c 2
 485.75 -304.5 l 1
 388 -402.25 l 1
 290.25 -500 l 1
 280.25 -500 l 1
 270.25 -500 l 1
 367.650390625 -402.599609375 l 2
 421.200195312 -349.049804688 465 -305.099609375 465 -304.849609375 c 0
 465 -304.650390625 438.150390625 -304.5 405.349609375 -304.5 c 2
 345.75 -304.5 l 1
 248 -402.25 l 1
 150.25 -500 l 1
 140.25 -500 l 1
 130.25 -500 l 1
 227.650390625 -402.599609375 l 2
 281.200195312 -349.049804688 325 -305.099609375 325 -304.849609375 c 0
 325 -304.650390625 320.5 -304.5 315 -304.5 c 2
 305 -304.5 l 1
 305.099609375 -278.900390625 l 1
 305.25 -253.299804688 l 1
 337 -238.700195312 l 1
 368.75 -224.150390625 l 1
 369 -216.5 l 1
 369.25 -208.849609375 l 1
 387 -202.700195312 l 2
 396.75 -199.299804688 404.950195312 -196.450195312 405.25 -196.349609375 c 0
 405.5 -196.25 404.849609375 -193.849609375 403.75 -190.950195312 c 0
 401.950195312 -186.299804688 401.75 -185.299804688 401.75 -181.25 c 0
 401.75 -176.849609375 401.799804688 -176.650390625 404.099609375 -172.25 c 0
 408 -164.849609375 412.299804688 -159.599609375 417.599609375 -155.700195312 c 0
 434.650390625 -143.299804688 473.400390625 -110.900390625 476.549804688 -106.450195312 c 0
 477.150390625 -105.549804688 477.75 -103.849609375 477.900390625 -102.549804688 c 0
 478.099609375 -100.349609375 478 -100.099609375 476.200195312 -98.5498046875 c 0
 469.349609375 -92.5 455.799804688 -90.75 445.049804688 -94.400390625 c 0
 432.75 -98.650390625 414.400390625 -108.599609375 389 -124.900390625 c 2
 379.25 -131.150390625 l 1
 194.75 -315.549804688 l 1
 10.25 -500 l 1
 5.099609375 -500 l 1
 0 -500 l 1
 0 -495.150390625 l 1
 0 -490.25 l 1
 171.150390625 -319.099609375 l 2
 265.25 -224.950195312 341.799804688 -148.049804688 341.25 -148.150390625 c 0
 335.75 -149.650390625 326.900390625 -150.25 321 -149.549804688 c 0
 314.799804688 -148.799804688 311.200195312 -147.799804688 306.099609375 -145.450195312 c 0
 297.849609375 -141.650390625 292.599609375 -136.900390625 284.150390625 -125.5 c 0
 278.299804688 -117.599609375 274.5 -111.799804688 271.200195312 -105.75 c 2
 268.849609375 -101.400390625 l 1
 139.549804688 -230.700195312 l 1
 10.25 -360 l 1
 5.099609375 -360 l 1
 0 -360 l 1
 0 -355.150390625 l 1
 0 -350.25 l 1
 131.75 -218.5 l 1
 263.549804688 -86.7001953125 l 1
 263.049804688 -84.4501953125 l 2
 262.299804688 -81.25 262.400390625 -75.25 263.25 -71.599609375 c 0
 266.049804688 -59.7998046875 277 -46.099609375 296 -30.5498046875 c 0
 309.799804688 -19.2998046875 318.650390625 -10.7001953125 324.75 -2.5498046875 c 0
 329.150390625 3.2998046875 333.700195312 12.2998046875 334.700195312 17.2998046875 c 0
 336.5 25.75 337.099609375 27.900390625 338.700195312 31.349609375 c 0
 343.200195312 40.849609375 352.200195312 50.2998046875 365 59.099609375 c 0
 367.599609375 60.900390625 370.700195312 62.849609375 371.900390625 63.4501953125 c 0
 374.200195312 64.650390625 391.5 70.5 392.599609375 70.5 c 0
 393 70.5 394.799804688 72.5 396.599609375 74.900390625 c 0
 402.200195312 82.2998046875 409 89.900390625 417.049804688 97.75 c 0
 426.25 106.700195312 439.25 117.700195312 440.099609375 117.299804688 c 0
 440.450195312 117.150390625 443.900390625 114.349609375 447.75 111.049804688 c 2
 454.75 105.049804688 l 1
 496.400390625 146.650390625 l 1
 538 188.25 l 1
 478.150390625 188.400390625 l 1
 418.25 188.549804688 l 1
 389.900390625 160.049804688 l 1
 361.5 131.5 l 1
 361.5 100.849609375 l 1
 361.5 70.2001953125 l 1
 357.299804688 67.349609375 l 2
 344.25 58.4501953125 333.650390625 48.349609375 328.200195312 39.5 c 2
 326.25 36.2998046875 l 1
 326 65.900390625 l 1
 325.75 95.5 l 1
 168 -62.25 l 1
 10.25 -220 l 1
 5.150390625 -220 l 1
 0 -220 l 1
 0 -215.099609375 l 1
 0 -210.25 l 1
 163 -47.25 l 1
 326 115.75 l 1
 325.900390625 152.25 l 1
 325.75 188.700195312 l 1
 309.75 196.049804688 l 1
 293.75 203.450195312 l 1
 152.049804688 61.7001953125 l 1
 10.2998046875 -80 l 1
 5.150390625 -80 l 1
 0 -80 l 1
 0 -75.150390625 l 1
 0 -70.25 l 1
 139.849609375 69.599609375 l 2
 225 154.75 279.549804688 209.650390625 279.25 209.900390625 c 0
 278.950195312 210.150390625 265.549804688 216.400390625 249.400390625 223.799804688 c 2
 220 237.25 l 1
 219.950195312 253.5 l 1
 219.950195312 269.75 l 1
 115.299804688 164.900390625 l 1
 10.7001953125 60 l 1
 5.349609375 60 l 1
 0 60 l 1
 0 64.650390625 l 1
 0 69.349609375 l 1
 110 179.650390625 l 1
 220 290 l 1
 220 324.75 l 2
 220 343.849609375 220.099609375 359.5 220.200195312 359.5 c 0
 220.349609375 359.5 240.5 364.099609375 265.099609375 369.75 c 2
 309.75 379.950195312 l 1
 369.450195312 440 l 1
538.75 344.150390625 m 2
 539.049804688 359.5 l 1
 503.5 359.5 l 1
 468 359.5 l 1
 468 322.799804688 l 1
 468 286.099609375 l 1
 416.150390625 285.900390625 l 2
 387.599609375 285.849609375 347.75 285.849609375 327.650390625 285.900390625 c 2
 291 286.099609375 l 1
 291 313.349609375 l 2
 291 336.400390625 290.900390625 340.549804688 290.299804688 340.349609375 c 0
 289.5 340 289 341.950195312 289 345.549804688 c 0
 289 347.200195312 288.799804688 348 288.349609375 348 c 0
 288 348 284.849609375 347.200195312 281.349609375 346.25 c 0
 277.799804688 345.299804688 274.75 344.599609375 274.5 344.75 c 0
 274.25 344.900390625 270 343.900390625 265.049804688 342.5 c 0
 260.099609375 341.150390625 255.900390625 340 255.75 340 c 0
 255.599609375 340 255.5 336.799804688 255.5 332.900390625 c 2
 255.5 325.849609375 l 1
 256.549804688 326.799804688 l 1
 257.599609375 327.75 l 1
 257.25 317.5 l 2
 256.950195312 309.900390625 256.700195312 307.049804688 256.200195312 306.450195312 c 0
 255.650390625 305.799804688 255.5 301.650390625 255.5 283.599609375 c 2
 255.5 261.549804688 l 1
 503.650390625 261.650390625 l 1
 751.75 261.75 l 1
 751.900390625 300.450195312 l 2
 751.950195312 321.75 751.799804688 339.400390625 751.599609375 339.599609375 c 0
 751.349609375 339.849609375 743.900390625 342.049804688 734.950195312 344.5 c 2
 718.75 348.950195312 l 1
 717.650390625 347.900390625 l 1
 716.5 346.849609375 l 1
 716.400390625 316.549804688 l 1
 716.25 286.25 l 1
 684.5 286 l 2
 667.049804688 285.849609375 627.150390625 285.849609375 595.900390625 285.950195312 c 2
 539 286.099609375 l 1
 539 297.599609375 l 2
 539 305.400390625 538.849609375 308.950195312 538.5 308.75 c 0
 538.099609375 308.5 538.049804688 311.599609375 538.25 318.599609375 c 0
 538.400390625 324.150390625 538.650390625 335.650390625 538.75 344.150390625 c 2
432.5 326.5 m 2
 432.5 335.299804688 432.450195312 342.5 432.349609375 342.5 c 0
 432.299804688 342.5 425.049804688 335.299804688 416.25 326.5 c 2
 400.25 310.5 l 1
 416.400390625 310.5 l 1
 432.5 310.5 l 1
 432.5 326.5 l 2
715.200195312 237.049804688 m 0
 715.5 237.299804688 628.650390625 237.450195312 503.549804688 237.450195312 c 0
 386.900390625 237.400390625 291.599609375 237.200195312 291.849609375 237 c 0
 292.599609375 236.25 301.349609375 232.5 302.25 232.5 c 0
 303.450195312 232.5 315.099609375 227.099609375 315.75 226.25 c 0
 316.049804688 225.900390625 322.450195312 222.799804688 330.049804688 219.299804688 c 2
 343.799804688 213 l 1
 503.599609375 213 l 1
 663.349609375 213 l 1
 689.049804688 224.799804688 l 2
 703.200195312 231.25 714.950195312 236.799804688 715.200195312 237.049804688 c 0
398 188.349609375 m 0
 398 188.450195312 389.799804688 188.5 379.75 188.5 c 2
 361.5 188.5 l 1
 361.5 170.150390625 l 1
 361.5 151.75 l 1
 379.75 170 l 2
 389.799804688 180.049804688 398 188.299804688 398 188.349609375 c 0
645.5 172.150390625 m 1
 645.5 188.5 l 1
 601.849609375 188.5 l 1
 558.25 188.5 l 1
 511.799804688 142.049804688 l 1
 465.349609375 95.599609375 l 1
 471 89.5498046875 l 1
 476.700195312 83.5 l 1
 485.700195312 83.5 l 2
 490.700195312 83.4501953125 497.799804688 83.25 501.5 83 c 2
 508.25 82.5 l 1
 511.450195312 86.150390625 l 2
 520.900390625 96.849609375 545 118.150390625 546.599609375 117.200195312 c 0
 549 115.75 563.150390625 103.349609375 570 96.650390625 c 2
 578.299804688 88.5498046875 l 1
 611.900390625 122.150390625 l 1
 645.5 155.75 l 1
 645.5 172.150390625 l 1
645.5 92.5498046875 m 2
 645.5 115.900390625 645.349609375 135 645.099609375 135 c 0
 644.599609375 135 588 78.349609375 588 77.7998046875 c 0
 588 77.5498046875 588.849609375 76.2001953125 589.900390625 74.7998046875 c 0
 590.950195312 73.400390625 593.349609375 69.849609375 595.200195312 66.9501953125 c 2
 598.549804688 61.650390625 l 1
 606.75 58.0498046875 l 2
 623.450195312 50.7001953125 640.849609375 39.9501953125 653.049804688 29.4501953125 c 2
 656.349609375 26.599609375 l 1
 660.700195312 30.9501953125 l 1
 665 35.25 l 1
 661.400390625 38.2998046875 l 2
 657.049804688 41.849609375 650.599609375 46.7998046875 647.650390625 48.75 c 2
 645.5 50.150390625 l 1
 645.5 92.5498046875 l 2
548.450195312 87.150390625 m 0
 547.450195312 87.900390625 546.349609375 88.5 545.950195312 88.5 c 0
 544.599609375 88.4501953125 537.400390625 81.7998046875 532.450195312 76.0498046875 c 0
 529.700195312 72.849609375 525.650390625 67.599609375 523.450195312 64.349609375 c 0
 521.25 61.150390625 518.900390625 58.099609375 518.200195312 57.650390625 c 0
 517.049804688 56.900390625 516.200195312 56.900390625 506.349609375 57.7998046875 c 0
 492 59.099609375 458.349609375 59.099609375 446.099609375 57.849609375 c 0
 435.400390625 56.75 425.700195312 55.150390625 424.349609375 54.2998046875 c 0
 423.75 53.900390625 419.200195312 52.599609375 414.25 51.349609375 c 0
 409.299804688 50.0498046875 403.400390625 48.5 401.150390625 47.849609375 c 0
 398.900390625 47.2001953125 397.150390625 46.849609375 397.299804688 47.099609375 c 0
 397.650390625 47.7001953125 397.700195312 47.7001953125 391.099609375 45.599609375 c 0
 386.049804688 43.9501953125 384.450195312 43.150390625 380.700195312 40.4501953125 c 0
 375.450195312 36.650390625 369.700195312 31.349609375 366.700195312 27.4501953125 c 0
 362.299804688 21.7001953125 359.200195312 14.400390625 358.799804688 8.650390625 c 0
 358.700195312 6.7998046875 357.900390625 4.5498046875 356.099609375 0.849609375 c 0
 351.450195312 -8.650390625 345.150390625 -15.9501953125 328.849609375 -30.650390625 c 0
 317.450195312 -40.849609375 312.349609375 -46 308.450195312 -51.099609375 c 2
 305.5 -54.900390625 l 1
 308.849609375 -56.0498046875 l 2
 313.150390625 -57.4501953125 316.599609375 -59.5 317.349609375 -61.0498046875 c 0
 318.099609375 -62.4501953125 318.200195312 -65.4501953125 317.549804688 -67.099609375 c 0
 317.299804688 -67.75 316.049804688 -69.5 314.799804688 -71 c 0
 312 -74.2998046875 311.549804688 -76.150390625 312.950195312 -78.900390625 c 0
 313.5 -80 314.25 -81.099609375 314.549804688 -81.25 c 0
 314.799804688 -81.4501953125 315.75 -82.5 316.549804688 -83.599609375 c 0
 320.5 -89.099609375 316.5 -94.7001953125 308.200195312 -95.400390625 c 0
 304.349609375 -95.7001953125 304.25 -95.900390625 306.75 -100.799804688 c 0
 309.099609375 -105.450195312 314.25 -112.549804688 318.200195312 -116.549804688 c 0
 327.900390625 -126.400390625 340.299804688 -127 358.25 -118.5 c 0
 365.299804688 -115.150390625 376.450195312 -107.900390625 394 -95.2998046875 c 0
 399.599609375 -91.25 412.799804688 -83.2998046875 420.200195312 -79.5 c 0
 437.25 -70.7998046875 450.799804688 -68.2001953125 470.400390625 -69.9501953125 c 0
 482.450195312 -71 490.5 -73.75 497.75 -79.25 c 0
 505.950195312 -85.4501953125 508.799804688 -92.25 507.599609375 -102.450195312 c 0
 506.75 -109.75 505.5 -112.599609375 501.549804688 -116.450195312 c 0
 492.25 -125.5 463.849609375 -149.349609375 450.099609375 -159.700195312 c 0
 442.450195312 -165.450195312 439 -170.5 439 -175.900390625 c 0
 439 -181.5 443.200195312 -186.599609375 445.950195312 -184.349609375 c 0
 446.599609375 -183.849609375 448.450195312 -183.849609375 454.5 -184.200195312 c 0
 458.75 -184.450195312 494.849609375 -184.650390625 534.650390625 -184.700195312 c 2
 607.099609375 -184.799804688 l 1
 607.849609375 -183.349609375 l 2
 608.299804688 -182.450195312 608.349609375 -182.049804688 608 -182.25 c 0
 606.549804688 -183.150390625 612.799804688 -172.900390625 619.150390625 -164.099609375 c 0
 621.650390625 -160.599609375 627 -153.450195312 631 -148.25 c 0
 640.400390625 -136.099609375 646 -128.299804688 650.200195312 -121.549804688 c 0
 652 -118.599609375 654.049804688 -115.650390625 654.75 -115 c 0
 656.700195312 -113.150390625 660.5 -102.799804688 662.25 -94.5 c 0
 663.400390625 -88.9501953125 664.650390625 -72.9501953125 664.299804688 -67.650390625 c 0
 663.549804688 -55.75 658.299804688 -39.25 650.900390625 -25.5 c 0
 646.150390625 -16.7001953125 641.299804688 -8.9501953125 640.650390625 -9.2001953125 c 0
 640.299804688 -9.349609375 639.349609375 -8.4501953125 638.450195312 -7.099609375 c 0
 637.549804688 -5.7998046875 635.700195312 -3.349609375 634.349609375 -1.599609375 c 0
 633 0.099609375 632 1.849609375 632.150390625 2.2001953125 c 0
 632.549804688 3.25 621.849609375 13.4501953125 614.75 18.75 c 0
 607.799804688 24 601.799804688 27.7998046875 593.349609375 32.2998046875 c 0
 590.049804688 34.0498046875 586.75 36 586.099609375 36.650390625 c 0
 585.450195312 37.25 583.650390625 39.7998046875 582.150390625 42.25 c 0
 573 57.150390625 570.849609375 60.5 570.299804688 60.5 c 0
 569.450195312 60.5 561.900390625 71.4501953125 562.200195312 72.25 c 0
 562.650390625 73.4501953125 553.5 83.349609375 548.450195312 87.150390625 c 0
443.25 85.25 m 0
 445.450195312 84 446.349609375 82.650390625 445.599609375 81.900390625 c 0
 444.900390625 81.2001953125 439.299804688 80.5 434.549804688 80.5 c 0
 430.849609375 80.5 430.150390625 80.349609375 429.150390625 79.400390625 c 0
 428.400390625 78.7001953125 428.049804688 78.5498046875 428.25 79.0498046875 c 0
 428.400390625 79.4501953125 429.950195312 81 431.650390625 82.5 c 0
 433.349609375 84 434.200195312 84.599609375 433.549804688 83.849609375 c 0
 431.849609375 82 432.450195312 82.150390625 435.799804688 84.5 c 0
 439.150390625 86.849609375 440.400390625 86.9501953125 443.25 85.25 c 0
560.25 -210 m 0
 560.450195312 -209.650390625 540.450195312 -209.5 500.650390625 -209.5 c 0
 452.150390625 -209.549804688 440.599609375 -209.650390625 439.900390625 -210.200195312 c 0
 439.400390625 -210.549804688 433.049804688 -212.950195312 425.799804688 -215.549804688 c 2
 412.549804688 -220.25 l 1
 421.049804688 -220.400390625 l 2
 426.400390625 -220.450195312 429.450195312 -220.700195312 429.25 -221 c 0
 429.049804688 -221.349609375 450.049804688 -221.5 488.950195312 -221.5 c 0
 528.400390625 -221.5 549.049804688 -221.349609375 549.25 -221 c 0
 549.450195312 -220.700195312 553.450195312 -220.5 559.549804688 -220.5 c 0
 566.099609375 -220.5 569.450195312 -220.650390625 569.25 -221 c 0
 569.049804688 -221.349609375 581.349609375 -221.5 605.799804688 -221.5 c 0
 626.099609375 -221.5 642.549804688 -221.400390625 642.450195312 -221.25 c 0
 642.299804688 -221.150390625 634.650390625 -218.450195312 625.400390625 -215.25 c 2
 608.549804688 -209.5 l 1
 594.549804688 -209.5 l 2
 585.75 -209.5 580.450195312 -209.700195312 580.25 -210 c 0
 580.049804688 -210.299804688 576.049804688 -210.5 569.950195312 -210.5 c 0
 563.400390625 -210.5 560.049804688 -210.349609375 560.25 -210 c 0
409.25 -221 m 0
 409.099609375 -221.25 408.450195312 -221.5 407.849609375 -221.450195312 c 0
 406.799804688 -221.450195312 406.799804688 -221.400390625 407.75 -221 c 0
 409.150390625 -220.400390625 409.599609375 -220.400390625 409.25 -221 c 0
662.099609375 -246.549804688 m 0
 661.349609375 -246.150390625 624.700195312 -246 532.650390625 -246 c 2
 404.200195312 -246 l 1
 401.75 -248.5 l 1
 399.299804688 -251 l 1
 459.299804688 -251 l 1
 519.299804688 -251 l 1
 521.5 -248.75 l 1
 523.700195312 -246.5 l 1
 533.700195312 -246.5 l 1
 543.700195312 -246.5 l 1
 541.5 -248.75 l 1
 539.299804688 -251 l 1
 599.299804688 -251 l 1
 659.299804688 -251 l 1
 661.200195312 -249.049804688 l 2
 663.049804688 -247.150390625 663.049804688 -247.049804688 662.099609375 -246.549804688 c 0
570.900390625 -274.849609375 m 0
 545.900390625 -274.950195312 505.099609375 -274.950195312 480.150390625 -274.849609375 c 0
 455.150390625 -274.799804688 475.599609375 -274.75 525.5 -274.75 c 0
 575.400390625 -274.75 595.849609375 -274.799804688 570.900390625 -274.849609375 c 0
352.150390625 -278 m 1
 354.75 -275.5 l 1
 347.650390625 -275.5 l 1
 340.5 -275.5 l 1
 340.5 -278 l 1
 340.5 -280.5 l 1
 345.049804688 -280.5 l 1
 349.549804688 -280.5 l 1
 352.150390625 -278 l 1
492.150390625 -278 m 1
 494.75 -275.5 l 1
 434.75 -275.5 l 1
 374.700195312 -275.5 l 1
 372.599609375 -277.650390625 l 2
 371.450195312 -278.799804688 370.5 -279.950195312 370.5 -280.150390625 c 0
 370.5 -280.349609375 397.299804688 -280.5 430.049804688 -280.5 c 2
 489.549804688 -280.5 l 1
 492.150390625 -278 l 1
632.150390625 -278 m 1
 634.75 -275.5 l 1
 574.75 -275.5 l 1
 514.700195312 -275.5 l 1
 512.25 -278 l 1
 509.799804688 -280.5 l 1
 569.700195312 -280.5 l 1
 629.549804688 -280.5 l 1
 632.150390625 -278 l 1
709 -278 m 1
 709 -275.5 l 1
 681.849609375 -275.5 l 1
 654.700195312 -275.5 l 1
 652.25 -278 l 1
 649.799804688 -280.5 l 1
 679.400390625 -280.5 l 1
 709 -280.5 l 1
 709 -278 l 1
419.25 33 m 0
 423.299804688 33.7998046875 432.150390625 33.5498046875 436.150390625 32.5 c 0
 447.349609375 29.650390625 455.200195312 22.099609375 455.200195312 14.2001953125 c 0
 455.200195312 8.400390625 450.5 1.5498046875 444.5 -1.5 c 0
 435.900390625 -5.849609375 423.5 -6.5 413.400390625 -3.150390625 c 0
 404.549804688 -0.25 398.900390625 6.599609375 398.799804688 14.5 c 0
 398.700195312 22.4501953125 407.799804688 30.7001953125 419.25 33 c 0
809 -240.799804688 m 2
 989.25 -60 l 1
 994.650390625 -60 l 1
 1000 -60 l 1
 1000 -64.650390625 l 1
 1000 -69.2998046875 l 1
 785.5 -284.549804688 l 1
 570.950195312 -499.75 l 1
 560.950195312 -499.900390625 l 1
 550.900390625 -500 l 1
 589.799804688 -460.799804688 l 2
 611.25 -439.25 709.849609375 -340.25 809 -240.799804688 c 2
933 -264.349609375 m 0
 969.700195312 -229 999.799804688 -200.049804688 999.900390625 -200.049804688 c 0
 999.950195312 -200 1000 -204 1000 -208.900390625 c 2
 1000 -217.799804688 l 1
 855.5 -358.900390625 l 1
 711 -500 l 1
 705.5 -500 l 1
 700 -500 l 1
 700 -494.5 l 1
 700 -489 l 1
 783.150390625 -408.849609375 l 2
 828.849609375 -364.75 896.299804688 -299.75 933 -264.349609375 c 0
918.700195312 -411.099609375 m 2
 988.099609375 -340 l 1
 994.049804688 -340 l 1
 1000 -340 l 1
 1000 -344.150390625 l 1
 1000 -348.299804688 l 1
 925.950195312 -424.150390625 l 1
 851.900390625 -500 l 1
 841.849609375 -500 l 1
 831.849609375 -500 l 1
 840.549804688 -491.099609375 l 2
 845.349609375 -486.25 880.5 -450.25 918.700195312 -411.099609375 c 2
EndSplineSet
EndChar

